<?xml version="1.0" encoding="utf-8" standalone="no"?>
<!DOCTYPE svg PUBLIC "-//W3C//DTD SVG 1.1//EN"
  "http://www.w3.org/Graphics/SVG/1.1/DTD/svg11.dtd">
<!-- Created with matplotlib (https://matplotlib.org/) -->
<svg height="510.154844pt" version="1.1" viewBox="0 0 406.658 510.154844" width="406.658pt" xmlns="http://www.w3.org/2000/svg" xmlns:xlink="http://www.w3.org/1999/xlink">
 <defs>
  <style type="text/css">
*{stroke-linecap:butt;stroke-linejoin:round;}
  </style>
 </defs>
 <g id="figure_1">
  <g id="patch_1">
   <path d="M 0 510.154844 
L 406.658 510.154844 
L 406.658 0 
L 0 0 
z
" style="fill:#ffffff;"/>
  </g>
  <g id="axes_1">
   <g id="patch_2">
    <path d="M 91.398781 459.933562 
L 370.398781 459.933562 
L 370.398781 25.053562 
L 91.398781 25.053562 
z
" style="fill:#ffffff;"/>
   </g>
   <g id="matplotlib.axis_1">
    <g id="xtick_1">
     <g id="line2d_1">
      <path clip-path="url(#p90653921b9)" d="M 104.080599 459.933562 
L 104.080599 25.053562 
" style="fill:none;stroke:#b0b0b0;stroke-linecap:square;stroke-opacity:0.2;stroke-width:1.3;"/>
     </g>
     <g id="line2d_2">
      <defs>
       <path d="M 0 0 
L 0 3.5 
" id="m0ac10466fc" style="stroke:#000000;stroke-width:1.3;"/>
      </defs>
      <g>
       <use style="stroke:#000000;stroke-width:1.3;" x="104.080599" xlink:href="#m0ac10466fc" y="459.933562"/>
      </g>
     </g>
     <g id="text_1">
      <!-- 0 -->
      <defs>
       <path d="M 31.78125 66.40625 
Q 24.171875 66.40625 20.328125 58.90625 
Q 16.5 51.421875 16.5 36.375 
Q 16.5 21.390625 20.328125 13.890625 
Q 24.171875 6.390625 31.78125 6.390625 
Q 39.453125 6.390625 43.28125 13.890625 
Q 47.125 21.390625 47.125 36.375 
Q 47.125 51.421875 43.28125 58.90625 
Q 39.453125 66.40625 31.78125 66.40625 
z
M 31.78125 74.21875 
Q 44.046875 74.21875 50.515625 64.515625 
Q 56.984375 54.828125 56.984375 36.375 
Q 56.984375 17.96875 50.515625 8.265625 
Q 44.046875 -1.421875 31.78125 -1.421875 
Q 19.53125 -1.421875 13.0625 8.265625 
Q 6.59375 17.96875 6.59375 36.375 
Q 6.59375 54.828125 13.0625 64.515625 
Q 19.53125 74.21875 31.78125 74.21875 
z
" id="DejaVuSans-48"/>
      </defs>
      <g transform="translate(99.944974 482.411531)scale(0.13 -0.13)">
       <use xlink:href="#DejaVuSans-48"/>
      </g>
     </g>
    </g>
    <g id="xtick_2">
     <g id="line2d_3">
      <path clip-path="url(#p90653921b9)" d="M 170.827011 459.933562 
L 170.827011 25.053562 
" style="fill:none;stroke:#b0b0b0;stroke-linecap:square;stroke-opacity:0.2;stroke-width:1.3;"/>
     </g>
     <g id="line2d_4">
      <g>
       <use style="stroke:#000000;stroke-width:1.3;" x="170.827011" xlink:href="#m0ac10466fc" y="459.933562"/>
      </g>
     </g>
     <g id="text_2">
      <!-- 20 -->
      <defs>
       <path d="M 19.1875 8.296875 
L 53.609375 8.296875 
L 53.609375 0 
L 7.328125 0 
L 7.328125 8.296875 
Q 12.9375 14.109375 22.625 23.890625 
Q 32.328125 33.6875 34.8125 36.53125 
Q 39.546875 41.84375 41.421875 45.53125 
Q 43.3125 49.21875 43.3125 52.78125 
Q 43.3125 58.59375 39.234375 62.25 
Q 35.15625 65.921875 28.609375 65.921875 
Q 23.96875 65.921875 18.8125 64.3125 
Q 13.671875 62.703125 7.8125 59.421875 
L 7.8125 69.390625 
Q 13.765625 71.78125 18.9375 73 
Q 24.125 74.21875 28.421875 74.21875 
Q 39.75 74.21875 46.484375 68.546875 
Q 53.21875 62.890625 53.21875 53.421875 
Q 53.21875 48.921875 51.53125 44.890625 
Q 49.859375 40.875 45.40625 35.40625 
Q 44.1875 33.984375 37.640625 27.21875 
Q 31.109375 20.453125 19.1875 8.296875 
z
" id="DejaVuSans-50"/>
      </defs>
      <g transform="translate(162.555761 482.411531)scale(0.13 -0.13)">
       <use xlink:href="#DejaVuSans-50"/>
       <use x="63.623047" xlink:href="#DejaVuSans-48"/>
      </g>
     </g>
    </g>
    <g id="xtick_3">
     <g id="line2d_5">
      <path clip-path="url(#p90653921b9)" d="M 237.573422 459.933562 
L 237.573422 25.053562 
" style="fill:none;stroke:#b0b0b0;stroke-linecap:square;stroke-opacity:0.2;stroke-width:1.3;"/>
     </g>
     <g id="line2d_6">
      <g>
       <use style="stroke:#000000;stroke-width:1.3;" x="237.573422" xlink:href="#m0ac10466fc" y="459.933562"/>
      </g>
     </g>
     <g id="text_3">
      <!-- 40 -->
      <defs>
       <path d="M 37.796875 64.3125 
L 12.890625 25.390625 
L 37.796875 25.390625 
z
M 35.203125 72.90625 
L 47.609375 72.90625 
L 47.609375 25.390625 
L 58.015625 25.390625 
L 58.015625 17.1875 
L 47.609375 17.1875 
L 47.609375 0 
L 37.796875 0 
L 37.796875 17.1875 
L 4.890625 17.1875 
L 4.890625 26.703125 
z
" id="DejaVuSans-52"/>
      </defs>
      <g transform="translate(229.302172 482.411531)scale(0.13 -0.13)">
       <use xlink:href="#DejaVuSans-52"/>
       <use x="63.623047" xlink:href="#DejaVuSans-48"/>
      </g>
     </g>
    </g>
    <g id="xtick_4">
     <g id="line2d_7">
      <path clip-path="url(#p90653921b9)" d="M 304.319834 459.933562 
L 304.319834 25.053562 
" style="fill:none;stroke:#b0b0b0;stroke-linecap:square;stroke-opacity:0.2;stroke-width:1.3;"/>
     </g>
     <g id="line2d_8">
      <g>
       <use style="stroke:#000000;stroke-width:1.3;" x="304.319834" xlink:href="#m0ac10466fc" y="459.933562"/>
      </g>
     </g>
     <g id="text_4">
      <!-- 60 -->
      <defs>
       <path d="M 33.015625 40.375 
Q 26.375 40.375 22.484375 35.828125 
Q 18.609375 31.296875 18.609375 23.390625 
Q 18.609375 15.53125 22.484375 10.953125 
Q 26.375 6.390625 33.015625 6.390625 
Q 39.65625 6.390625 43.53125 10.953125 
Q 47.40625 15.53125 47.40625 23.390625 
Q 47.40625 31.296875 43.53125 35.828125 
Q 39.65625 40.375 33.015625 40.375 
z
M 52.59375 71.296875 
L 52.59375 62.3125 
Q 48.875 64.0625 45.09375 64.984375 
Q 41.3125 65.921875 37.59375 65.921875 
Q 27.828125 65.921875 22.671875 59.328125 
Q 17.53125 52.734375 16.796875 39.40625 
Q 19.671875 43.65625 24.015625 45.921875 
Q 28.375 48.1875 33.59375 48.1875 
Q 44.578125 48.1875 50.953125 41.515625 
Q 57.328125 34.859375 57.328125 23.390625 
Q 57.328125 12.15625 50.6875 5.359375 
Q 44.046875 -1.421875 33.015625 -1.421875 
Q 20.359375 -1.421875 13.671875 8.265625 
Q 6.984375 17.96875 6.984375 36.375 
Q 6.984375 53.65625 15.1875 63.9375 
Q 23.390625 74.21875 37.203125 74.21875 
Q 40.921875 74.21875 44.703125 73.484375 
Q 48.484375 72.75 52.59375 71.296875 
z
" id="DejaVuSans-54"/>
      </defs>
      <g transform="translate(296.048584 482.411531)scale(0.13 -0.13)">
       <use xlink:href="#DejaVuSans-54"/>
       <use x="63.623047" xlink:href="#DejaVuSans-48"/>
      </g>
     </g>
    </g>
    <g id="text_5">
     <!-- Days since 100th confirmed case -->
     <defs>
      <path d="M 19.671875 64.796875 
L 19.671875 8.109375 
L 31.59375 8.109375 
Q 46.6875 8.109375 53.6875 14.9375 
Q 60.6875 21.78125 60.6875 36.53125 
Q 60.6875 51.171875 53.6875 57.984375 
Q 46.6875 64.796875 31.59375 64.796875 
z
M 9.8125 72.90625 
L 30.078125 72.90625 
Q 51.265625 72.90625 61.171875 64.09375 
Q 71.09375 55.28125 71.09375 36.53125 
Q 71.09375 17.671875 61.125 8.828125 
Q 51.171875 0 30.078125 0 
L 9.8125 0 
z
" id="DejaVuSans-68"/>
      <path d="M 34.28125 27.484375 
Q 23.390625 27.484375 19.1875 25 
Q 14.984375 22.515625 14.984375 16.5 
Q 14.984375 11.71875 18.140625 8.90625 
Q 21.296875 6.109375 26.703125 6.109375 
Q 34.1875 6.109375 38.703125 11.40625 
Q 43.21875 16.703125 43.21875 25.484375 
L 43.21875 27.484375 
z
M 52.203125 31.203125 
L 52.203125 0 
L 43.21875 0 
L 43.21875 8.296875 
Q 40.140625 3.328125 35.546875 0.953125 
Q 30.953125 -1.421875 24.3125 -1.421875 
Q 15.921875 -1.421875 10.953125 3.296875 
Q 6 8.015625 6 15.921875 
Q 6 25.140625 12.171875 29.828125 
Q 18.359375 34.515625 30.609375 34.515625 
L 43.21875 34.515625 
L 43.21875 35.40625 
Q 43.21875 41.609375 39.140625 45 
Q 35.0625 48.390625 27.6875 48.390625 
Q 23 48.390625 18.546875 47.265625 
Q 14.109375 46.140625 10.015625 43.890625 
L 10.015625 52.203125 
Q 14.9375 54.109375 19.578125 55.046875 
Q 24.21875 56 28.609375 56 
Q 40.484375 56 46.34375 49.84375 
Q 52.203125 43.703125 52.203125 31.203125 
z
" id="DejaVuSans-97"/>
      <path d="M 32.171875 -5.078125 
Q 28.375 -14.84375 24.75 -17.8125 
Q 21.140625 -20.796875 15.09375 -20.796875 
L 7.90625 -20.796875 
L 7.90625 -13.28125 
L 13.1875 -13.28125 
Q 16.890625 -13.28125 18.9375 -11.515625 
Q 21 -9.765625 23.484375 -3.21875 
L 25.09375 0.875 
L 2.984375 54.6875 
L 12.5 54.6875 
L 29.59375 11.921875 
L 46.6875 54.6875 
L 56.203125 54.6875 
z
" id="DejaVuSans-121"/>
      <path d="M 44.28125 53.078125 
L 44.28125 44.578125 
Q 40.484375 46.53125 36.375 47.5 
Q 32.28125 48.484375 27.875 48.484375 
Q 21.1875 48.484375 17.84375 46.4375 
Q 14.5 44.390625 14.5 40.28125 
Q 14.5 37.15625 16.890625 35.375 
Q 19.28125 33.59375 26.515625 31.984375 
L 29.59375 31.296875 
Q 39.15625 29.25 43.1875 25.515625 
Q 47.21875 21.78125 47.21875 15.09375 
Q 47.21875 7.46875 41.1875 3.015625 
Q 35.15625 -1.421875 24.609375 -1.421875 
Q 20.21875 -1.421875 15.453125 -0.5625 
Q 10.6875 0.296875 5.421875 2 
L 5.421875 11.28125 
Q 10.40625 8.6875 15.234375 7.390625 
Q 20.0625 6.109375 24.8125 6.109375 
Q 31.15625 6.109375 34.5625 8.28125 
Q 37.984375 10.453125 37.984375 14.40625 
Q 37.984375 18.0625 35.515625 20.015625 
Q 33.0625 21.96875 24.703125 23.78125 
L 21.578125 24.515625 
Q 13.234375 26.265625 9.515625 29.90625 
Q 5.8125 33.546875 5.8125 39.890625 
Q 5.8125 47.609375 11.28125 51.796875 
Q 16.75 56 26.8125 56 
Q 31.78125 56 36.171875 55.265625 
Q 40.578125 54.546875 44.28125 53.078125 
z
" id="DejaVuSans-115"/>
      <path id="DejaVuSans-32"/>
      <path d="M 9.421875 54.6875 
L 18.40625 54.6875 
L 18.40625 0 
L 9.421875 0 
z
M 9.421875 75.984375 
L 18.40625 75.984375 
L 18.40625 64.59375 
L 9.421875 64.59375 
z
" id="DejaVuSans-105"/>
      <path d="M 54.890625 33.015625 
L 54.890625 0 
L 45.90625 0 
L 45.90625 32.71875 
Q 45.90625 40.484375 42.875 44.328125 
Q 39.84375 48.1875 33.796875 48.1875 
Q 26.515625 48.1875 22.3125 43.546875 
Q 18.109375 38.921875 18.109375 30.90625 
L 18.109375 0 
L 9.078125 0 
L 9.078125 54.6875 
L 18.109375 54.6875 
L 18.109375 46.1875 
Q 21.34375 51.125 25.703125 53.5625 
Q 30.078125 56 35.796875 56 
Q 45.21875 56 50.046875 50.171875 
Q 54.890625 44.34375 54.890625 33.015625 
z
" id="DejaVuSans-110"/>
      <path d="M 48.78125 52.59375 
L 48.78125 44.1875 
Q 44.96875 46.296875 41.140625 47.34375 
Q 37.3125 48.390625 33.40625 48.390625 
Q 24.65625 48.390625 19.8125 42.84375 
Q 14.984375 37.3125 14.984375 27.296875 
Q 14.984375 17.28125 19.8125 11.734375 
Q 24.65625 6.203125 33.40625 6.203125 
Q 37.3125 6.203125 41.140625 7.25 
Q 44.96875 8.296875 48.78125 10.40625 
L 48.78125 2.09375 
Q 45.015625 0.34375 40.984375 -0.53125 
Q 36.96875 -1.421875 32.421875 -1.421875 
Q 20.0625 -1.421875 12.78125 6.34375 
Q 5.515625 14.109375 5.515625 27.296875 
Q 5.515625 40.671875 12.859375 48.328125 
Q 20.21875 56 33.015625 56 
Q 37.15625 56 41.109375 55.140625 
Q 45.0625 54.296875 48.78125 52.59375 
z
" id="DejaVuSans-99"/>
      <path d="M 56.203125 29.59375 
L 56.203125 25.203125 
L 14.890625 25.203125 
Q 15.484375 15.921875 20.484375 11.0625 
Q 25.484375 6.203125 34.421875 6.203125 
Q 39.59375 6.203125 44.453125 7.46875 
Q 49.3125 8.734375 54.109375 11.28125 
L 54.109375 2.78125 
Q 49.265625 0.734375 44.1875 -0.34375 
Q 39.109375 -1.421875 33.890625 -1.421875 
Q 20.796875 -1.421875 13.15625 6.1875 
Q 5.515625 13.8125 5.515625 26.8125 
Q 5.515625 40.234375 12.765625 48.109375 
Q 20.015625 56 32.328125 56 
Q 43.359375 56 49.78125 48.890625 
Q 56.203125 41.796875 56.203125 29.59375 
z
M 47.21875 32.234375 
Q 47.125 39.59375 43.09375 43.984375 
Q 39.0625 48.390625 32.421875 48.390625 
Q 24.90625 48.390625 20.390625 44.140625 
Q 15.875 39.890625 15.1875 32.171875 
z
" id="DejaVuSans-101"/>
      <path d="M 12.40625 8.296875 
L 28.515625 8.296875 
L 28.515625 63.921875 
L 10.984375 60.40625 
L 10.984375 69.390625 
L 28.421875 72.90625 
L 38.28125 72.90625 
L 38.28125 8.296875 
L 54.390625 8.296875 
L 54.390625 0 
L 12.40625 0 
z
" id="DejaVuSans-49"/>
      <path d="M 18.3125 70.21875 
L 18.3125 54.6875 
L 36.8125 54.6875 
L 36.8125 47.703125 
L 18.3125 47.703125 
L 18.3125 18.015625 
Q 18.3125 11.328125 20.140625 9.421875 
Q 21.96875 7.515625 27.59375 7.515625 
L 36.8125 7.515625 
L 36.8125 0 
L 27.59375 0 
Q 17.1875 0 13.234375 3.875 
Q 9.28125 7.765625 9.28125 18.015625 
L 9.28125 47.703125 
L 2.6875 47.703125 
L 2.6875 54.6875 
L 9.28125 54.6875 
L 9.28125 70.21875 
z
" id="DejaVuSans-116"/>
      <path d="M 54.890625 33.015625 
L 54.890625 0 
L 45.90625 0 
L 45.90625 32.71875 
Q 45.90625 40.484375 42.875 44.328125 
Q 39.84375 48.1875 33.796875 48.1875 
Q 26.515625 48.1875 22.3125 43.546875 
Q 18.109375 38.921875 18.109375 30.90625 
L 18.109375 0 
L 9.078125 0 
L 9.078125 75.984375 
L 18.109375 75.984375 
L 18.109375 46.1875 
Q 21.34375 51.125 25.703125 53.5625 
Q 30.078125 56 35.796875 56 
Q 45.21875 56 50.046875 50.171875 
Q 54.890625 44.34375 54.890625 33.015625 
z
" id="DejaVuSans-104"/>
      <path d="M 30.609375 48.390625 
Q 23.390625 48.390625 19.1875 42.75 
Q 14.984375 37.109375 14.984375 27.296875 
Q 14.984375 17.484375 19.15625 11.84375 
Q 23.34375 6.203125 30.609375 6.203125 
Q 37.796875 6.203125 41.984375 11.859375 
Q 46.1875 17.53125 46.1875 27.296875 
Q 46.1875 37.015625 41.984375 42.703125 
Q 37.796875 48.390625 30.609375 48.390625 
z
M 30.609375 56 
Q 42.328125 56 49.015625 48.375 
Q 55.71875 40.765625 55.71875 27.296875 
Q 55.71875 13.875 49.015625 6.21875 
Q 42.328125 -1.421875 30.609375 -1.421875 
Q 18.84375 -1.421875 12.171875 6.21875 
Q 5.515625 13.875 5.515625 27.296875 
Q 5.515625 40.765625 12.171875 48.375 
Q 18.84375 56 30.609375 56 
z
" id="DejaVuSans-111"/>
      <path d="M 37.109375 75.984375 
L 37.109375 68.5 
L 28.515625 68.5 
Q 23.6875 68.5 21.796875 66.546875 
Q 19.921875 64.59375 19.921875 59.515625 
L 19.921875 54.6875 
L 34.71875 54.6875 
L 34.71875 47.703125 
L 19.921875 47.703125 
L 19.921875 0 
L 10.890625 0 
L 10.890625 47.703125 
L 2.296875 47.703125 
L 2.296875 54.6875 
L 10.890625 54.6875 
L 10.890625 58.5 
Q 10.890625 67.625 15.140625 71.796875 
Q 19.390625 75.984375 28.609375 75.984375 
z
" id="DejaVuSans-102"/>
      <path d="M 41.109375 46.296875 
Q 39.59375 47.171875 37.8125 47.578125 
Q 36.03125 48 33.890625 48 
Q 26.265625 48 22.1875 43.046875 
Q 18.109375 38.09375 18.109375 28.8125 
L 18.109375 0 
L 9.078125 0 
L 9.078125 54.6875 
L 18.109375 54.6875 
L 18.109375 46.1875 
Q 20.953125 51.171875 25.484375 53.578125 
Q 30.03125 56 36.53125 56 
Q 37.453125 56 38.578125 55.875 
Q 39.703125 55.765625 41.0625 55.515625 
z
" id="DejaVuSans-114"/>
      <path d="M 52 44.1875 
Q 55.375 50.25 60.0625 53.125 
Q 64.75 56 71.09375 56 
Q 79.640625 56 84.28125 50.015625 
Q 88.921875 44.046875 88.921875 33.015625 
L 88.921875 0 
L 79.890625 0 
L 79.890625 32.71875 
Q 79.890625 40.578125 77.09375 44.375 
Q 74.3125 48.1875 68.609375 48.1875 
Q 61.625 48.1875 57.5625 43.546875 
Q 53.515625 38.921875 53.515625 30.90625 
L 53.515625 0 
L 44.484375 0 
L 44.484375 32.71875 
Q 44.484375 40.625 41.703125 44.40625 
Q 38.921875 48.1875 33.109375 48.1875 
Q 26.21875 48.1875 22.15625 43.53125 
Q 18.109375 38.875 18.109375 30.90625 
L 18.109375 0 
L 9.078125 0 
L 9.078125 54.6875 
L 18.109375 54.6875 
L 18.109375 46.1875 
Q 21.1875 51.21875 25.484375 53.609375 
Q 29.78125 56 35.6875 56 
Q 41.65625 56 45.828125 52.96875 
Q 50 49.953125 52 44.1875 
z
" id="DejaVuSans-109"/>
      <path d="M 45.40625 46.390625 
L 45.40625 75.984375 
L 54.390625 75.984375 
L 54.390625 0 
L 45.40625 0 
L 45.40625 8.203125 
Q 42.578125 3.328125 38.25 0.953125 
Q 33.9375 -1.421875 27.875 -1.421875 
Q 17.96875 -1.421875 11.734375 6.484375 
Q 5.515625 14.40625 5.515625 27.296875 
Q 5.515625 40.1875 11.734375 48.09375 
Q 17.96875 56 27.875 56 
Q 33.9375 56 38.25 53.625 
Q 42.578125 51.265625 45.40625 46.390625 
z
M 14.796875 27.296875 
Q 14.796875 17.390625 18.875 11.75 
Q 22.953125 6.109375 30.078125 6.109375 
Q 37.203125 6.109375 41.296875 11.75 
Q 45.40625 17.390625 45.40625 27.296875 
Q 45.40625 37.203125 41.296875 42.84375 
Q 37.203125 48.484375 30.078125 48.484375 
Q 22.953125 48.484375 18.875 42.84375 
Q 14.796875 37.203125 14.796875 27.296875 
z
" id="DejaVuSans-100"/>
     </defs>
     <g transform="translate(111.914961 499.980891)scale(0.143 -0.143)">
      <use xlink:href="#DejaVuSans-68"/>
      <use x="77.001953" xlink:href="#DejaVuSans-97"/>
      <use x="138.28125" xlink:href="#DejaVuSans-121"/>
      <use x="197.460938" xlink:href="#DejaVuSans-115"/>
      <use x="249.560547" xlink:href="#DejaVuSans-32"/>
      <use x="281.347656" xlink:href="#DejaVuSans-115"/>
      <use x="333.447266" xlink:href="#DejaVuSans-105"/>
      <use x="361.230469" xlink:href="#DejaVuSans-110"/>
      <use x="424.609375" xlink:href="#DejaVuSans-99"/>
      <use x="479.589844" xlink:href="#DejaVuSans-101"/>
      <use x="541.113281" xlink:href="#DejaVuSans-32"/>
      <use x="572.900391" xlink:href="#DejaVuSans-49"/>
      <use x="636.523438" xlink:href="#DejaVuSans-48"/>
      <use x="700.146484" xlink:href="#DejaVuSans-48"/>
      <use x="763.769531" xlink:href="#DejaVuSans-116"/>
      <use x="802.978516" xlink:href="#DejaVuSans-104"/>
      <use x="866.357422" xlink:href="#DejaVuSans-32"/>
      <use x="898.144531" xlink:href="#DejaVuSans-99"/>
      <use x="953.125" xlink:href="#DejaVuSans-111"/>
      <use x="1014.306641" xlink:href="#DejaVuSans-110"/>
      <use x="1077.685547" xlink:href="#DejaVuSans-102"/>
      <use x="1112.890625" xlink:href="#DejaVuSans-105"/>
      <use x="1140.673828" xlink:href="#DejaVuSans-114"/>
      <use x="1180.037109" xlink:href="#DejaVuSans-109"/>
      <use x="1277.449219" xlink:href="#DejaVuSans-101"/>
      <use x="1338.972656" xlink:href="#DejaVuSans-100"/>
      <use x="1402.449219" xlink:href="#DejaVuSans-32"/>
      <use x="1434.236328" xlink:href="#DejaVuSans-99"/>
      <use x="1489.216797" xlink:href="#DejaVuSans-97"/>
      <use x="1550.496094" xlink:href="#DejaVuSans-115"/>
      <use x="1602.595703" xlink:href="#DejaVuSans-101"/>
     </g>
    </g>
   </g>
   <g id="matplotlib.axis_2">
    <g id="ytick_1">
     <g id="line2d_9">
      <path clip-path="url(#p90653921b9)" d="M 91.398781 440.16629 
L 370.398781 440.16629 
" style="fill:none;stroke:#b0b0b0;stroke-linecap:square;stroke-opacity:0.2;stroke-width:1.3;"/>
     </g>
     <g id="line2d_10">
      <defs>
       <path d="M 0 0 
L -3.5 0 
" id="m38eee795bc" style="stroke:#000000;stroke-width:1.3;"/>
      </defs>
      <g>
       <use style="stroke:#000000;stroke-width:1.3;" x="91.398781" xlink:href="#m38eee795bc" y="440.16629"/>
      </g>
     </g>
     <g id="text_6">
      <!-- 100 -->
      <g transform="translate(53.985031 445.105274)scale(0.13 -0.13)">
       <use xlink:href="#DejaVuSans-49"/>
       <use x="63.623047" xlink:href="#DejaVuSans-48"/>
       <use x="127.246094" xlink:href="#DejaVuSans-48"/>
      </g>
     </g>
    </g>
    <g id="ytick_2">
     <g id="line2d_11">
      <path clip-path="url(#p90653921b9)" d="M 91.398781 325.373436 
L 370.398781 325.373436 
" style="fill:none;stroke:#b0b0b0;stroke-linecap:square;stroke-opacity:0.2;stroke-width:1.3;"/>
     </g>
     <g id="line2d_12">
      <g>
       <use style="stroke:#000000;stroke-width:1.3;" x="91.398781" xlink:href="#m38eee795bc" y="325.373436"/>
      </g>
     </g>
     <g id="text_7">
      <!-- 1,000 -->
      <defs>
       <path d="M 11.71875 12.40625 
L 22.015625 12.40625 
L 22.015625 4 
L 14.015625 -11.625 
L 7.71875 -11.625 
L 11.71875 4 
z
" id="DejaVuSans-44"/>
      </defs>
      <g transform="translate(41.582219 330.31242)scale(0.13 -0.13)">
       <use xlink:href="#DejaVuSans-49"/>
       <use x="63.623047" xlink:href="#DejaVuSans-44"/>
       <use x="95.410156" xlink:href="#DejaVuSans-48"/>
       <use x="159.033203" xlink:href="#DejaVuSans-48"/>
       <use x="222.65625" xlink:href="#DejaVuSans-48"/>
      </g>
     </g>
    </g>
    <g id="ytick_3">
     <g id="line2d_13">
      <path clip-path="url(#p90653921b9)" d="M 91.398781 210.580582 
L 370.398781 210.580582 
" style="fill:none;stroke:#b0b0b0;stroke-linecap:square;stroke-opacity:0.2;stroke-width:1.3;"/>
     </g>
     <g id="line2d_14">
      <g>
       <use style="stroke:#000000;stroke-width:1.3;" x="91.398781" xlink:href="#m38eee795bc" y="210.580582"/>
      </g>
     </g>
     <g id="text_8">
      <!-- 10,000 -->
      <g transform="translate(33.310969 215.519566)scale(0.13 -0.13)">
       <use xlink:href="#DejaVuSans-49"/>
       <use x="63.623047" xlink:href="#DejaVuSans-48"/>
       <use x="127.246094" xlink:href="#DejaVuSans-44"/>
       <use x="159.033203" xlink:href="#DejaVuSans-48"/>
       <use x="222.65625" xlink:href="#DejaVuSans-48"/>
       <use x="286.279297" xlink:href="#DejaVuSans-48"/>
      </g>
     </g>
    </g>
    <g id="ytick_4">
     <g id="line2d_15">
      <path clip-path="url(#p90653921b9)" d="M 91.398781 95.787728 
L 370.398781 95.787728 
" style="fill:none;stroke:#b0b0b0;stroke-linecap:square;stroke-opacity:0.2;stroke-width:1.3;"/>
     </g>
     <g id="line2d_16">
      <g>
       <use style="stroke:#000000;stroke-width:1.3;" x="91.398781" xlink:href="#m38eee795bc" y="95.787728"/>
      </g>
     </g>
     <g id="text_9">
      <!-- 100,000 -->
      <g transform="translate(25.039719 100.726712)scale(0.13 -0.13)">
       <use xlink:href="#DejaVuSans-49"/>
       <use x="63.623047" xlink:href="#DejaVuSans-48"/>
       <use x="127.246094" xlink:href="#DejaVuSans-48"/>
       <use x="190.869141" xlink:href="#DejaVuSans-44"/>
       <use x="222.65625" xlink:href="#DejaVuSans-48"/>
       <use x="286.279297" xlink:href="#DejaVuSans-48"/>
       <use x="349.902344" xlink:href="#DejaVuSans-48"/>
      </g>
     </g>
    </g>
    <g id="ytick_5">
     <g id="line2d_17">
      <defs>
       <path d="M 0 0 
L -2 0 
" id="m1f343c69ff" style="stroke:#000000;stroke-width:0.65;"/>
      </defs>
      <g>
       <use style="stroke:#000000;stroke-width:0.65;" x="91.398781" xlink:href="#m1f343c69ff" y="457.947928"/>
      </g>
     </g>
    </g>
    <g id="ytick_6">
     <g id="line2d_18">
      <g>
       <use style="stroke:#000000;stroke-width:0.65;" x="91.398781" xlink:href="#m1f343c69ff" y="451.290867"/>
      </g>
     </g>
    </g>
    <g id="ytick_7">
     <g id="line2d_19">
      <g>
       <use style="stroke:#000000;stroke-width:0.65;" x="91.398781" xlink:href="#m1f343c69ff" y="445.418923"/>
      </g>
     </g>
    </g>
    <g id="ytick_8">
     <g id="line2d_20">
      <g>
       <use style="stroke:#000000;stroke-width:0.65;" x="91.398781" xlink:href="#m1f343c69ff" y="405.610197"/>
      </g>
     </g>
    </g>
    <g id="ytick_9">
     <g id="line2d_21">
      <g>
       <use style="stroke:#000000;stroke-width:0.65;" x="91.398781" xlink:href="#m1f343c69ff" y="385.396179"/>
      </g>
     </g>
    </g>
    <g id="ytick_10">
     <g id="line2d_22">
      <g>
       <use style="stroke:#000000;stroke-width:0.65;" x="91.398781" xlink:href="#m1f343c69ff" y="371.054105"/>
      </g>
     </g>
    </g>
    <g id="ytick_11">
     <g id="line2d_23">
      <g>
       <use style="stroke:#000000;stroke-width:0.65;" x="91.398781" xlink:href="#m1f343c69ff" y="359.929528"/>
      </g>
     </g>
    </g>
    <g id="ytick_12">
     <g id="line2d_24">
      <g>
       <use style="stroke:#000000;stroke-width:0.65;" x="91.398781" xlink:href="#m1f343c69ff" y="350.840087"/>
      </g>
     </g>
    </g>
    <g id="ytick_13">
     <g id="line2d_25">
      <g>
       <use style="stroke:#000000;stroke-width:0.65;" x="91.398781" xlink:href="#m1f343c69ff" y="343.155074"/>
      </g>
     </g>
    </g>
    <g id="ytick_14">
     <g id="line2d_26">
      <g>
       <use style="stroke:#000000;stroke-width:0.65;" x="91.398781" xlink:href="#m1f343c69ff" y="336.498013"/>
      </g>
     </g>
    </g>
    <g id="ytick_15">
     <g id="line2d_27">
      <g>
       <use style="stroke:#000000;stroke-width:0.65;" x="91.398781" xlink:href="#m1f343c69ff" y="330.626069"/>
      </g>
     </g>
    </g>
    <g id="ytick_16">
     <g id="line2d_28">
      <g>
       <use style="stroke:#000000;stroke-width:0.65;" x="91.398781" xlink:href="#m1f343c69ff" y="290.817343"/>
      </g>
     </g>
    </g>
    <g id="ytick_17">
     <g id="line2d_29">
      <g>
       <use style="stroke:#000000;stroke-width:0.65;" x="91.398781" xlink:href="#m1f343c69ff" y="270.603325"/>
      </g>
     </g>
    </g>
    <g id="ytick_18">
     <g id="line2d_30">
      <g>
       <use style="stroke:#000000;stroke-width:0.65;" x="91.398781" xlink:href="#m1f343c69ff" y="256.261251"/>
      </g>
     </g>
    </g>
    <g id="ytick_19">
     <g id="line2d_31">
      <g>
       <use style="stroke:#000000;stroke-width:0.65;" x="91.398781" xlink:href="#m1f343c69ff" y="245.136674"/>
      </g>
     </g>
    </g>
    <g id="ytick_20">
     <g id="line2d_32">
      <g>
       <use style="stroke:#000000;stroke-width:0.65;" x="91.398781" xlink:href="#m1f343c69ff" y="236.047233"/>
      </g>
     </g>
    </g>
    <g id="ytick_21">
     <g id="line2d_33">
      <g>
       <use style="stroke:#000000;stroke-width:0.65;" x="91.398781" xlink:href="#m1f343c69ff" y="228.36222"/>
      </g>
     </g>
    </g>
    <g id="ytick_22">
     <g id="line2d_34">
      <g>
       <use style="stroke:#000000;stroke-width:0.65;" x="91.398781" xlink:href="#m1f343c69ff" y="221.705159"/>
      </g>
     </g>
    </g>
    <g id="ytick_23">
     <g id="line2d_35">
      <g>
       <use style="stroke:#000000;stroke-width:0.65;" x="91.398781" xlink:href="#m1f343c69ff" y="215.833215"/>
      </g>
     </g>
    </g>
    <g id="ytick_24">
     <g id="line2d_36">
      <g>
       <use style="stroke:#000000;stroke-width:0.65;" x="91.398781" xlink:href="#m1f343c69ff" y="176.024489"/>
      </g>
     </g>
    </g>
    <g id="ytick_25">
     <g id="line2d_37">
      <g>
       <use style="stroke:#000000;stroke-width:0.65;" x="91.398781" xlink:href="#m1f343c69ff" y="155.810471"/>
      </g>
     </g>
    </g>
    <g id="ytick_26">
     <g id="line2d_38">
      <g>
       <use style="stroke:#000000;stroke-width:0.65;" x="91.398781" xlink:href="#m1f343c69ff" y="141.468397"/>
      </g>
     </g>
    </g>
    <g id="ytick_27">
     <g id="line2d_39">
      <g>
       <use style="stroke:#000000;stroke-width:0.65;" x="91.398781" xlink:href="#m1f343c69ff" y="130.34382"/>
      </g>
     </g>
    </g>
    <g id="ytick_28">
     <g id="line2d_40">
      <g>
       <use style="stroke:#000000;stroke-width:0.65;" x="91.398781" xlink:href="#m1f343c69ff" y="121.254379"/>
      </g>
     </g>
    </g>
    <g id="ytick_29">
     <g id="line2d_41">
      <g>
       <use style="stroke:#000000;stroke-width:0.65;" x="91.398781" xlink:href="#m1f343c69ff" y="113.569366"/>
      </g>
     </g>
    </g>
    <g id="ytick_30">
     <g id="line2d_42">
      <g>
       <use style="stroke:#000000;stroke-width:0.65;" x="91.398781" xlink:href="#m1f343c69ff" y="106.912305"/>
      </g>
     </g>
    </g>
    <g id="ytick_31">
     <g id="line2d_43">
      <g>
       <use style="stroke:#000000;stroke-width:0.65;" x="91.398781" xlink:href="#m1f343c69ff" y="101.040361"/>
      </g>
     </g>
    </g>
    <g id="ytick_32">
     <g id="line2d_44">
      <g>
       <use style="stroke:#000000;stroke-width:0.65;" x="91.398781" xlink:href="#m1f343c69ff" y="61.231635"/>
      </g>
     </g>
    </g>
    <g id="ytick_33">
     <g id="line2d_45">
      <g>
       <use style="stroke:#000000;stroke-width:0.65;" x="91.398781" xlink:href="#m1f343c69ff" y="41.017617"/>
      </g>
     </g>
    </g>
    <g id="ytick_34">
     <g id="line2d_46">
      <g>
       <use style="stroke:#000000;stroke-width:0.65;" x="91.398781" xlink:href="#m1f343c69ff" y="26.675543"/>
      </g>
     </g>
    </g>
    <g id="text_10">
     <!-- Cumulative number of cases (log10 scale) -->
     <defs>
      <path d="M 64.40625 67.28125 
L 64.40625 56.890625 
Q 59.421875 61.53125 53.78125 63.8125 
Q 48.140625 66.109375 41.796875 66.109375 
Q 29.296875 66.109375 22.65625 58.46875 
Q 16.015625 50.828125 16.015625 36.375 
Q 16.015625 21.96875 22.65625 14.328125 
Q 29.296875 6.6875 41.796875 6.6875 
Q 48.140625 6.6875 53.78125 8.984375 
Q 59.421875 11.28125 64.40625 15.921875 
L 64.40625 5.609375 
Q 59.234375 2.09375 53.4375 0.328125 
Q 47.65625 -1.421875 41.21875 -1.421875 
Q 24.65625 -1.421875 15.125 8.703125 
Q 5.609375 18.84375 5.609375 36.375 
Q 5.609375 53.953125 15.125 64.078125 
Q 24.65625 74.21875 41.21875 74.21875 
Q 47.75 74.21875 53.53125 72.484375 
Q 59.328125 70.75 64.40625 67.28125 
z
" id="DejaVuSans-67"/>
      <path d="M 8.5 21.578125 
L 8.5 54.6875 
L 17.484375 54.6875 
L 17.484375 21.921875 
Q 17.484375 14.15625 20.5 10.265625 
Q 23.53125 6.390625 29.59375 6.390625 
Q 36.859375 6.390625 41.078125 11.03125 
Q 45.3125 15.671875 45.3125 23.6875 
L 45.3125 54.6875 
L 54.296875 54.6875 
L 54.296875 0 
L 45.3125 0 
L 45.3125 8.40625 
Q 42.046875 3.421875 37.71875 1 
Q 33.40625 -1.421875 27.6875 -1.421875 
Q 18.265625 -1.421875 13.375 4.4375 
Q 8.5 10.296875 8.5 21.578125 
z
M 31.109375 56 
z
" id="DejaVuSans-117"/>
      <path d="M 9.421875 75.984375 
L 18.40625 75.984375 
L 18.40625 0 
L 9.421875 0 
z
" id="DejaVuSans-108"/>
      <path d="M 2.984375 54.6875 
L 12.5 54.6875 
L 29.59375 8.796875 
L 46.6875 54.6875 
L 56.203125 54.6875 
L 35.6875 0 
L 23.484375 0 
z
" id="DejaVuSans-118"/>
      <path d="M 48.6875 27.296875 
Q 48.6875 37.203125 44.609375 42.84375 
Q 40.53125 48.484375 33.40625 48.484375 
Q 26.265625 48.484375 22.1875 42.84375 
Q 18.109375 37.203125 18.109375 27.296875 
Q 18.109375 17.390625 22.1875 11.75 
Q 26.265625 6.109375 33.40625 6.109375 
Q 40.53125 6.109375 44.609375 11.75 
Q 48.6875 17.390625 48.6875 27.296875 
z
M 18.109375 46.390625 
Q 20.953125 51.265625 25.265625 53.625 
Q 29.59375 56 35.59375 56 
Q 45.5625 56 51.78125 48.09375 
Q 58.015625 40.1875 58.015625 27.296875 
Q 58.015625 14.40625 51.78125 6.484375 
Q 45.5625 -1.421875 35.59375 -1.421875 
Q 29.59375 -1.421875 25.265625 0.953125 
Q 20.953125 3.328125 18.109375 8.203125 
L 18.109375 0 
L 9.078125 0 
L 9.078125 75.984375 
L 18.109375 75.984375 
z
" id="DejaVuSans-98"/>
      <path d="M 31 75.875 
Q 24.46875 64.65625 21.28125 53.65625 
Q 18.109375 42.671875 18.109375 31.390625 
Q 18.109375 20.125 21.3125 9.0625 
Q 24.515625 -2 31 -13.1875 
L 23.1875 -13.1875 
Q 15.875 -1.703125 12.234375 9.375 
Q 8.59375 20.453125 8.59375 31.390625 
Q 8.59375 42.28125 12.203125 53.3125 
Q 15.828125 64.359375 23.1875 75.875 
z
" id="DejaVuSans-40"/>
      <path d="M 45.40625 27.984375 
Q 45.40625 37.75 41.375 43.109375 
Q 37.359375 48.484375 30.078125 48.484375 
Q 22.859375 48.484375 18.828125 43.109375 
Q 14.796875 37.75 14.796875 27.984375 
Q 14.796875 18.265625 18.828125 12.890625 
Q 22.859375 7.515625 30.078125 7.515625 
Q 37.359375 7.515625 41.375 12.890625 
Q 45.40625 18.265625 45.40625 27.984375 
z
M 54.390625 6.78125 
Q 54.390625 -7.171875 48.1875 -13.984375 
Q 42 -20.796875 29.203125 -20.796875 
Q 24.46875 -20.796875 20.265625 -20.09375 
Q 16.0625 -19.390625 12.109375 -17.921875 
L 12.109375 -9.1875 
Q 16.0625 -11.328125 19.921875 -12.34375 
Q 23.78125 -13.375 27.78125 -13.375 
Q 36.625 -13.375 41.015625 -8.765625 
Q 45.40625 -4.15625 45.40625 5.171875 
L 45.40625 9.625 
Q 42.625 4.78125 38.28125 2.390625 
Q 33.9375 0 27.875 0 
Q 17.828125 0 11.671875 7.65625 
Q 5.515625 15.328125 5.515625 27.984375 
Q 5.515625 40.671875 11.671875 48.328125 
Q 17.828125 56 27.875 56 
Q 33.9375 56 38.28125 53.609375 
Q 42.625 51.21875 45.40625 46.390625 
L 45.40625 54.6875 
L 54.390625 54.6875 
z
" id="DejaVuSans-103"/>
      <path d="M 8.015625 75.875 
L 15.828125 75.875 
Q 23.140625 64.359375 26.78125 53.3125 
Q 30.421875 42.28125 30.421875 31.390625 
Q 30.421875 20.453125 26.78125 9.375 
Q 23.140625 -1.703125 15.828125 -13.1875 
L 8.015625 -13.1875 
Q 14.5 -2 17.703125 9.0625 
Q 20.90625 20.125 20.90625 31.390625 
Q 20.90625 42.671875 17.703125 53.65625 
Q 14.5 64.65625 8.015625 75.875 
z
" id="DejaVuSans-41"/>
     </defs>
     <g transform="translate(18.065766 393.624453)rotate(-90)scale(0.143 -0.143)">
      <use xlink:href="#DejaVuSans-67"/>
      <use x="69.824219" xlink:href="#DejaVuSans-117"/>
      <use x="133.203125" xlink:href="#DejaVuSans-109"/>
      <use x="230.615234" xlink:href="#DejaVuSans-117"/>
      <use x="293.994141" xlink:href="#DejaVuSans-108"/>
      <use x="321.777344" xlink:href="#DejaVuSans-97"/>
      <use x="383.056641" xlink:href="#DejaVuSans-116"/>
      <use x="422.265625" xlink:href="#DejaVuSans-105"/>
      <use x="450.048828" xlink:href="#DejaVuSans-118"/>
      <use x="509.228516" xlink:href="#DejaVuSans-101"/>
      <use x="570.751953" xlink:href="#DejaVuSans-32"/>
      <use x="602.539062" xlink:href="#DejaVuSans-110"/>
      <use x="665.917969" xlink:href="#DejaVuSans-117"/>
      <use x="729.296875" xlink:href="#DejaVuSans-109"/>
      <use x="826.708984" xlink:href="#DejaVuSans-98"/>
      <use x="890.185547" xlink:href="#DejaVuSans-101"/>
      <use x="951.708984" xlink:href="#DejaVuSans-114"/>
      <use x="992.822266" xlink:href="#DejaVuSans-32"/>
      <use x="1024.609375" xlink:href="#DejaVuSans-111"/>
      <use x="1085.791016" xlink:href="#DejaVuSans-102"/>
      <use x="1120.996094" xlink:href="#DejaVuSans-32"/>
      <use x="1152.783203" xlink:href="#DejaVuSans-99"/>
      <use x="1207.763672" xlink:href="#DejaVuSans-97"/>
      <use x="1269.042969" xlink:href="#DejaVuSans-115"/>
      <use x="1321.142578" xlink:href="#DejaVuSans-101"/>
      <use x="1382.666016" xlink:href="#DejaVuSans-115"/>
      <use x="1434.765625" xlink:href="#DejaVuSans-32"/>
      <use x="1466.552734" xlink:href="#DejaVuSans-40"/>
      <use x="1505.566406" xlink:href="#DejaVuSans-108"/>
      <use x="1533.349609" xlink:href="#DejaVuSans-111"/>
      <use x="1594.53125" xlink:href="#DejaVuSans-103"/>
      <use x="1658.007812" xlink:href="#DejaVuSans-49"/>
      <use x="1721.630859" xlink:href="#DejaVuSans-48"/>
      <use x="1785.253906" xlink:href="#DejaVuSans-32"/>
      <use x="1817.041016" xlink:href="#DejaVuSans-115"/>
      <use x="1869.140625" xlink:href="#DejaVuSans-99"/>
      <use x="1924.121094" xlink:href="#DejaVuSans-97"/>
      <use x="1985.400391" xlink:href="#DejaVuSans-108"/>
      <use x="2013.183594" xlink:href="#DejaVuSans-101"/>
      <use x="2074.707031" xlink:href="#DejaVuSans-41"/>
     </g>
    </g>
   </g>
   <g id="line2d_47">
    <path clip-path="url(#p90653921b9)" d="M 104.080599 438.692668 
L 107.41792 429.041713 
L 110.755241 417.047339 
L 114.092561 397.996455 
L 117.429882 379.450432 
L 120.767202 367.102028 
L 124.104523 354.816682 
L 127.441843 339.450329 
L 130.779164 324.142413 
L 134.116485 311.835474 
L 137.453805 300.016584 
L 140.791126 286.658451 
L 144.128446 271.424329 
L 147.465767 259.1607 
L 150.803087 248.636812 
L 154.140408 232.619857 
L 157.477729 213.585821 
L 160.815049 192.923734 
L 164.15237 176.970665 
L 167.48969 161.532456 
L 170.827011 147.832892 
L 174.164331 134.023975 
L 177.501652 125.383288 
L 180.838973 114.146728 
L 184.176293 103.312055 
L 187.513614 93.504658 
L 190.850934 84.796939 
L 194.188255 77.947546 
L 197.525576 70.937073 
L 200.862896 63.88914 
L 204.200217 57.228694 
L 207.537537 51.004481 
L 210.874858 44.820835 
" style="fill:none;stroke:#808080;stroke-linecap:square;stroke-opacity:0.6;stroke-width:0.5;"/>
   </g>
   <g id="line2d_48">
    <path clip-path="url(#p90653921b9)" d="M 104.080599 426.325264 
L 107.41792 398.859748 
L 110.755241 381.868065 
L 114.092561 371.054105 
L 117.429882 346.849645 
L 120.767202 331.295259 
L 124.104523 319.368725 
L 127.441843 299.243179 
L 130.779164 295.109899 
L 134.116485 279.652899 
L 137.453805 269.14584 
L 140.791126 258.063243 
L 144.128446 248.904931 
L 147.465767 237.028987 
L 150.803087 225.760556 
L 154.140408 214.889441 
L 157.477729 209.843238 
L 160.815049 199.607791 
L 164.15237 189.992405 
L 167.48969 182.227814 
L 170.827011 181.974391 
L 174.164331 166.97661 
L 177.501652 159.285658 
L 180.838973 153.368596 
L 184.176293 147.120069 
L 187.513614 140.194834 
L 190.850934 133.40628 
L 194.188255 126.898141 
L 197.525576 121.975808 
L 200.862896 118.093779 
L 204.200217 114.159699 
L 207.537537 110.539619 
L 210.874858 106.57754 
L 214.212178 103.018981 
L 217.549499 99.689508 
L 220.88682 96.953373 
L 224.22414 94.92822 
L 227.561461 92.980718 
L 230.898781 90.776673 
L 234.236102 88.71525 
L 237.573422 86.770211 
" style="fill:none;stroke:#808080;stroke-linecap:square;stroke-opacity:0.6;stroke-width:0.5;"/>
   </g>
   <g id="line2d_49">
    <path clip-path="url(#p90653921b9)" d="M 104.080599 433.634019 
L 107.41792 419.621015 
L 110.755241 405.610197 
L 114.092561 392.338937 
L 117.429882 374.404724 
L 120.767202 367.448638 
L 124.104523 351.762557 
L 127.441843 316.118091 
L 130.779164 300.741305 
L 134.116485 287.444296 
L 137.453805 270.536898 
L 140.791126 253.462253 
L 144.128446 238.142992 
L 147.465767 223.268661 
L 150.803087 214.786274 
L 154.140408 205.028728 
L 157.477729 194.827848 
L 160.815049 183.697456 
L 164.15237 176.074368 
L 167.48969 165.047699 
L 170.827011 158.241854 
L 174.164331 150.924613 
L 177.501652 141.877628 
L 180.838973 132.785673 
L 184.176293 124.526856 
L 187.513614 117.990944 
L 190.850934 111.993514 
L 194.188255 107.667677 
L 197.525576 103.775691 
L 200.862896 98.651787 
L 204.200217 94.734062 
L 207.537537 90.928394 
L 210.874858 87.65886 
" style="fill:none;stroke:#808080;stroke-linecap:square;stroke-opacity:0.6;stroke-width:0.5;"/>
   </g>
   <g id="line2d_50">
    <path clip-path="url(#p90653921b9)" d="M 104.080599 401.773389 
L 107.41792 397.570351 
L 110.755241 372.830259 
L 114.092561 357.402278 
L 117.429882 348.964739 
L 120.767202 331.633252 
L 124.104523 311.419234 
L 127.441843 291.117368 
L 130.779164 274.490012 
L 134.116485 250.080066 
L 137.453805 236.097112 
L 140.791126 223.390986 
L 144.128446 212.02719 
L 147.465767 202.291031 
L 150.803087 192.405161 
L 154.140408 183.511726 
L 157.477729 174.920086 
L 160.815049 166.274722 
L 164.15237 159.166422 
L 167.48969 153.843982 
L 170.827011 148.662489 
L 174.164331 145.043463 
L 177.501652 141.212308 
L 180.838973 138.216637 
L 184.176293 135.903165 
L 187.513614 121.366676 
L 190.850934 118.020526 
L 194.188255 116.082325 
L 197.525576 114.601265 
L 200.862896 113.131159 
L 204.200217 111.814426 
L 207.537537 110.625479 
L 210.874858 110.361662 
L 214.212178 109.77016 
L 217.549499 109.228008 
L 220.88682 108.807423 
L 224.22414 108.666507 
L 227.561461 108.335182 
L 230.898781 108.072974 
L 234.236102 107.793741 
L 237.573422 107.585495 
L 240.910743 107.315881 
L 244.248064 106.95657 
L 247.585384 106.828869 
L 250.922705 106.749921 
L 254.260025 106.676059 
L 257.597346 106.603545 
L 260.934666 106.498371 
L 264.271987 106.43599 
L 267.609308 106.407605 
L 270.946628 106.379852 
L 274.283949 106.367522 
L 277.621269 106.34965 
L 280.95859 106.334864 
L 284.29591 106.321314 
L 287.633231 106.309614 
L 290.970552 106.296071 
L 294.307872 106.280685 
L 297.645193 106.254233 
L 300.982513 106.24009 
L 304.319834 106.213045 
L 307.657154 106.152247 
L 310.994475 106.120343 
L 314.331796 106.080491 
L 317.669116 105.995988 
L 321.006437 105.95379 
L 324.343757 105.90613 
L 327.681078 105.843876 
L 331.018398 105.786572 
L 334.355719 105.714123 
L 337.69304 105.645424 
L 341.03036 105.585921 
L 344.367681 105.534975 
L 347.705001 105.502251 
L 351.042322 105.441708 
L 354.379642 105.399372 
L 357.716963 105.361904 
" style="fill:none;stroke:#808080;stroke-linecap:square;stroke-opacity:0.6;stroke-width:0.5;"/>
   </g>
   <g id="line2d_51">
    <path clip-path="url(#p90653921b9)" d="M 104.080599 434.963536 
L 107.41792 427.471381 
L 110.755241 417.67841 
L 114.092561 406.617381 
L 117.429882 392.148291 
L 120.767202 371.054105 
L 124.104523 344.307817 
L 127.441843 333.651905 
L 130.779164 330.515405 
L 134.116485 318.884916 
L 137.453805 312.447186 
L 140.791126 302.980909 
L 144.128446 282.376043 
L 147.465767 269.583513 
L 150.803087 258.884062 
L 154.140408 246.778687 
L 157.477729 235.947625 
L 160.815049 227.263389 
L 164.15237 220.486297 
L 167.48969 193.317117 
L 170.827011 180.761868 
L 174.164331 172.504891 
L 177.501652 165.352641 
L 180.838973 157.137472 
L 184.176293 153.2927 
L 187.513614 146.022453 
L 190.850934 138.695328 
L 194.188255 131.778113 
L 197.525576 127.866829 
L 200.862896 123.551589 
L 204.200217 119.689684 
L 207.537537 115.481502 
L 210.874858 111.122066 
L 214.212178 111.122066 
L 217.549499 107.10211 
" style="fill:none;stroke:#808080;stroke-linecap:square;stroke-opacity:0.6;stroke-width:0.5;"/>
   </g>
   <g id="line2d_52">
    <path clip-path="url(#p90653921b9)" d="M 104.080599 440.16629 
L 107.41792 427.086407 
L 110.755241 411.419863 
L 114.092561 402.705265 
L 117.429882 387.95335 
L 120.767202 368.266891 
L 124.104523 349.771454 
L 127.441843 342.028384 
L 130.779164 319.457197 
L 134.116485 308.173483 
L 137.453805 296.515103 
L 140.791126 284.263212 
L 144.128446 272.707751 
L 147.465767 260.676214 
L 150.803087 250.400387 
L 154.140408 241.087976 
L 157.477729 231.047 
L 160.815049 223.416777 
L 164.15237 215.096417 
L 167.48969 205.851663 
L 170.827011 199.011303 
L 174.164331 192.197854 
L 177.501652 187.093012 
L 180.838973 176.384736 
L 184.176293 170.593201 
L 187.513614 164.437426 
L 190.850934 157.234845 
L 194.188255 151.113302 
L 197.525576 144.586286 
L 200.862896 141.252003 
L 204.200217 136.097501 
L 207.537537 128.265948 
L 210.874858 123.821172 
L 214.212178 122.003635 
L 217.549499 117.774284 
" style="fill:none;stroke:#808080;stroke-linecap:square;stroke-opacity:0.6;stroke-width:0.5;"/>
   </g>
   <g id="line2d_53">
    <path clip-path="url(#p90653921b9)" d="M 104.080599 423.749213 
L 107.41792 395.492804 
L 110.755241 372.572615 
L 114.092561 351.425135 
L 117.429882 326.482466 
L 120.767202 305.126193 
L 124.104523 283.075387 
L 127.441843 271.916675 
L 130.779164 262.733484 
L 134.116485 247.725342 
L 137.453805 237.540052 
L 140.791126 231.553135 
L 144.128446 227.228568 
L 147.465767 221.44411 
L 150.803087 215.833215 
L 154.140408 210.208073 
L 157.477729 204.205994 
L 160.815049 198.550946 
L 164.15237 194.027399 
L 167.48969 190.396485 
L 170.827011 186.625246 
L 174.164331 183.079114 
L 177.501652 180.162425 
L 180.838973 176.919882 
L 184.176293 174.526673 
L 187.513614 172.100052 
L 190.850934 168.950714 
L 194.188255 165.27824 
L 197.525576 161.031724 
L 200.862896 156.807482 
L 204.200217 152.078404 
L 207.537537 147.547665 
L 210.874858 143.621816 
L 214.212178 139.639084 
L 217.549499 136.034874 
L 220.88682 132.803478 
L 224.22414 129.879358 
L 227.561461 129.879358 
" style="fill:none;stroke:#808080;stroke-linecap:square;stroke-opacity:0.6;stroke-width:0.5;"/>
   </g>
   <g id="line2d_54">
    <path clip-path="url(#p90653921b9)" d="M 104.080599 407.905667 
L 107.41792 376.445414 
L 110.755241 345.338806 
L 114.092561 328.088289 
L 117.429882 314.810373 
L 120.767202 304.204774 
L 124.104523 294.114671 
L 127.441843 281.047081 
L 130.779164 261.113892 
L 134.116485 238.621899 
L 137.453805 225.578374 
L 140.791126 214.645444 
L 144.128446 203.461405 
L 147.465767 195.504848 
L 150.803087 188.15943 
L 154.140408 180.904613 
L 157.477729 173.780009 
" style="fill:none;stroke:#808080;stroke-linecap:square;stroke-opacity:0.6;stroke-width:0.5;"/>
   </g>
   <g id="line2d_55">
    <path clip-path="url(#p90653921b9)" d="M 104.080599 403.415784 
L 107.41792 391.769172 
L 110.755241 380.343362 
L 114.092561 374.404724 
L 117.429882 360.936712 
L 120.767202 347.467039 
L 124.104523 333.241582 
L 127.441843 319.679066 
L 130.779164 310.080794 
L 134.116485 286.065759 
L 137.453805 286.065759 
L 140.791126 276.787834 
L 144.128446 270.437422 
L 147.465767 257.677076 
L 150.803087 246.758082 
L 154.140408 235.411512 
L 157.477729 228.569186 
L 160.815049 221.61177 
L 164.15237 217.015931 
L 167.48969 212.02719 
L 170.827011 207.142347 
L 174.164331 201.060935 
L 177.501652 196.921173 
L 180.838973 192.839841 
L 184.176293 189.015711 
L 187.513614 186.813683 
L 190.850934 183.921833 
L 194.188255 178.992677 
L 197.525576 176.762782 
" style="fill:none;stroke:#808080;stroke-linecap:square;stroke-opacity:0.6;stroke-width:0.5;"/>
   </g>
   <g id="line2d_56">
    <path clip-path="url(#p90653921b9)" d="M 104.080599 435.869995 
L 107.41792 414.006525 
L 110.755241 405.610197 
L 114.092561 396.728915 
L 117.429882 391.205845 
L 120.767202 383.122317 
L 124.104523 371.178896 
L 127.441843 354.368755 
L 130.779164 343.944713 
L 134.116485 331.407669 
L 137.453805 321.306355 
L 140.791126 314.528825 
L 144.128446 305.626906 
L 147.465767 296.208652 
L 150.803087 284.790539 
L 154.140408 273.776527 
L 157.477729 264.348793 
L 160.815049 259.571896 
L 164.15237 253.016497 
L 167.48969 245.768824 
L 170.827011 234.13189 
L 174.164331 226.379529 
L 177.501652 215.096417 
L 180.838973 206.57787 
L 184.176293 201.91252 
L 187.513614 198.371109 
L 190.850934 193.934488 
L 194.188255 189.223166 
L 197.525576 184.805791 
" style="fill:none;stroke:#808080;stroke-linecap:square;stroke-opacity:0.6;stroke-width:0.5;"/>
   </g>
   <g id="line2d_57">
    <path clip-path="url(#p90653921b9)" d="M 104.080599 427.859351 
L 107.41792 408.694928 
L 110.755241 391.580688 
L 114.092561 382.023132 
L 117.429882 373.349575 
L 120.767202 359.631298 
L 124.104523 349.690193 
L 127.441843 336.249364 
L 130.779164 327.46053 
L 134.116485 319.060304 
L 137.453805 308.138188 
L 140.791126 298.773132 
L 144.128446 289.562007 
L 147.465767 280.496879 
L 150.803087 270.703133 
L 154.140408 261.086424 
L 157.477729 253.781414 
L 160.815049 247.704342 
L 164.15237 239.844174 
L 167.48969 232.736347 
L 170.827011 225.383435 
L 174.164331 218.082304 
L 177.501652 211.781452 
L 180.838973 206.440038 
L 184.176293 202.540735 
L 187.513614 199.078548 
L 190.850934 195.199976 
L 194.188255 191.383923 
L 197.525576 188.019721 
" style="fill:none;stroke:#808080;stroke-linecap:square;stroke-opacity:0.6;stroke-width:0.5;"/>
   </g>
   <g id="line2d_58">
    <path clip-path="url(#p90653921b9)" d="M 104.080599 438.692668 
L 107.41792 424.10917 
L 110.755241 411.98319 
L 114.092561 395.696706 
L 117.429882 384.735853 
L 120.767202 368.149173 
L 124.104523 353.484798 
L 127.441843 343.872409 
L 130.779164 333.710799 
L 134.116485 326.840577 
L 137.453805 315.012456 
L 140.791126 307.541969 
L 144.128446 300.528838 
L 147.465767 291.849969 
L 150.803087 264.583884 
L 154.140408 256.037412 
L 157.477729 248.338221 
L 160.815049 241.429284 
L 164.15237 233.97223 
L 167.48969 225.430419 
L 170.827011 218.472085 
L 174.164331 212.64169 
L 177.501652 204.628935 
L 180.838973 199.380284 
" style="fill:none;stroke:#808080;stroke-linecap:square;stroke-opacity:0.6;stroke-width:0.5;"/>
   </g>
   <g id="line2d_59">
    <path clip-path="url(#p90653921b9)" d="M 104.080599 439.179052 
L 107.41792 426.704383 
L 110.755241 410.311953 
L 114.092561 395.289733 
L 117.429882 376.168447 
L 120.767202 359.532284 
L 124.104523 346.467621 
L 127.441843 332.892545 
L 130.779164 324.582087 
L 134.116485 311.08124 
L 137.453805 300.528838 
L 140.791126 286.156485 
L 144.128446 276.80665 
L 147.465767 270.206081 
L 150.803087 261.086424 
L 154.140408 250.54465 
L 157.477729 242.401345 
L 160.815049 236.986634 
L 164.15237 228.156109 
L 167.48969 223.630063 
L 170.827011 219.923926 
L 174.164331 216.879981 
L 177.501652 212.522329 
L 180.838973 209.681399 
L 184.176293 207.156309 
L 187.513614 205.247749 
L 190.850934 203.504643 
" style="fill:none;stroke:#808080;stroke-linecap:square;stroke-opacity:0.6;stroke-width:0.5;"/>
   </g>
   <g id="line2d_60">
    <path clip-path="url(#p90653921b9)" d="M 104.080599 418.317571 
L 107.41792 378.428501 
L 110.755241 350.757066 
L 114.092561 338.924161 
L 117.429882 331.071196 
L 120.767202 318.579465 
L 124.104523 302.097958 
L 127.441843 290.271945 
L 130.779164 271.763357 
L 134.116485 262.549338 
L 137.453805 253.686634 
L 140.791126 247.047331 
L 144.128446 241.969056 
L 147.465767 238.030464 
L 150.803087 233.741627 
L 154.140408 230.049889 
L 157.477729 227.416893 
L 160.815049 225.71326 
L 164.15237 224.836317 
L 167.48969 223.255802 
L 170.827011 222.528274 
L 174.164331 221.836197 
L 177.501652 221.172089 
L 180.838973 220.705703 
L 184.176293 220.255744 
L 187.513614 219.749853 
L 190.850934 219.195683 
L 194.188255 218.302999 
L 197.525576 217.799157 
L 200.862896 216.95924 
L 204.200217 216.407055 
L 207.537537 216.049718 
L 210.874858 215.62868 
L 214.212178 215.080045 
L 217.549499 214.515799 
L 220.88682 214.027268 
L 224.22414 213.253338 
L 227.561461 212.704079 
L 230.898781 212.29994 
L 234.236102 211.659036 
L 237.573422 211.659036 
L 240.910743 210.700375 
L 244.248064 210.272442 
L 247.585384 209.808865 
" style="fill:none;stroke:#808080;stroke-linecap:square;stroke-opacity:0.6;stroke-width:0.5;"/>
   </g>
   <g id="line2d_61">
    <path clip-path="url(#p90653921b9)" d="M 104.080599 434.516412 
L 107.41792 414.006525 
L 110.755241 395.492804 
L 114.092561 380.493751 
L 117.429882 365.404228 
L 120.767202 347.467039 
L 124.104523 337.441648 
L 127.441843 324.386197 
L 130.779164 313.066497 
L 134.116485 301.94192 
L 137.453805 289.343722 
L 140.791126 282.523571 
L 144.128446 270.686484 
L 147.465767 262.295484 
L 150.803087 253.028177 
L 154.140408 243.46982 
L 157.477729 236.363978 
L 160.815049 232.767457 
L 164.15237 225.302993 
L 167.48969 220.165029 
L 170.827011 215.645233 
L 174.164331 211.152181 
" style="fill:none;stroke:#808080;stroke-linecap:square;stroke-opacity:0.6;stroke-width:0.5;"/>
   </g>
   <g id="line2d_62">
    <path clip-path="url(#p90653921b9)" d="M 104.080599 430.663121 
L 107.41792 405.610197 
L 110.755241 397.782948 
L 114.092561 386.91469 
L 117.429882 367.681057 
L 120.767202 349.125041 
L 124.104523 330.404987 
L 127.441843 319.368725 
L 130.779164 303.653538 
L 134.116485 293.611225 
L 137.453805 286.043103 
L 140.791126 281.047081 
L 144.128446 272.036249 
L 147.465767 264.114806 
L 150.803087 257.472337 
L 154.140408 253.168545 
L 157.477729 249.521688 
L 160.815049 238.455938 
L 164.15237 229.544125 
L 167.48969 222.269194 
L 170.827011 215.523974 
" style="fill:none;stroke:#808080;stroke-linecap:square;stroke-opacity:0.6;stroke-width:0.5;"/>
   </g>
   <g id="line2d_63">
    <path clip-path="url(#p90653921b9)" d="M 104.080599 432.766973 
L 107.41792 411.419863 
L 110.755241 394.48562 
L 114.092561 392.530315 
L 117.429882 367.797675 
L 120.767202 367.102028 
L 124.104523 344.820646 
L 127.441843 342.307678 
L 130.779164 331.576761 
L 134.116485 321.953817 
L 137.453805 307.12536 
L 140.791126 292.593497 
L 144.128446 282.376043 
L 147.465767 276.487734 
L 150.803087 270.025063 
L 154.140408 261.251458 
L 157.477729 253.27408 
L 160.815049 250.689331 
L 164.15237 245.981335 
L 167.48969 239.566984 
L 170.827011 233.996146 
L 174.164331 225.403565 
" style="fill:none;stroke:#808080;stroke-linecap:square;stroke-opacity:0.6;stroke-width:0.5;"/>
   </g>
   <g id="line2d_64">
    <path clip-path="url(#p90653921b9)" d="M 104.080599 424.471746 
L 107.41792 416.424157 
L 110.755241 404.867942 
L 114.092561 394.886056 
L 117.429882 381.252577 
L 120.767202 363.87014 
L 124.104523 349.205386 
L 127.441843 338.080809 
L 130.779164 329.314048 
L 134.116485 323.803104 
L 137.453805 319.679066 
L 140.791126 317.674181 
L 144.128446 312.255219 
L 147.465767 307.786608 
L 150.803087 301.230373 
L 154.140408 297.588487 
L 157.477729 293.217329 
L 160.815049 290.420099 
L 164.15237 284.460307 
L 167.48969 279.493749 
L 170.827011 273.936174 
L 174.164331 269.8447 
L 177.501652 263.679017 
L 180.838973 260.147938 
L 184.176293 255.913489 
L 187.513614 251.11467 
L 190.850934 245.667946 
L 194.188255 240.694234 
L 197.525576 235.403309 
" style="fill:none;stroke:#808080;stroke-linecap:square;stroke-opacity:0.6;stroke-width:0.5;"/>
   </g>
   <g id="line2d_65">
    <path clip-path="url(#p90653921b9)" d="M 104.080599 440.16629 
L 107.41792 434.516412 
L 110.755241 428.644468 
L 114.092561 417.996966 
L 117.429882 406.363671 
L 120.767202 394.685436 
L 124.104523 385.729651 
L 127.441843 374.271602 
L 130.779164 364.740973 
L 134.116485 353.836502 
L 137.453805 342.518181 
L 140.791126 332.087505 
L 144.128446 320.712577 
L 147.465767 298.65631 
L 150.803087 295.43699 
L 154.140408 281.25241 
L 157.477729 274.060697 
L 160.815049 267.91836 
L 164.15237 264.687086 
L 167.48969 258.700487 
L 170.827011 255.115417 
L 174.164331 249.76179 
L 177.501652 248.147209 
L 180.838973 245.376549 
L 184.176293 242.951803 
L 187.513614 239.951889 
" style="fill:none;stroke:#808080;stroke-linecap:square;stroke-opacity:0.6;stroke-width:0.5;"/>
   </g>
   <g id="line2d_66">
    <path clip-path="url(#p90653921b9)" d="M 104.080599 434.073264 
L 107.41792 420.959455 
L 110.755241 414.006525 
L 114.092561 407.645333 
L 117.429882 389.372774 
L 120.767202 361.038559 
L 124.104523 349.125041 
L 127.441843 349.125041 
L 130.779164 330.239816 
L 134.116485 321.675303 
L 137.453805 317.588814 
L 140.791126 311.9877 
L 144.128446 307.786608 
L 147.465767 303.460431 
L 150.803087 297.702831 
L 154.140408 292.696929 
L 157.477729 287.631015 
L 160.815049 282.333973 
L 164.15237 278.393697 
L 167.48969 272.01915 
L 170.827011 268.076076 
L 174.164331 261.777699 
L 177.501652 258.231515 
L 180.838973 255.005915 
L 184.176293 253.521203 
L 187.513614 250.97996 
L 190.850934 248.594046 
L 194.188255 245.789024 
L 197.525576 243.104729 
" style="fill:none;stroke:#808080;stroke-linecap:square;stroke-opacity:0.6;stroke-width:0.5;"/>
   </g>
   <g id="line2d_67">
    <path clip-path="url(#p90653921b9)" d="M 104.080599 427.471381 
L 107.41792 414.006525 
L 110.755241 400.18338 
L 114.092561 386.743664 
L 117.429882 375.482688 
L 120.767202 354.547443 
L 124.104523 344.380756 
L 127.441843 337.441648 
L 130.779164 330.294812 
L 134.116485 319.501492 
L 137.453805 311.193651 
L 140.791126 303.076445 
L 144.128446 295.546499 
L 147.465767 287.8889 
L 150.803087 281.417285 
L 154.140408 277.450669 
L 157.477729 272.121836 
L 160.815049 266.843511 
L 164.15237 263.679017 
L 167.48969 258.179678 
L 170.827011 252.969807 
" style="fill:none;stroke:#808080;stroke-linecap:square;stroke-opacity:0.6;stroke-width:0.5;"/>
   </g>
   <g id="line2d_68">
    <path clip-path="url(#p90653921b9)" d="M 104.080599 432.766973 
L 107.41792 419.952272 
L 110.755241 402.23715 
L 114.092561 385.729651 
L 117.429882 378.573215 
L 120.767202 366.987024 
L 124.104523 357.782844 
L 127.441843 343.584235 
L 130.779164 330.404987 
L 134.116485 325.623331 
L 137.453805 317.759693 
L 140.791126 314.810373 
L 144.128446 308.8131 
L 147.465767 300.287121 
L 150.803087 289.295343 
L 154.140408 284.306944 
L 157.477729 276.543866 
L 160.815049 273.529201 
L 164.15237 270.5701 
L 167.48969 265.731029 
L 170.827011 261.666449 
L 174.164331 258.063243 
L 177.501652 253.947712 
" style="fill:none;stroke:#808080;stroke-linecap:square;stroke-opacity:0.6;stroke-width:0.5;"/>
   </g>
   <g id="line2d_69">
    <path clip-path="url(#p90653921b9)" d="M 104.080599 433.634019 
L 107.41792 420.959455 
L 110.755241 405.860092 
L 114.092561 393.890935 
L 117.429882 384.408941 
L 120.767202 366.529646 
L 124.104523 366.529646 
L 127.441843 360.430577 
L 130.779164 346.239804 
L 134.116485 334.065633 
L 137.453805 323.610246 
L 140.791126 313.693599 
L 144.128446 304.042012 
L 147.465767 295.082738 
L 150.803087 283.05405 
L 154.140408 274.454095 
L 157.477729 262.239247 
L 160.815049 254.437945 
" style="fill:none;stroke:#808080;stroke-linecap:square;stroke-opacity:0.6;stroke-width:0.5;"/>
   </g>
   <g id="line2d_70">
    <path clip-path="url(#p90653921b9)" d="M 104.080599 434.073264 
L 107.41792 391.769172 
L 110.755241 358.359197 
L 114.092561 344.89434 
L 117.429882 336.249364 
L 120.767202 334.843214 
L 124.104523 332.030497 
L 127.441843 328.88427 
L 130.779164 324.191074 
L 134.116485 319.946619 
L 137.453805 318.362425 
L 140.791126 314.049841 
L 144.128446 311.306315 
L 147.465767 308.77735 
L 150.803087 306.506902 
L 154.140408 302.22314 
L 157.477729 298.220648 
L 160.815049 293.981691 
L 164.15237 289.683691 
L 167.48969 286.043103 
L 170.827011 281.831873 
L 174.164331 278.180438 
L 177.501652 272.985876 
L 180.838973 268.856178 
L 184.176293 264.569159 
L 187.513614 259.385774 
" style="fill:none;stroke:#808080;stroke-linecap:square;stroke-opacity:0.6;stroke-width:0.5;"/>
   </g>
   <g id="line2d_71">
    <path clip-path="url(#p90653921b9)" d="M 104.080599 417.996966 
L 107.41792 405.361549 
L 110.755241 396.937946 
L 114.092561 378.863909 
L 117.429882 366.987024 
L 120.767202 356.370458 
L 124.104523 348.249691 
L 127.441843 339.982109 
L 130.779164 329.422074 
L 134.116485 318.753779 
L 137.453805 312.063988 
L 140.791126 301.631303 
L 144.128446 293.138922 
L 147.465767 287.467597 
L 150.803087 280.720303 
L 154.140408 275.159202 
L 157.477729 270.090812 
L 160.815049 264.304837 
L 164.15237 259.651875 
" style="fill:none;stroke:#808080;stroke-linecap:square;stroke-opacity:0.6;stroke-width:0.5;"/>
   </g>
   <g id="line2d_72">
    <path clip-path="url(#p90653921b9)" d="M 104.080599 438.210984 
L 107.41792 429.041713 
L 110.755241 411.700731 
L 114.092561 396.937946 
L 117.429882 387.60472 
L 120.767202 377.004007 
L 124.104523 368.031731 
L 127.441843 356.463383 
L 130.779164 348.092175 
L 134.116485 339.782026 
L 137.453805 330.570706 
L 140.791126 322.893598 
L 144.128446 315.419097 
L 147.465767 308.992238 
L 150.803087 300.771732 
L 154.140408 294.381698 
L 157.477729 289.464873 
L 160.815049 283.611802 
L 164.15237 278.627387 
L 167.48969 271.50887 
L 170.827011 264.613349 
" style="fill:none;stroke:#808080;stroke-linecap:square;stroke-opacity:0.6;stroke-width:0.5;"/>
   </g>
   <g id="line2d_73">
    <path clip-path="url(#p90653921b9)" d="M 104.080599 434.963536 
L 107.41792 414.302394 
L 110.755241 405.860092 
L 114.092561 367.914566 
L 117.429882 356.836822 
L 120.767202 337.18826 
L 124.104523 326.329774 
L 127.441843 321.444391 
L 130.779164 315.829082 
L 134.116485 308.492266 
L 137.453805 301.107655 
L 140.791126 295.109899 
L 144.128446 293.637596 
L 147.465767 291.672146 
L 150.803087 283.806333 
L 154.140408 274.796363 
L 157.477729 267.965622 
L 160.815049 264.834889 
" style="fill:none;stroke:#808080;stroke-linecap:square;stroke-opacity:0.6;stroke-width:0.5;"/>
   </g>
   <g id="line2d_74">
    <path clip-path="url(#p90653921b9)" d="M 104.080599 432.33904 
L 107.41792 427.471381 
L 110.755241 420.285744 
L 114.092561 417.361876 
L 117.429882 406.363671 
L 120.767202 396.937946 
L 124.104523 367.681057 
L 127.441843 354.906752 
L 130.779164 345.116077 
L 134.116485 337.125114 
L 137.453805 330.626069 
L 140.791126 323.899814 
L 144.128446 316.995309 
L 147.465767 312.063988 
L 150.803087 304.564732 
L 154.140408 301.199665 
L 157.477729 296.180886 
L 160.815049 290.050535 
L 164.15237 286.95746 
L 167.48969 283.418027 
L 170.827011 280.294632 
L 174.164331 277.241398 
L 177.501652 277.241398 
L 180.838973 272.156111 
L 184.176293 268.711976 
L 187.513614 265.355678 
" style="fill:none;stroke:#808080;stroke-linecap:square;stroke-opacity:0.6;stroke-width:0.5;"/>
   </g>
   <g id="line2d_75">
    <path clip-path="url(#p90653921b9)" d="M 104.080599 434.073264 
L 107.41792 423.749213 
L 110.755241 409.767096 
L 114.092561 401.543117 
L 117.429882 392.530315 
L 120.767202 389.372774 
L 124.104523 384.084159 
L 127.441843 375.346661 
L 130.779164 367.102028 
L 134.116485 352.875223 
L 137.453805 338.924161 
L 140.791126 330.294812 
L 144.128446 323.948239 
L 147.465767 312.601294 
L 150.803087 306.780826 
L 154.140408 297.190336 
L 157.477729 292.028429 
L 160.815049 285.056309 
L 164.15237 280.496879 
L 167.48969 275.159202 
L 170.827011 267.651383 
" style="fill:none;stroke:#808080;stroke-linecap:square;stroke-opacity:0.6;stroke-width:0.5;"/>
   </g>
   <g id="line2d_76">
    <path clip-path="url(#p90653921b9)" d="M 104.080599 434.963536 
L 107.41792 423.391836 
L 110.755241 422.684676 
L 114.092561 408.960816 
L 117.429882 405.114135 
L 120.767202 398.642519 
L 124.104523 398.642519 
L 127.441843 373.611276 
L 130.779164 373.611276 
L 134.116485 363.87014 
L 137.453805 354.996986 
L 140.791126 347.935154 
L 144.128446 342.659011 
L 147.465767 336.31141 
L 150.803087 321.767968 
L 154.140408 307.962088 
L 157.477729 288.766257 
L 160.815049 288.766257 
L 164.15237 283.611802 
L 167.48969 277.108682 
L 170.827011 270.305096 
" style="fill:none;stroke:#808080;stroke-linecap:square;stroke-opacity:0.6;stroke-width:0.5;"/>
   </g>
   <g id="line2d_77">
    <path clip-path="url(#p90653921b9)" d="M 104.080599 437.73391 
L 107.41792 426.325264 
L 110.755241 421.987407 
L 114.092561 421.987407 
L 117.429882 415.503751 
L 120.767202 409.22813 
L 124.104523 403.177817 
L 127.441843 398.642519 
L 130.779164 396.728915 
L 134.116485 393.694272 
L 137.453805 393.694272 
L 140.791126 391.019475 
L 144.128446 382.648267 
L 147.465767 377.85381 
L 150.803087 370.066867 
L 154.140408 364.631284 
L 157.477729 361.140614 
L 160.815049 358.552804 
L 164.15237 353.572491 
L 167.48969 349.285861 
L 170.827011 344.968143 
L 174.164331 340.587221 
L 177.501652 337.760204 
L 180.838973 335.633115 
L 184.176293 335.024391 
L 187.513614 334.722794 
L 190.850934 332.144579 
L 194.188255 327.930607 
L 197.525576 325.025674 
L 200.862896 323.131338 
L 204.200217 321.1229 
L 207.537537 319.368725 
L 210.874858 316.57566 
L 214.212178 313.536082 
L 217.549499 309.897709 
L 220.88682 305.192665 
L 224.22414 299.125251 
L 227.561461 294.274715 
L 230.898781 292.002896 
L 234.236102 292.002896 
L 237.573422 286.566807 
L 240.910743 277.412554 
L 244.248064 271.695367 
" style="fill:none;stroke:#808080;stroke-linecap:square;stroke-opacity:0.6;stroke-width:0.5;"/>
   </g>
   <g id="line2d_78">
    <path clip-path="url(#p90653921b9)" d="M 104.080599 429.041713 
L 107.41792 424.471746 
L 110.755241 415.200687 
L 114.092561 407.905667 
L 117.429882 398.426233 
L 120.767202 382.178682 
L 124.104523 366.415954 
L 127.441843 360.733641 
L 130.779164 354.101918 
L 134.116485 346.926403 
L 137.453805 341.474446 
L 140.791126 332.144579 
L 144.128446 326.431517 
L 147.465767 321.953817 
L 150.803087 314.208992 
L 154.140408 308.705926 
L 157.477729 291.697511 
L 160.815049 283.827994 
L 164.15237 272.25908 
" style="fill:none;stroke:#808080;stroke-linecap:square;stroke-opacity:0.6;stroke-width:0.5;"/>
   </g>
   <g id="line2d_79">
    <path clip-path="url(#p90653921b9)" d="M 104.080599 423.391836 
L 107.41792 403.177817 
L 110.755241 378.428501 
L 114.092561 361.550936 
L 117.429882 345.338806 
L 120.767202 336.622804 
L 124.104523 332.030497 
L 127.441843 320.667194 
L 130.779164 311.043827 
L 134.116485 306.746503 
L 137.453805 301.78637 
L 140.791126 295.218691 
L 144.128446 292.079535 
L 147.465767 291.117368 
L 150.803087 286.566807 
L 154.140408 283.43952 
L 157.477729 279.952683 
L 160.815049 277.507895 
" style="fill:none;stroke:#808080;stroke-linecap:square;stroke-opacity:0.6;stroke-width:0.5;"/>
   </g>
   <g id="line2d_80">
    <path clip-path="url(#p90653921b9)" d="M 104.080599 408.960816 
L 107.41792 408.960816 
L 110.755241 385.064923 
L 114.092561 362.172822 
L 117.429882 360.430577 
L 120.767202 347.157387 
L 124.104523 337.505197 
L 127.441843 331.351432 
L 130.779164 325.824152 
L 134.116485 322.609799 
L 137.453805 316.408785 
L 140.791126 316.408785 
L 144.128446 308.314913 
L 147.465767 304.302687 
L 150.803087 301.168976 
L 154.140408 289.854549 
L 157.477729 284.045128 
L 160.815049 284.045128 
L 164.15237 284.045128 
" style="fill:none;stroke:#808080;stroke-linecap:square;stroke-opacity:0.6;stroke-width:0.5;"/>
   </g>
   <g id="line2d_81">
    <path clip-path="url(#p90653921b9)" d="M 104.080599 432.33904 
L 107.41792 425.575567 
L 110.755241 413.129307 
L 114.092561 413.129307 
L 117.429882 399.297066 
L 120.767202 383.922558 
L 124.104523 365.182161 
L 127.441843 358.552804 
L 130.779164 352.616241 
L 134.116485 344.162258 
L 137.453805 337.125114 
L 140.791126 331.015337 
L 144.128446 323.131338 
L 147.465767 318.189471 
L 150.803087 312.872135 
L 154.140408 308.102919 
L 157.477729 304.23739 
L 160.815049 299.598645 
L 164.15237 296.347715 
L 167.48969 291.167548 
" style="fill:none;stroke:#808080;stroke-linecap:square;stroke-opacity:0.6;stroke-width:0.5;"/>
   </g>
   <g id="line2d_82">
    <path clip-path="url(#p90653921b9)" d="M 104.080599 433.634019 
L 107.41792 411.700731 
L 110.755241 411.700731 
L 114.092561 411.700731 
L 117.429882 402.705265 
L 120.767202 375.482688 
L 124.104523 350.923246 
L 127.441843 341.681452 
L 130.779164 334.843214 
L 134.116485 328.777402 
L 137.453805 323.179022 
L 140.791126 319.016399 
L 144.128446 319.016399 
L 147.465767 314.448674 
L 150.803087 309.028143 
L 154.140408 300.377628 
L 157.477729 300.377628 
L 160.815049 296.879719 
L 164.15237 294.034841 
L 167.48969 291.368775 
" style="fill:none;stroke:#808080;stroke-linecap:square;stroke-opacity:0.6;stroke-width:0.5;"/>
   </g>
   <g id="line2d_83">
    <path clip-path="url(#p90653921b9)" d="M 104.080599 431.914749 
L 107.41792 425.949006 
L 110.755241 425.949006 
L 114.092561 413.420001 
L 117.429882 396.937946 
L 120.767202 389.915653 
L 124.104523 372.061289 
L 127.441843 358.844633 
L 130.779164 354.101918 
L 134.116485 338.598105 
L 137.453805 330.626069 
L 140.791126 324.77875 
L 144.128446 320.440893 
L 147.465767 316.159515 
L 150.803087 315.09352 
L 154.140408 306.746503 
L 157.477729 303.108331 
L 160.815049 298.336453 
L 164.15237 293.76966 
L 167.48969 293.76966 
" style="fill:none;stroke:#808080;stroke-linecap:square;stroke-opacity:0.6;stroke-width:0.5;"/>
   </g>
   <g id="line2d_84">
    <path clip-path="url(#p90653921b9)" d="M 104.080599 431.914749 
L 107.41792 415.503751 
L 110.755241 404.867942 
L 114.092561 394.286603 
L 117.429882 382.805783 
L 120.767202 375.346661 
L 124.104523 370.434794 
L 127.441843 362.486699 
L 130.779164 352.102278 
L 134.116485 341.958804 
L 137.453805 333.59308 
L 140.791126 325.72364 
L 144.128446 320.894526 
L 147.465767 315.664683 
L 150.803087 309.388621 
L 154.140408 309.388621 
L 157.477729 299.272704 
" style="fill:none;stroke:#808080;stroke-linecap:square;stroke-opacity:0.6;stroke-width:0.5;"/>
   </g>
   <g id="line2d_85">
    <path clip-path="url(#p90653921b9)" d="M 104.080599 435.869995 
L 107.41792 424.471746 
L 110.755241 405.610197 
L 114.092561 395.492804 
L 117.429882 383.281341 
L 120.767202 378.428501 
L 124.104523 365.963761 
L 127.441843 351.847271 
L 130.779164 345.042055 
L 134.116485 337.37818 
L 137.453805 330.570706 
L 140.791126 325.924867 
L 144.128446 321.767968 
L 147.465767 317.079664 
L 150.803087 311.645843 
L 154.140408 305.997318 
L 157.477729 299.717699 
" style="fill:none;stroke:#808080;stroke-linecap:square;stroke-opacity:0.6;stroke-width:0.5;"/>
   </g>
   <g id="line2d_86">
    <path clip-path="url(#p90653921b9)" d="M 104.080599 418.317571 
M 110.755241 403.177817 
L 114.092561 391.205845 
L 117.429882 390.280885 
L 120.767202 382.334719 
L 124.104523 375.075715 
L 127.441843 371.054105 
L 130.779164 365.182161 
L 134.116485 357.878442 
L 137.453805 348.725249 
L 140.791126 343.155074 
L 144.128446 336.999061 
L 147.465767 331.746428 
L 150.803087 327.512542 
L 154.140408 324.142413 
L 157.477729 315.541739 
L 160.815049 315.541739 
L 164.15237 311.79749 
L 167.48969 309.172021 
L 170.827011 306.98726 
L 174.164331 304.564732 
L 177.501652 301.476717 
" style="fill:none;stroke:#808080;stroke-linecap:square;stroke-opacity:0.6;stroke-width:0.5;"/>
   </g>
   <g id="line2d_87">
    <path clip-path="url(#p90653921b9)" d="M 104.080599 432.33904 
L 107.41792 421.642396 
L 110.755241 397.782948 
L 114.092561 391.958371 
L 117.429882 382.491247 
L 120.767202 375.89301 
L 124.104523 371.681206 
L 127.441843 369.098799 
L 130.779164 354.458019 
L 134.116485 352.530212 
L 137.453805 348.013603 
L 140.791126 345.264452 
L 144.128446 333.358473 
L 147.465767 327.930607 
L 150.803087 322.233896 
L 154.140408 311.419234 
L 157.477729 308.102919 
L 160.815049 302.097958 
" style="fill:none;stroke:#808080;stroke-linecap:square;stroke-opacity:0.6;stroke-width:0.5;"/>
   </g>
   <g id="line2d_88">
    <path clip-path="url(#p90653921b9)" d="M 104.080599 432.766973 
L 107.41792 419.952272 
L 110.755241 404.379174 
L 114.092561 396.520756 
L 117.429882 389.915653 
L 120.767202 370.805457 
L 124.104523 354.547443 
L 127.441843 342.518181 
L 130.779164 329.152447 
L 134.116485 317.546186 
L 137.453805 316.827025 
L 140.791126 313.066497 
L 144.128446 311.306315 
L 147.465767 310.301387 
L 150.803087 309.316316 
L 154.140408 306.438656 
L 157.477729 304.993514 
" style="fill:none;stroke:#808080;stroke-linecap:square;stroke-opacity:0.6;stroke-width:0.5;"/>
   </g>
   <g id="line2d_89">
    <path clip-path="url(#p90653921b9)" d="M 104.080599 434.516412 
L 107.41792 405.114135 
L 110.755241 395.492804 
L 114.092561 383.440874 
L 117.429882 372.061289 
L 120.767202 361.140614 
L 124.104523 352.444331 
L 127.441843 341.819935 
L 130.779164 332.950549 
L 134.116485 330.570706 
L 137.453805 320.215615 
L 140.791126 312.910947 
L 144.128446 309.316316 
L 147.465767 305.559853 
" style="fill:none;stroke:#808080;stroke-linecap:square;stroke-opacity:0.6;stroke-width:0.5;"/>
   </g>
   <g id="line2d_90">
    <path clip-path="url(#p90653921b9)" d="M 104.080599 428.644468 
L 107.41792 425.204905 
L 110.755241 420.285744 
L 114.092561 408.694928 
L 117.429882 400.407443 
L 120.767202 394.685436 
L 124.104523 384.900116 
L 127.441843 373.089241 
L 130.779164 364.412626 
L 134.116485 346.164096 
L 137.453805 340.317375 
L 140.791126 340.317375 
L 144.128446 330.626069 
L 147.465767 322.468503 
L 150.803087 317.503594 
L 154.140408 305.96353 
" style="fill:none;stroke:#808080;stroke-linecap:square;stroke-opacity:0.6;stroke-width:0.5;"/>
   </g>
   <g id="line2d_91">
    <path clip-path="url(#p90653921b9)" d="M 104.080599 432.33904 
L 107.41792 432.33904 
L 110.755241 424.10917 
L 114.092561 411.419863 
L 117.429882 405.860092 
L 120.767202 395.087486 
L 124.104523 394.48562 
L 127.441843 380.644595 
L 130.779164 369.944825 
L 134.116485 362.697053 
L 137.453805 353.572491 
L 140.791126 351.847271 
L 144.128446 347.003279 
L 147.465767 340.587221 
L 150.803087 336.373534 
L 154.140408 331.183101 
L 157.477729 327.253021 
L 160.815049 324.386197 
L 164.15237 321.260428 
L 167.48969 319.060304 
L 170.827011 315.459944 
L 174.164331 311.570192 
L 177.501652 309.897709 
" style="fill:none;stroke:#808080;stroke-linecap:square;stroke-opacity:0.6;stroke-width:0.5;"/>
   </g>
   <g id="line2d_92">
    <path clip-path="url(#p90653921b9)" d="M 104.080599 439.179052 
L 107.41792 427.859351 
L 110.755241 417.361876 
L 114.092561 403.177817 
L 117.429882 397.570351 
L 120.767202 384.408941 
L 124.104523 373.874358 
L 127.441843 363.014258 
L 130.779164 360.835073 
L 134.116485 356.185127 
L 137.453805 350.179761 
L 140.791126 343.012837 
L 144.128446 336.622804 
L 147.465767 330.294812 
L 150.803087 322.233896 
L 154.140408 317.93116 
L 157.477729 313.575415 
" style="fill:none;stroke:#808080;stroke-linecap:square;stroke-opacity:0.6;stroke-width:0.5;"/>
   </g>
   <g id="line2d_93">
    <path clip-path="url(#p90653921b9)" d="M 104.080599 427.859351 
L 107.41792 417.361876 
L 110.755241 399.738253 
L 114.092561 391.392914 
L 117.429882 385.230276 
L 120.767202 372.701271 
L 124.104523 359.73051 
L 127.441843 351.762557 
L 130.779164 343.872409 
L 134.116485 340.048982 
L 137.453805 335.26699 
L 140.791126 327.097954 
L 144.128446 327.097954 
L 147.465767 319.14823 
L 150.803087 319.14823 
L 154.140408 313.654173 
" style="fill:none;stroke:#808080;stroke-linecap:square;stroke-opacity:0.6;stroke-width:0.5;"/>
   </g>
   <g id="line2d_94">
    <path clip-path="url(#p90653921b9)" d="M 104.080599 439.179052 
L 107.41792 437.261357 
L 110.755241 436.329481 
L 114.092561 435.414705 
L 117.429882 434.516412 
L 120.767202 432.33904 
L 124.104523 427.086407 
L 127.441843 424.10917 
L 130.779164 419.952272 
L 134.116485 416.734774 
L 137.453805 414.899454 
L 140.791126 411.419863 
L 144.128446 408.960816 
L 147.465767 405.610197 
L 150.803087 402.23715 
L 154.140408 399.517171 
L 157.477729 395.901445 
L 160.815049 391.392914 
L 164.15237 383.281341 
L 167.48969 378.428501 
L 170.827011 372.959582 
L 174.164331 367.217297 
L 177.501652 364.631284 
L 180.838973 359.040139 
L 184.176293 354.458019 
L 187.513614 353.572491 
L 190.850934 351.341135 
L 194.188255 340.926595 
L 197.525576 336.31141 
L 200.862896 333.828797 
L 204.200217 333.828797 
L 207.537537 331.803113 
L 210.874858 325.373436 
L 214.212178 322.988558 
L 217.549499 319.991351 
" style="fill:none;stroke:#808080;stroke-linecap:square;stroke-opacity:0.6;stroke-width:0.5;"/>
   </g>
   <g id="line2d_95">
    <path clip-path="url(#p90653921b9)" d="M 104.080599 438.210984 
L 107.41792 428.644468 
L 110.755241 404.136576 
L 114.092561 397.570351 
L 117.429882 384.408941 
L 120.767202 373.349575 
L 124.104523 368.859692 
L 127.441843 360.430577 
L 130.779164 352.017131 
L 134.116485 346.315628 
L 137.453805 342.237708 
L 140.791126 337.125114 
L 144.128446 332.4884 
L 147.465767 327.253021 
L 150.803087 324.828037 
L 154.140408 321.58281 
" style="fill:none;stroke:#808080;stroke-linecap:square;stroke-opacity:0.6;stroke-width:0.5;"/>
   </g>
   <g id="line2d_96">
    <path clip-path="url(#p90653921b9)" d="M 104.080599 434.073264 
L 107.41792 434.073264 
L 110.755241 423.391836 
L 114.092561 423.391836 
L 117.429882 418.965033 
L 120.767202 418.965033 
L 124.104523 406.111246 
L 127.441843 394.886056 
L 130.779164 380.193425 
L 134.116485 380.193425 
L 137.453805 370.434794 
L 140.791126 363.226855 
L 144.128446 363.226855 
L 147.465767 349.934376 
L 150.803087 345.787269 
L 154.140408 345.787269 
L 157.477729 324.191074 
L 160.815049 324.191074 
" style="fill:none;stroke:#808080;stroke-linecap:square;stroke-opacity:0.6;stroke-width:0.5;"/>
   </g>
   <g id="patch_3">
    <path d="M 91.398781 459.933562 
L 91.398781 25.053562 
" style="fill:none;stroke:#000000;stroke-linecap:square;stroke-linejoin:miter;stroke-width:0.8;"/>
   </g>
   <g id="patch_4">
    <path d="M 370.398781 459.933562 
L 370.398781 25.053562 
" style="fill:none;stroke:#000000;stroke-linecap:square;stroke-linejoin:miter;stroke-width:0.8;"/>
   </g>
   <g id="patch_5">
    <path d="M 91.398781 459.933562 
L 370.398781 459.933562 
" style="fill:none;stroke:#000000;stroke-linecap:square;stroke-linejoin:miter;stroke-width:0.8;"/>
   </g>
   <g id="patch_6">
    <path d="M 91.398781 25.053562 
L 370.398781 25.053562 
" style="fill:none;stroke:#000000;stroke-linecap:square;stroke-linejoin:miter;stroke-width:0.8;"/>
   </g>
   <g id="text_11">
    <!-- Cumulative reported cases for all countries -->
    <defs>
     <path d="M 18.109375 8.203125 
L 18.109375 -20.796875 
L 9.078125 -20.796875 
L 9.078125 54.6875 
L 18.109375 54.6875 
L 18.109375 46.390625 
Q 20.953125 51.265625 25.265625 53.625 
Q 29.59375 56 35.59375 56 
Q 45.5625 56 51.78125 48.09375 
Q 58.015625 40.1875 58.015625 27.296875 
Q 58.015625 14.40625 51.78125 6.484375 
Q 45.5625 -1.421875 35.59375 -1.421875 
Q 29.59375 -1.421875 25.265625 0.953125 
Q 20.953125 3.328125 18.109375 8.203125 
z
M 48.6875 27.296875 
Q 48.6875 37.203125 44.609375 42.84375 
Q 40.53125 48.484375 33.40625 48.484375 
Q 26.265625 48.484375 22.1875 42.84375 
Q 18.109375 37.203125 18.109375 27.296875 
Q 18.109375 17.390625 22.1875 11.75 
Q 26.265625 6.109375 33.40625 6.109375 
Q 40.53125 6.109375 44.609375 11.75 
Q 48.6875 17.390625 48.6875 27.296875 
z
" id="DejaVuSans-112"/>
    </defs>
    <g transform="translate(62.339562 19.053562)scale(0.156 -0.156)">
     <use xlink:href="#DejaVuSans-67"/>
     <use x="69.824219" xlink:href="#DejaVuSans-117"/>
     <use x="133.203125" xlink:href="#DejaVuSans-109"/>
     <use x="230.615234" xlink:href="#DejaVuSans-117"/>
     <use x="293.994141" xlink:href="#DejaVuSans-108"/>
     <use x="321.777344" xlink:href="#DejaVuSans-97"/>
     <use x="383.056641" xlink:href="#DejaVuSans-116"/>
     <use x="422.265625" xlink:href="#DejaVuSans-105"/>
     <use x="450.048828" xlink:href="#DejaVuSans-118"/>
     <use x="509.228516" xlink:href="#DejaVuSans-101"/>
     <use x="570.751953" xlink:href="#DejaVuSans-32"/>
     <use x="602.539062" xlink:href="#DejaVuSans-114"/>
     <use x="641.402344" xlink:href="#DejaVuSans-101"/>
     <use x="702.925781" xlink:href="#DejaVuSans-112"/>
     <use x="766.402344" xlink:href="#DejaVuSans-111"/>
     <use x="827.583984" xlink:href="#DejaVuSans-114"/>
     <use x="868.697266" xlink:href="#DejaVuSans-116"/>
     <use x="907.90625" xlink:href="#DejaVuSans-101"/>
     <use x="969.429688" xlink:href="#DejaVuSans-100"/>
     <use x="1032.90625" xlink:href="#DejaVuSans-32"/>
     <use x="1064.693359" xlink:href="#DejaVuSans-99"/>
     <use x="1119.673828" xlink:href="#DejaVuSans-97"/>
     <use x="1180.953125" xlink:href="#DejaVuSans-115"/>
     <use x="1233.052734" xlink:href="#DejaVuSans-101"/>
     <use x="1294.576172" xlink:href="#DejaVuSans-115"/>
     <use x="1346.675781" xlink:href="#DejaVuSans-32"/>
     <use x="1378.462891" xlink:href="#DejaVuSans-102"/>
     <use x="1413.667969" xlink:href="#DejaVuSans-111"/>
     <use x="1474.849609" xlink:href="#DejaVuSans-114"/>
     <use x="1515.962891" xlink:href="#DejaVuSans-32"/>
     <use x="1547.75" xlink:href="#DejaVuSans-97"/>
     <use x="1609.029297" xlink:href="#DejaVuSans-108"/>
     <use x="1636.8125" xlink:href="#DejaVuSans-108"/>
     <use x="1664.595703" xlink:href="#DejaVuSans-32"/>
     <use x="1696.382812" xlink:href="#DejaVuSans-99"/>
     <use x="1751.363281" xlink:href="#DejaVuSans-111"/>
     <use x="1812.544922" xlink:href="#DejaVuSans-117"/>
     <use x="1875.923828" xlink:href="#DejaVuSans-110"/>
     <use x="1939.302734" xlink:href="#DejaVuSans-116"/>
     <use x="1978.511719" xlink:href="#DejaVuSans-114"/>
     <use x="2019.625" xlink:href="#DejaVuSans-105"/>
     <use x="2047.408203" xlink:href="#DejaVuSans-101"/>
     <use x="2108.931641" xlink:href="#DejaVuSans-115"/>
    </g>
   </g>
  </g>
 </g>
 <defs>
  <clipPath id="p90653921b9">
   <rect height="434.88" width="279" x="91.398781" y="25.053562"/>
  </clipPath>
 </defs>
</svg>
