<?xml version="1.0" encoding="utf-8" standalone="no"?>
<!DOCTYPE svg PUBLIC "-//W3C//DTD SVG 1.1//EN"
  "http://www.w3.org/Graphics/SVG/1.1/DTD/svg11.dtd">
<!-- Created with matplotlib (https://matplotlib.org/) -->
<svg height="510.154844pt" version="1.1" viewBox="0 0 406.658 510.154844" width="406.658pt" xmlns="http://www.w3.org/2000/svg" xmlns:xlink="http://www.w3.org/1999/xlink">
 <defs>
  <style type="text/css">
*{stroke-linecap:butt;stroke-linejoin:round;}
  </style>
 </defs>
 <g id="figure_1">
  <g id="patch_1">
   <path d="M 0 510.154844 
L 406.658 510.154844 
L 406.658 0 
L 0 0 
z
" style="fill:#ffffff;"/>
  </g>
  <g id="axes_1">
   <g id="patch_2">
    <path d="M 91.398781 459.933562 
L 370.398781 459.933562 
L 370.398781 25.053562 
L 91.398781 25.053562 
z
" style="fill:#ffffff;"/>
   </g>
   <g id="matplotlib.axis_1">
    <g id="xtick_1">
     <g id="line2d_1">
      <path clip-path="url(#pb81d09b74e)" d="M 104.080599 459.933562 
L 104.080599 25.053562 
" style="fill:none;stroke:#b0b0b0;stroke-linecap:square;stroke-opacity:0.2;stroke-width:1.3;"/>
     </g>
     <g id="line2d_2">
      <defs>
       <path d="M 0 0 
L 0 3.5 
" id="m724345dfce" style="stroke:#000000;stroke-width:1.3;"/>
      </defs>
      <g>
       <use style="stroke:#000000;stroke-width:1.3;" x="104.080599" xlink:href="#m724345dfce" y="459.933562"/>
      </g>
     </g>
     <g id="text_1">
      <!-- 0 -->
      <defs>
       <path d="M 31.78125 66.40625 
Q 24.171875 66.40625 20.328125 58.90625 
Q 16.5 51.421875 16.5 36.375 
Q 16.5 21.390625 20.328125 13.890625 
Q 24.171875 6.390625 31.78125 6.390625 
Q 39.453125 6.390625 43.28125 13.890625 
Q 47.125 21.390625 47.125 36.375 
Q 47.125 51.421875 43.28125 58.90625 
Q 39.453125 66.40625 31.78125 66.40625 
z
M 31.78125 74.21875 
Q 44.046875 74.21875 50.515625 64.515625 
Q 56.984375 54.828125 56.984375 36.375 
Q 56.984375 17.96875 50.515625 8.265625 
Q 44.046875 -1.421875 31.78125 -1.421875 
Q 19.53125 -1.421875 13.0625 8.265625 
Q 6.59375 17.96875 6.59375 36.375 
Q 6.59375 54.828125 13.0625 64.515625 
Q 19.53125 74.21875 31.78125 74.21875 
z
" id="DejaVuSans-48"/>
      </defs>
      <g transform="translate(99.944974 482.411531)scale(0.13 -0.13)">
       <use xlink:href="#DejaVuSans-48"/>
      </g>
     </g>
    </g>
    <g id="xtick_2">
     <g id="line2d_3">
      <path clip-path="url(#pb81d09b74e)" d="M 169.115564 459.933562 
L 169.115564 25.053562 
" style="fill:none;stroke:#b0b0b0;stroke-linecap:square;stroke-opacity:0.2;stroke-width:1.3;"/>
     </g>
     <g id="line2d_4">
      <g>
       <use style="stroke:#000000;stroke-width:1.3;" x="169.115564" xlink:href="#m724345dfce" y="459.933562"/>
      </g>
     </g>
     <g id="text_2">
      <!-- 20 -->
      <defs>
       <path d="M 19.1875 8.296875 
L 53.609375 8.296875 
L 53.609375 0 
L 7.328125 0 
L 7.328125 8.296875 
Q 12.9375 14.109375 22.625 23.890625 
Q 32.328125 33.6875 34.8125 36.53125 
Q 39.546875 41.84375 41.421875 45.53125 
Q 43.3125 49.21875 43.3125 52.78125 
Q 43.3125 58.59375 39.234375 62.25 
Q 35.15625 65.921875 28.609375 65.921875 
Q 23.96875 65.921875 18.8125 64.3125 
Q 13.671875 62.703125 7.8125 59.421875 
L 7.8125 69.390625 
Q 13.765625 71.78125 18.9375 73 
Q 24.125 74.21875 28.421875 74.21875 
Q 39.75 74.21875 46.484375 68.546875 
Q 53.21875 62.890625 53.21875 53.421875 
Q 53.21875 48.921875 51.53125 44.890625 
Q 49.859375 40.875 45.40625 35.40625 
Q 44.1875 33.984375 37.640625 27.21875 
Q 31.109375 20.453125 19.1875 8.296875 
z
" id="DejaVuSans-50"/>
      </defs>
      <g transform="translate(160.844314 482.411531)scale(0.13 -0.13)">
       <use xlink:href="#DejaVuSans-50"/>
       <use x="63.623047" xlink:href="#DejaVuSans-48"/>
      </g>
     </g>
    </g>
    <g id="xtick_3">
     <g id="line2d_5">
      <path clip-path="url(#pb81d09b74e)" d="M 234.15053 459.933562 
L 234.15053 25.053562 
" style="fill:none;stroke:#b0b0b0;stroke-linecap:square;stroke-opacity:0.2;stroke-width:1.3;"/>
     </g>
     <g id="line2d_6">
      <g>
       <use style="stroke:#000000;stroke-width:1.3;" x="234.15053" xlink:href="#m724345dfce" y="459.933562"/>
      </g>
     </g>
     <g id="text_3">
      <!-- 40 -->
      <defs>
       <path d="M 37.796875 64.3125 
L 12.890625 25.390625 
L 37.796875 25.390625 
z
M 35.203125 72.90625 
L 47.609375 72.90625 
L 47.609375 25.390625 
L 58.015625 25.390625 
L 58.015625 17.1875 
L 47.609375 17.1875 
L 47.609375 0 
L 37.796875 0 
L 37.796875 17.1875 
L 4.890625 17.1875 
L 4.890625 26.703125 
z
" id="DejaVuSans-52"/>
      </defs>
      <g transform="translate(225.87928 482.411531)scale(0.13 -0.13)">
       <use xlink:href="#DejaVuSans-52"/>
       <use x="63.623047" xlink:href="#DejaVuSans-48"/>
      </g>
     </g>
    </g>
    <g id="xtick_4">
     <g id="line2d_7">
      <path clip-path="url(#pb81d09b74e)" d="M 299.185495 459.933562 
L 299.185495 25.053562 
" style="fill:none;stroke:#b0b0b0;stroke-linecap:square;stroke-opacity:0.2;stroke-width:1.3;"/>
     </g>
     <g id="line2d_8">
      <g>
       <use style="stroke:#000000;stroke-width:1.3;" x="299.185495" xlink:href="#m724345dfce" y="459.933562"/>
      </g>
     </g>
     <g id="text_4">
      <!-- 60 -->
      <defs>
       <path d="M 33.015625 40.375 
Q 26.375 40.375 22.484375 35.828125 
Q 18.609375 31.296875 18.609375 23.390625 
Q 18.609375 15.53125 22.484375 10.953125 
Q 26.375 6.390625 33.015625 6.390625 
Q 39.65625 6.390625 43.53125 10.953125 
Q 47.40625 15.53125 47.40625 23.390625 
Q 47.40625 31.296875 43.53125 35.828125 
Q 39.65625 40.375 33.015625 40.375 
z
M 52.59375 71.296875 
L 52.59375 62.3125 
Q 48.875 64.0625 45.09375 64.984375 
Q 41.3125 65.921875 37.59375 65.921875 
Q 27.828125 65.921875 22.671875 59.328125 
Q 17.53125 52.734375 16.796875 39.40625 
Q 19.671875 43.65625 24.015625 45.921875 
Q 28.375 48.1875 33.59375 48.1875 
Q 44.578125 48.1875 50.953125 41.515625 
Q 57.328125 34.859375 57.328125 23.390625 
Q 57.328125 12.15625 50.6875 5.359375 
Q 44.046875 -1.421875 33.015625 -1.421875 
Q 20.359375 -1.421875 13.671875 8.265625 
Q 6.984375 17.96875 6.984375 36.375 
Q 6.984375 53.65625 15.1875 63.9375 
Q 23.390625 74.21875 37.203125 74.21875 
Q 40.921875 74.21875 44.703125 73.484375 
Q 48.484375 72.75 52.59375 71.296875 
z
" id="DejaVuSans-54"/>
      </defs>
      <g transform="translate(290.914245 482.411531)scale(0.13 -0.13)">
       <use xlink:href="#DejaVuSans-54"/>
       <use x="63.623047" xlink:href="#DejaVuSans-48"/>
      </g>
     </g>
    </g>
    <g id="text_5">
     <!-- Days since 100th confirmed case -->
     <defs>
      <path d="M 19.671875 64.796875 
L 19.671875 8.109375 
L 31.59375 8.109375 
Q 46.6875 8.109375 53.6875 14.9375 
Q 60.6875 21.78125 60.6875 36.53125 
Q 60.6875 51.171875 53.6875 57.984375 
Q 46.6875 64.796875 31.59375 64.796875 
z
M 9.8125 72.90625 
L 30.078125 72.90625 
Q 51.265625 72.90625 61.171875 64.09375 
Q 71.09375 55.28125 71.09375 36.53125 
Q 71.09375 17.671875 61.125 8.828125 
Q 51.171875 0 30.078125 0 
L 9.8125 0 
z
" id="DejaVuSans-68"/>
      <path d="M 34.28125 27.484375 
Q 23.390625 27.484375 19.1875 25 
Q 14.984375 22.515625 14.984375 16.5 
Q 14.984375 11.71875 18.140625 8.90625 
Q 21.296875 6.109375 26.703125 6.109375 
Q 34.1875 6.109375 38.703125 11.40625 
Q 43.21875 16.703125 43.21875 25.484375 
L 43.21875 27.484375 
z
M 52.203125 31.203125 
L 52.203125 0 
L 43.21875 0 
L 43.21875 8.296875 
Q 40.140625 3.328125 35.546875 0.953125 
Q 30.953125 -1.421875 24.3125 -1.421875 
Q 15.921875 -1.421875 10.953125 3.296875 
Q 6 8.015625 6 15.921875 
Q 6 25.140625 12.171875 29.828125 
Q 18.359375 34.515625 30.609375 34.515625 
L 43.21875 34.515625 
L 43.21875 35.40625 
Q 43.21875 41.609375 39.140625 45 
Q 35.0625 48.390625 27.6875 48.390625 
Q 23 48.390625 18.546875 47.265625 
Q 14.109375 46.140625 10.015625 43.890625 
L 10.015625 52.203125 
Q 14.9375 54.109375 19.578125 55.046875 
Q 24.21875 56 28.609375 56 
Q 40.484375 56 46.34375 49.84375 
Q 52.203125 43.703125 52.203125 31.203125 
z
" id="DejaVuSans-97"/>
      <path d="M 32.171875 -5.078125 
Q 28.375 -14.84375 24.75 -17.8125 
Q 21.140625 -20.796875 15.09375 -20.796875 
L 7.90625 -20.796875 
L 7.90625 -13.28125 
L 13.1875 -13.28125 
Q 16.890625 -13.28125 18.9375 -11.515625 
Q 21 -9.765625 23.484375 -3.21875 
L 25.09375 0.875 
L 2.984375 54.6875 
L 12.5 54.6875 
L 29.59375 11.921875 
L 46.6875 54.6875 
L 56.203125 54.6875 
z
" id="DejaVuSans-121"/>
      <path d="M 44.28125 53.078125 
L 44.28125 44.578125 
Q 40.484375 46.53125 36.375 47.5 
Q 32.28125 48.484375 27.875 48.484375 
Q 21.1875 48.484375 17.84375 46.4375 
Q 14.5 44.390625 14.5 40.28125 
Q 14.5 37.15625 16.890625 35.375 
Q 19.28125 33.59375 26.515625 31.984375 
L 29.59375 31.296875 
Q 39.15625 29.25 43.1875 25.515625 
Q 47.21875 21.78125 47.21875 15.09375 
Q 47.21875 7.46875 41.1875 3.015625 
Q 35.15625 -1.421875 24.609375 -1.421875 
Q 20.21875 -1.421875 15.453125 -0.5625 
Q 10.6875 0.296875 5.421875 2 
L 5.421875 11.28125 
Q 10.40625 8.6875 15.234375 7.390625 
Q 20.0625 6.109375 24.8125 6.109375 
Q 31.15625 6.109375 34.5625 8.28125 
Q 37.984375 10.453125 37.984375 14.40625 
Q 37.984375 18.0625 35.515625 20.015625 
Q 33.0625 21.96875 24.703125 23.78125 
L 21.578125 24.515625 
Q 13.234375 26.265625 9.515625 29.90625 
Q 5.8125 33.546875 5.8125 39.890625 
Q 5.8125 47.609375 11.28125 51.796875 
Q 16.75 56 26.8125 56 
Q 31.78125 56 36.171875 55.265625 
Q 40.578125 54.546875 44.28125 53.078125 
z
" id="DejaVuSans-115"/>
      <path id="DejaVuSans-32"/>
      <path d="M 9.421875 54.6875 
L 18.40625 54.6875 
L 18.40625 0 
L 9.421875 0 
z
M 9.421875 75.984375 
L 18.40625 75.984375 
L 18.40625 64.59375 
L 9.421875 64.59375 
z
" id="DejaVuSans-105"/>
      <path d="M 54.890625 33.015625 
L 54.890625 0 
L 45.90625 0 
L 45.90625 32.71875 
Q 45.90625 40.484375 42.875 44.328125 
Q 39.84375 48.1875 33.796875 48.1875 
Q 26.515625 48.1875 22.3125 43.546875 
Q 18.109375 38.921875 18.109375 30.90625 
L 18.109375 0 
L 9.078125 0 
L 9.078125 54.6875 
L 18.109375 54.6875 
L 18.109375 46.1875 
Q 21.34375 51.125 25.703125 53.5625 
Q 30.078125 56 35.796875 56 
Q 45.21875 56 50.046875 50.171875 
Q 54.890625 44.34375 54.890625 33.015625 
z
" id="DejaVuSans-110"/>
      <path d="M 48.78125 52.59375 
L 48.78125 44.1875 
Q 44.96875 46.296875 41.140625 47.34375 
Q 37.3125 48.390625 33.40625 48.390625 
Q 24.65625 48.390625 19.8125 42.84375 
Q 14.984375 37.3125 14.984375 27.296875 
Q 14.984375 17.28125 19.8125 11.734375 
Q 24.65625 6.203125 33.40625 6.203125 
Q 37.3125 6.203125 41.140625 7.25 
Q 44.96875 8.296875 48.78125 10.40625 
L 48.78125 2.09375 
Q 45.015625 0.34375 40.984375 -0.53125 
Q 36.96875 -1.421875 32.421875 -1.421875 
Q 20.0625 -1.421875 12.78125 6.34375 
Q 5.515625 14.109375 5.515625 27.296875 
Q 5.515625 40.671875 12.859375 48.328125 
Q 20.21875 56 33.015625 56 
Q 37.15625 56 41.109375 55.140625 
Q 45.0625 54.296875 48.78125 52.59375 
z
" id="DejaVuSans-99"/>
      <path d="M 56.203125 29.59375 
L 56.203125 25.203125 
L 14.890625 25.203125 
Q 15.484375 15.921875 20.484375 11.0625 
Q 25.484375 6.203125 34.421875 6.203125 
Q 39.59375 6.203125 44.453125 7.46875 
Q 49.3125 8.734375 54.109375 11.28125 
L 54.109375 2.78125 
Q 49.265625 0.734375 44.1875 -0.34375 
Q 39.109375 -1.421875 33.890625 -1.421875 
Q 20.796875 -1.421875 13.15625 6.1875 
Q 5.515625 13.8125 5.515625 26.8125 
Q 5.515625 40.234375 12.765625 48.109375 
Q 20.015625 56 32.328125 56 
Q 43.359375 56 49.78125 48.890625 
Q 56.203125 41.796875 56.203125 29.59375 
z
M 47.21875 32.234375 
Q 47.125 39.59375 43.09375 43.984375 
Q 39.0625 48.390625 32.421875 48.390625 
Q 24.90625 48.390625 20.390625 44.140625 
Q 15.875 39.890625 15.1875 32.171875 
z
" id="DejaVuSans-101"/>
      <path d="M 12.40625 8.296875 
L 28.515625 8.296875 
L 28.515625 63.921875 
L 10.984375 60.40625 
L 10.984375 69.390625 
L 28.421875 72.90625 
L 38.28125 72.90625 
L 38.28125 8.296875 
L 54.390625 8.296875 
L 54.390625 0 
L 12.40625 0 
z
" id="DejaVuSans-49"/>
      <path d="M 18.3125 70.21875 
L 18.3125 54.6875 
L 36.8125 54.6875 
L 36.8125 47.703125 
L 18.3125 47.703125 
L 18.3125 18.015625 
Q 18.3125 11.328125 20.140625 9.421875 
Q 21.96875 7.515625 27.59375 7.515625 
L 36.8125 7.515625 
L 36.8125 0 
L 27.59375 0 
Q 17.1875 0 13.234375 3.875 
Q 9.28125 7.765625 9.28125 18.015625 
L 9.28125 47.703125 
L 2.6875 47.703125 
L 2.6875 54.6875 
L 9.28125 54.6875 
L 9.28125 70.21875 
z
" id="DejaVuSans-116"/>
      <path d="M 54.890625 33.015625 
L 54.890625 0 
L 45.90625 0 
L 45.90625 32.71875 
Q 45.90625 40.484375 42.875 44.328125 
Q 39.84375 48.1875 33.796875 48.1875 
Q 26.515625 48.1875 22.3125 43.546875 
Q 18.109375 38.921875 18.109375 30.90625 
L 18.109375 0 
L 9.078125 0 
L 9.078125 75.984375 
L 18.109375 75.984375 
L 18.109375 46.1875 
Q 21.34375 51.125 25.703125 53.5625 
Q 30.078125 56 35.796875 56 
Q 45.21875 56 50.046875 50.171875 
Q 54.890625 44.34375 54.890625 33.015625 
z
" id="DejaVuSans-104"/>
      <path d="M 30.609375 48.390625 
Q 23.390625 48.390625 19.1875 42.75 
Q 14.984375 37.109375 14.984375 27.296875 
Q 14.984375 17.484375 19.15625 11.84375 
Q 23.34375 6.203125 30.609375 6.203125 
Q 37.796875 6.203125 41.984375 11.859375 
Q 46.1875 17.53125 46.1875 27.296875 
Q 46.1875 37.015625 41.984375 42.703125 
Q 37.796875 48.390625 30.609375 48.390625 
z
M 30.609375 56 
Q 42.328125 56 49.015625 48.375 
Q 55.71875 40.765625 55.71875 27.296875 
Q 55.71875 13.875 49.015625 6.21875 
Q 42.328125 -1.421875 30.609375 -1.421875 
Q 18.84375 -1.421875 12.171875 6.21875 
Q 5.515625 13.875 5.515625 27.296875 
Q 5.515625 40.765625 12.171875 48.375 
Q 18.84375 56 30.609375 56 
z
" id="DejaVuSans-111"/>
      <path d="M 37.109375 75.984375 
L 37.109375 68.5 
L 28.515625 68.5 
Q 23.6875 68.5 21.796875 66.546875 
Q 19.921875 64.59375 19.921875 59.515625 
L 19.921875 54.6875 
L 34.71875 54.6875 
L 34.71875 47.703125 
L 19.921875 47.703125 
L 19.921875 0 
L 10.890625 0 
L 10.890625 47.703125 
L 2.296875 47.703125 
L 2.296875 54.6875 
L 10.890625 54.6875 
L 10.890625 58.5 
Q 10.890625 67.625 15.140625 71.796875 
Q 19.390625 75.984375 28.609375 75.984375 
z
" id="DejaVuSans-102"/>
      <path d="M 41.109375 46.296875 
Q 39.59375 47.171875 37.8125 47.578125 
Q 36.03125 48 33.890625 48 
Q 26.265625 48 22.1875 43.046875 
Q 18.109375 38.09375 18.109375 28.8125 
L 18.109375 0 
L 9.078125 0 
L 9.078125 54.6875 
L 18.109375 54.6875 
L 18.109375 46.1875 
Q 20.953125 51.171875 25.484375 53.578125 
Q 30.03125 56 36.53125 56 
Q 37.453125 56 38.578125 55.875 
Q 39.703125 55.765625 41.0625 55.515625 
z
" id="DejaVuSans-114"/>
      <path d="M 52 44.1875 
Q 55.375 50.25 60.0625 53.125 
Q 64.75 56 71.09375 56 
Q 79.640625 56 84.28125 50.015625 
Q 88.921875 44.046875 88.921875 33.015625 
L 88.921875 0 
L 79.890625 0 
L 79.890625 32.71875 
Q 79.890625 40.578125 77.09375 44.375 
Q 74.3125 48.1875 68.609375 48.1875 
Q 61.625 48.1875 57.5625 43.546875 
Q 53.515625 38.921875 53.515625 30.90625 
L 53.515625 0 
L 44.484375 0 
L 44.484375 32.71875 
Q 44.484375 40.625 41.703125 44.40625 
Q 38.921875 48.1875 33.109375 48.1875 
Q 26.21875 48.1875 22.15625 43.53125 
Q 18.109375 38.875 18.109375 30.90625 
L 18.109375 0 
L 9.078125 0 
L 9.078125 54.6875 
L 18.109375 54.6875 
L 18.109375 46.1875 
Q 21.1875 51.21875 25.484375 53.609375 
Q 29.78125 56 35.6875 56 
Q 41.65625 56 45.828125 52.96875 
Q 50 49.953125 52 44.1875 
z
" id="DejaVuSans-109"/>
      <path d="M 45.40625 46.390625 
L 45.40625 75.984375 
L 54.390625 75.984375 
L 54.390625 0 
L 45.40625 0 
L 45.40625 8.203125 
Q 42.578125 3.328125 38.25 0.953125 
Q 33.9375 -1.421875 27.875 -1.421875 
Q 17.96875 -1.421875 11.734375 6.484375 
Q 5.515625 14.40625 5.515625 27.296875 
Q 5.515625 40.1875 11.734375 48.09375 
Q 17.96875 56 27.875 56 
Q 33.9375 56 38.25 53.625 
Q 42.578125 51.265625 45.40625 46.390625 
z
M 14.796875 27.296875 
Q 14.796875 17.390625 18.875 11.75 
Q 22.953125 6.109375 30.078125 6.109375 
Q 37.203125 6.109375 41.296875 11.75 
Q 45.40625 17.390625 45.40625 27.296875 
Q 45.40625 37.203125 41.296875 42.84375 
Q 37.203125 48.484375 30.078125 48.484375 
Q 22.953125 48.484375 18.875 42.84375 
Q 14.796875 37.203125 14.796875 27.296875 
z
" id="DejaVuSans-100"/>
     </defs>
     <g transform="translate(111.914961 499.980891)scale(0.143 -0.143)">
      <use xlink:href="#DejaVuSans-68"/>
      <use x="77.001953" xlink:href="#DejaVuSans-97"/>
      <use x="138.28125" xlink:href="#DejaVuSans-121"/>
      <use x="197.460938" xlink:href="#DejaVuSans-115"/>
      <use x="249.560547" xlink:href="#DejaVuSans-32"/>
      <use x="281.347656" xlink:href="#DejaVuSans-115"/>
      <use x="333.447266" xlink:href="#DejaVuSans-105"/>
      <use x="361.230469" xlink:href="#DejaVuSans-110"/>
      <use x="424.609375" xlink:href="#DejaVuSans-99"/>
      <use x="479.589844" xlink:href="#DejaVuSans-101"/>
      <use x="541.113281" xlink:href="#DejaVuSans-32"/>
      <use x="572.900391" xlink:href="#DejaVuSans-49"/>
      <use x="636.523438" xlink:href="#DejaVuSans-48"/>
      <use x="700.146484" xlink:href="#DejaVuSans-48"/>
      <use x="763.769531" xlink:href="#DejaVuSans-116"/>
      <use x="802.978516" xlink:href="#DejaVuSans-104"/>
      <use x="866.357422" xlink:href="#DejaVuSans-32"/>
      <use x="898.144531" xlink:href="#DejaVuSans-99"/>
      <use x="953.125" xlink:href="#DejaVuSans-111"/>
      <use x="1014.306641" xlink:href="#DejaVuSans-110"/>
      <use x="1077.685547" xlink:href="#DejaVuSans-102"/>
      <use x="1112.890625" xlink:href="#DejaVuSans-105"/>
      <use x="1140.673828" xlink:href="#DejaVuSans-114"/>
      <use x="1180.037109" xlink:href="#DejaVuSans-109"/>
      <use x="1277.449219" xlink:href="#DejaVuSans-101"/>
      <use x="1338.972656" xlink:href="#DejaVuSans-100"/>
      <use x="1402.449219" xlink:href="#DejaVuSans-32"/>
      <use x="1434.236328" xlink:href="#DejaVuSans-99"/>
      <use x="1489.216797" xlink:href="#DejaVuSans-97"/>
      <use x="1550.496094" xlink:href="#DejaVuSans-115"/>
      <use x="1602.595703" xlink:href="#DejaVuSans-101"/>
     </g>
    </g>
   </g>
   <g id="matplotlib.axis_2">
    <g id="ytick_1">
     <g id="line2d_9">
      <path clip-path="url(#pb81d09b74e)" d="M 91.398781 440.16629 
L 370.398781 440.16629 
" style="fill:none;stroke:#b0b0b0;stroke-linecap:square;stroke-opacity:0.2;stroke-width:1.3;"/>
     </g>
     <g id="line2d_10">
      <defs>
       <path d="M 0 0 
L -3.5 0 
" id="m18deea954f" style="stroke:#000000;stroke-width:1.3;"/>
      </defs>
      <g>
       <use style="stroke:#000000;stroke-width:1.3;" x="91.398781" xlink:href="#m18deea954f" y="440.16629"/>
      </g>
     </g>
     <g id="text_6">
      <!-- 100 -->
      <g transform="translate(53.985031 445.105274)scale(0.13 -0.13)">
       <use xlink:href="#DejaVuSans-49"/>
       <use x="63.623047" xlink:href="#DejaVuSans-48"/>
       <use x="127.246094" xlink:href="#DejaVuSans-48"/>
      </g>
     </g>
    </g>
    <g id="ytick_2">
     <g id="line2d_11">
      <path clip-path="url(#pb81d09b74e)" d="M 91.398781 328.121131 
L 370.398781 328.121131 
" style="fill:none;stroke:#b0b0b0;stroke-linecap:square;stroke-opacity:0.2;stroke-width:1.3;"/>
     </g>
     <g id="line2d_12">
      <g>
       <use style="stroke:#000000;stroke-width:1.3;" x="91.398781" xlink:href="#m18deea954f" y="328.121131"/>
      </g>
     </g>
     <g id="text_7">
      <!-- 1,000 -->
      <defs>
       <path d="M 11.71875 12.40625 
L 22.015625 12.40625 
L 22.015625 4 
L 14.015625 -11.625 
L 7.71875 -11.625 
L 11.71875 4 
z
" id="DejaVuSans-44"/>
      </defs>
      <g transform="translate(41.582219 333.060116)scale(0.13 -0.13)">
       <use xlink:href="#DejaVuSans-49"/>
       <use x="63.623047" xlink:href="#DejaVuSans-44"/>
       <use x="95.410156" xlink:href="#DejaVuSans-48"/>
       <use x="159.033203" xlink:href="#DejaVuSans-48"/>
       <use x="222.65625" xlink:href="#DejaVuSans-48"/>
      </g>
     </g>
    </g>
    <g id="ytick_3">
     <g id="line2d_13">
      <path clip-path="url(#pb81d09b74e)" d="M 91.398781 216.075973 
L 370.398781 216.075973 
" style="fill:none;stroke:#b0b0b0;stroke-linecap:square;stroke-opacity:0.2;stroke-width:1.3;"/>
     </g>
     <g id="line2d_14">
      <g>
       <use style="stroke:#000000;stroke-width:1.3;" x="91.398781" xlink:href="#m18deea954f" y="216.075973"/>
      </g>
     </g>
     <g id="text_8">
      <!-- 10,000 -->
      <g transform="translate(33.310969 221.014957)scale(0.13 -0.13)">
       <use xlink:href="#DejaVuSans-49"/>
       <use x="63.623047" xlink:href="#DejaVuSans-48"/>
       <use x="127.246094" xlink:href="#DejaVuSans-44"/>
       <use x="159.033203" xlink:href="#DejaVuSans-48"/>
       <use x="222.65625" xlink:href="#DejaVuSans-48"/>
       <use x="286.279297" xlink:href="#DejaVuSans-48"/>
      </g>
     </g>
    </g>
    <g id="ytick_4">
     <g id="line2d_15">
      <path clip-path="url(#pb81d09b74e)" d="M 91.398781 104.030815 
L 370.398781 104.030815 
" style="fill:none;stroke:#b0b0b0;stroke-linecap:square;stroke-opacity:0.2;stroke-width:1.3;"/>
     </g>
     <g id="line2d_16">
      <g>
       <use style="stroke:#000000;stroke-width:1.3;" x="91.398781" xlink:href="#m18deea954f" y="104.030815"/>
      </g>
     </g>
     <g id="text_9">
      <!-- 100,000 -->
      <g transform="translate(25.039719 108.969799)scale(0.13 -0.13)">
       <use xlink:href="#DejaVuSans-49"/>
       <use x="63.623047" xlink:href="#DejaVuSans-48"/>
       <use x="127.246094" xlink:href="#DejaVuSans-48"/>
       <use x="190.869141" xlink:href="#DejaVuSans-44"/>
       <use x="222.65625" xlink:href="#DejaVuSans-48"/>
       <use x="286.279297" xlink:href="#DejaVuSans-48"/>
       <use x="349.902344" xlink:href="#DejaVuSans-48"/>
      </g>
     </g>
    </g>
    <g id="ytick_5">
     <g id="line2d_17">
      <defs>
       <path d="M 0 0 
L -2 0 
" id="ma8c90f2b07" style="stroke:#000000;stroke-width:0.65;"/>
      </defs>
      <g>
       <use style="stroke:#000000;stroke-width:0.65;" x="91.398781" xlink:href="#ma8c90f2b07" y="457.522304"/>
      </g>
     </g>
    </g>
    <g id="ytick_6">
     <g id="line2d_18">
      <g>
       <use style="stroke:#000000;stroke-width:0.65;" x="91.398781" xlink:href="#ma8c90f2b07" y="451.024588"/>
      </g>
     </g>
    </g>
    <g id="ytick_7">
     <g id="line2d_19">
      <g>
       <use style="stroke:#000000;stroke-width:0.65;" x="91.398781" xlink:href="#ma8c90f2b07" y="445.293195"/>
      </g>
     </g>
    </g>
    <g id="ytick_8">
     <g id="line2d_20">
      <g>
       <use style="stroke:#000000;stroke-width:0.65;" x="91.398781" xlink:href="#ma8c90f2b07" y="406.437336"/>
      </g>
     </g>
    </g>
    <g id="ytick_9">
     <g id="line2d_21">
      <g>
       <use style="stroke:#000000;stroke-width:0.65;" x="91.398781" xlink:href="#ma8c90f2b07" y="386.707163"/>
      </g>
     </g>
    </g>
    <g id="ytick_10">
     <g id="line2d_22">
      <g>
       <use style="stroke:#000000;stroke-width:0.65;" x="91.398781" xlink:href="#ma8c90f2b07" y="372.708383"/>
      </g>
     </g>
    </g>
    <g id="ytick_11">
     <g id="line2d_23">
      <g>
       <use style="stroke:#000000;stroke-width:0.65;" x="91.398781" xlink:href="#ma8c90f2b07" y="361.850085"/>
      </g>
     </g>
    </g>
    <g id="ytick_12">
     <g id="line2d_24">
      <g>
       <use style="stroke:#000000;stroke-width:0.65;" x="91.398781" xlink:href="#ma8c90f2b07" y="352.97821"/>
      </g>
     </g>
    </g>
    <g id="ytick_13">
     <g id="line2d_25">
      <g>
       <use style="stroke:#000000;stroke-width:0.65;" x="91.398781" xlink:href="#ma8c90f2b07" y="345.477146"/>
      </g>
     </g>
    </g>
    <g id="ytick_14">
     <g id="line2d_26">
      <g>
       <use style="stroke:#000000;stroke-width:0.65;" x="91.398781" xlink:href="#ma8c90f2b07" y="338.979429"/>
      </g>
     </g>
    </g>
    <g id="ytick_15">
     <g id="line2d_27">
      <g>
       <use style="stroke:#000000;stroke-width:0.65;" x="91.398781" xlink:href="#ma8c90f2b07" y="333.248037"/>
      </g>
     </g>
    </g>
    <g id="ytick_16">
     <g id="line2d_28">
      <g>
       <use style="stroke:#000000;stroke-width:0.65;" x="91.398781" xlink:href="#ma8c90f2b07" y="294.392178"/>
      </g>
     </g>
    </g>
    <g id="ytick_17">
     <g id="line2d_29">
      <g>
       <use style="stroke:#000000;stroke-width:0.65;" x="91.398781" xlink:href="#ma8c90f2b07" y="274.662005"/>
      </g>
     </g>
    </g>
    <g id="ytick_18">
     <g id="line2d_30">
      <g>
       <use style="stroke:#000000;stroke-width:0.65;" x="91.398781" xlink:href="#ma8c90f2b07" y="260.663224"/>
      </g>
     </g>
    </g>
    <g id="ytick_19">
     <g id="line2d_31">
      <g>
       <use style="stroke:#000000;stroke-width:0.65;" x="91.398781" xlink:href="#ma8c90f2b07" y="249.804927"/>
      </g>
     </g>
    </g>
    <g id="ytick_20">
     <g id="line2d_32">
      <g>
       <use style="stroke:#000000;stroke-width:0.65;" x="91.398781" xlink:href="#ma8c90f2b07" y="240.933051"/>
      </g>
     </g>
    </g>
    <g id="ytick_21">
     <g id="line2d_33">
      <g>
       <use style="stroke:#000000;stroke-width:0.65;" x="91.398781" xlink:href="#ma8c90f2b07" y="233.431988"/>
      </g>
     </g>
    </g>
    <g id="ytick_22">
     <g id="line2d_34">
      <g>
       <use style="stroke:#000000;stroke-width:0.65;" x="91.398781" xlink:href="#ma8c90f2b07" y="226.934271"/>
      </g>
     </g>
    </g>
    <g id="ytick_23">
     <g id="line2d_35">
      <g>
       <use style="stroke:#000000;stroke-width:0.65;" x="91.398781" xlink:href="#ma8c90f2b07" y="221.202878"/>
      </g>
     </g>
    </g>
    <g id="ytick_24">
     <g id="line2d_36">
      <g>
       <use style="stroke:#000000;stroke-width:0.65;" x="91.398781" xlink:href="#ma8c90f2b07" y="182.347019"/>
      </g>
     </g>
    </g>
    <g id="ytick_25">
     <g id="line2d_37">
      <g>
       <use style="stroke:#000000;stroke-width:0.65;" x="91.398781" xlink:href="#ma8c90f2b07" y="162.616846"/>
      </g>
     </g>
    </g>
    <g id="ytick_26">
     <g id="line2d_38">
      <g>
       <use style="stroke:#000000;stroke-width:0.65;" x="91.398781" xlink:href="#ma8c90f2b07" y="148.618066"/>
      </g>
     </g>
    </g>
    <g id="ytick_27">
     <g id="line2d_39">
      <g>
       <use style="stroke:#000000;stroke-width:0.65;" x="91.398781" xlink:href="#ma8c90f2b07" y="137.759768"/>
      </g>
     </g>
    </g>
    <g id="ytick_28">
     <g id="line2d_40">
      <g>
       <use style="stroke:#000000;stroke-width:0.65;" x="91.398781" xlink:href="#ma8c90f2b07" y="128.887893"/>
      </g>
     </g>
    </g>
    <g id="ytick_29">
     <g id="line2d_41">
      <g>
       <use style="stroke:#000000;stroke-width:0.65;" x="91.398781" xlink:href="#ma8c90f2b07" y="121.386829"/>
      </g>
     </g>
    </g>
    <g id="ytick_30">
     <g id="line2d_42">
      <g>
       <use style="stroke:#000000;stroke-width:0.65;" x="91.398781" xlink:href="#ma8c90f2b07" y="114.889112"/>
      </g>
     </g>
    </g>
    <g id="ytick_31">
     <g id="line2d_43">
      <g>
       <use style="stroke:#000000;stroke-width:0.65;" x="91.398781" xlink:href="#ma8c90f2b07" y="109.15772"/>
      </g>
     </g>
    </g>
    <g id="ytick_32">
     <g id="line2d_44">
      <g>
       <use style="stroke:#000000;stroke-width:0.65;" x="91.398781" xlink:href="#ma8c90f2b07" y="70.301861"/>
      </g>
     </g>
    </g>
    <g id="ytick_33">
     <g id="line2d_45">
      <g>
       <use style="stroke:#000000;stroke-width:0.65;" x="91.398781" xlink:href="#ma8c90f2b07" y="50.571688"/>
      </g>
     </g>
    </g>
    <g id="ytick_34">
     <g id="line2d_46">
      <g>
       <use style="stroke:#000000;stroke-width:0.65;" x="91.398781" xlink:href="#ma8c90f2b07" y="36.572908"/>
      </g>
     </g>
    </g>
    <g id="ytick_35">
     <g id="line2d_47">
      <g>
       <use style="stroke:#000000;stroke-width:0.65;" x="91.398781" xlink:href="#ma8c90f2b07" y="25.71461"/>
      </g>
     </g>
    </g>
    <g id="text_10">
     <!-- Cumulative number of cases (log10 scale) -->
     <defs>
      <path d="M 64.40625 67.28125 
L 64.40625 56.890625 
Q 59.421875 61.53125 53.78125 63.8125 
Q 48.140625 66.109375 41.796875 66.109375 
Q 29.296875 66.109375 22.65625 58.46875 
Q 16.015625 50.828125 16.015625 36.375 
Q 16.015625 21.96875 22.65625 14.328125 
Q 29.296875 6.6875 41.796875 6.6875 
Q 48.140625 6.6875 53.78125 8.984375 
Q 59.421875 11.28125 64.40625 15.921875 
L 64.40625 5.609375 
Q 59.234375 2.09375 53.4375 0.328125 
Q 47.65625 -1.421875 41.21875 -1.421875 
Q 24.65625 -1.421875 15.125 8.703125 
Q 5.609375 18.84375 5.609375 36.375 
Q 5.609375 53.953125 15.125 64.078125 
Q 24.65625 74.21875 41.21875 74.21875 
Q 47.75 74.21875 53.53125 72.484375 
Q 59.328125 70.75 64.40625 67.28125 
z
" id="DejaVuSans-67"/>
      <path d="M 8.5 21.578125 
L 8.5 54.6875 
L 17.484375 54.6875 
L 17.484375 21.921875 
Q 17.484375 14.15625 20.5 10.265625 
Q 23.53125 6.390625 29.59375 6.390625 
Q 36.859375 6.390625 41.078125 11.03125 
Q 45.3125 15.671875 45.3125 23.6875 
L 45.3125 54.6875 
L 54.296875 54.6875 
L 54.296875 0 
L 45.3125 0 
L 45.3125 8.40625 
Q 42.046875 3.421875 37.71875 1 
Q 33.40625 -1.421875 27.6875 -1.421875 
Q 18.265625 -1.421875 13.375 4.4375 
Q 8.5 10.296875 8.5 21.578125 
z
M 31.109375 56 
z
" id="DejaVuSans-117"/>
      <path d="M 9.421875 75.984375 
L 18.40625 75.984375 
L 18.40625 0 
L 9.421875 0 
z
" id="DejaVuSans-108"/>
      <path d="M 2.984375 54.6875 
L 12.5 54.6875 
L 29.59375 8.796875 
L 46.6875 54.6875 
L 56.203125 54.6875 
L 35.6875 0 
L 23.484375 0 
z
" id="DejaVuSans-118"/>
      <path d="M 48.6875 27.296875 
Q 48.6875 37.203125 44.609375 42.84375 
Q 40.53125 48.484375 33.40625 48.484375 
Q 26.265625 48.484375 22.1875 42.84375 
Q 18.109375 37.203125 18.109375 27.296875 
Q 18.109375 17.390625 22.1875 11.75 
Q 26.265625 6.109375 33.40625 6.109375 
Q 40.53125 6.109375 44.609375 11.75 
Q 48.6875 17.390625 48.6875 27.296875 
z
M 18.109375 46.390625 
Q 20.953125 51.265625 25.265625 53.625 
Q 29.59375 56 35.59375 56 
Q 45.5625 56 51.78125 48.09375 
Q 58.015625 40.1875 58.015625 27.296875 
Q 58.015625 14.40625 51.78125 6.484375 
Q 45.5625 -1.421875 35.59375 -1.421875 
Q 29.59375 -1.421875 25.265625 0.953125 
Q 20.953125 3.328125 18.109375 8.203125 
L 18.109375 0 
L 9.078125 0 
L 9.078125 75.984375 
L 18.109375 75.984375 
z
" id="DejaVuSans-98"/>
      <path d="M 31 75.875 
Q 24.46875 64.65625 21.28125 53.65625 
Q 18.109375 42.671875 18.109375 31.390625 
Q 18.109375 20.125 21.3125 9.0625 
Q 24.515625 -2 31 -13.1875 
L 23.1875 -13.1875 
Q 15.875 -1.703125 12.234375 9.375 
Q 8.59375 20.453125 8.59375 31.390625 
Q 8.59375 42.28125 12.203125 53.3125 
Q 15.828125 64.359375 23.1875 75.875 
z
" id="DejaVuSans-40"/>
      <path d="M 45.40625 27.984375 
Q 45.40625 37.75 41.375 43.109375 
Q 37.359375 48.484375 30.078125 48.484375 
Q 22.859375 48.484375 18.828125 43.109375 
Q 14.796875 37.75 14.796875 27.984375 
Q 14.796875 18.265625 18.828125 12.890625 
Q 22.859375 7.515625 30.078125 7.515625 
Q 37.359375 7.515625 41.375 12.890625 
Q 45.40625 18.265625 45.40625 27.984375 
z
M 54.390625 6.78125 
Q 54.390625 -7.171875 48.1875 -13.984375 
Q 42 -20.796875 29.203125 -20.796875 
Q 24.46875 -20.796875 20.265625 -20.09375 
Q 16.0625 -19.390625 12.109375 -17.921875 
L 12.109375 -9.1875 
Q 16.0625 -11.328125 19.921875 -12.34375 
Q 23.78125 -13.375 27.78125 -13.375 
Q 36.625 -13.375 41.015625 -8.765625 
Q 45.40625 -4.15625 45.40625 5.171875 
L 45.40625 9.625 
Q 42.625 4.78125 38.28125 2.390625 
Q 33.9375 0 27.875 0 
Q 17.828125 0 11.671875 7.65625 
Q 5.515625 15.328125 5.515625 27.984375 
Q 5.515625 40.671875 11.671875 48.328125 
Q 17.828125 56 27.875 56 
Q 33.9375 56 38.28125 53.609375 
Q 42.625 51.21875 45.40625 46.390625 
L 45.40625 54.6875 
L 54.390625 54.6875 
z
" id="DejaVuSans-103"/>
      <path d="M 8.015625 75.875 
L 15.828125 75.875 
Q 23.140625 64.359375 26.78125 53.3125 
Q 30.421875 42.28125 30.421875 31.390625 
Q 30.421875 20.453125 26.78125 9.375 
Q 23.140625 -1.703125 15.828125 -13.1875 
L 8.015625 -13.1875 
Q 14.5 -2 17.703125 9.0625 
Q 20.90625 20.125 20.90625 31.390625 
Q 20.90625 42.671875 17.703125 53.65625 
Q 14.5 64.65625 8.015625 75.875 
z
" id="DejaVuSans-41"/>
     </defs>
     <g transform="translate(18.065766 393.624453)rotate(-90)scale(0.143 -0.143)">
      <use xlink:href="#DejaVuSans-67"/>
      <use x="69.824219" xlink:href="#DejaVuSans-117"/>
      <use x="133.203125" xlink:href="#DejaVuSans-109"/>
      <use x="230.615234" xlink:href="#DejaVuSans-117"/>
      <use x="293.994141" xlink:href="#DejaVuSans-108"/>
      <use x="321.777344" xlink:href="#DejaVuSans-97"/>
      <use x="383.056641" xlink:href="#DejaVuSans-116"/>
      <use x="422.265625" xlink:href="#DejaVuSans-105"/>
      <use x="450.048828" xlink:href="#DejaVuSans-118"/>
      <use x="509.228516" xlink:href="#DejaVuSans-101"/>
      <use x="570.751953" xlink:href="#DejaVuSans-32"/>
      <use x="602.539062" xlink:href="#DejaVuSans-110"/>
      <use x="665.917969" xlink:href="#DejaVuSans-117"/>
      <use x="729.296875" xlink:href="#DejaVuSans-109"/>
      <use x="826.708984" xlink:href="#DejaVuSans-98"/>
      <use x="890.185547" xlink:href="#DejaVuSans-101"/>
      <use x="951.708984" xlink:href="#DejaVuSans-114"/>
      <use x="992.822266" xlink:href="#DejaVuSans-32"/>
      <use x="1024.609375" xlink:href="#DejaVuSans-111"/>
      <use x="1085.791016" xlink:href="#DejaVuSans-102"/>
      <use x="1120.996094" xlink:href="#DejaVuSans-32"/>
      <use x="1152.783203" xlink:href="#DejaVuSans-99"/>
      <use x="1207.763672" xlink:href="#DejaVuSans-97"/>
      <use x="1269.042969" xlink:href="#DejaVuSans-115"/>
      <use x="1321.142578" xlink:href="#DejaVuSans-101"/>
      <use x="1382.666016" xlink:href="#DejaVuSans-115"/>
      <use x="1434.765625" xlink:href="#DejaVuSans-32"/>
      <use x="1466.552734" xlink:href="#DejaVuSans-40"/>
      <use x="1505.566406" xlink:href="#DejaVuSans-108"/>
      <use x="1533.349609" xlink:href="#DejaVuSans-111"/>
      <use x="1594.53125" xlink:href="#DejaVuSans-103"/>
      <use x="1658.007812" xlink:href="#DejaVuSans-49"/>
      <use x="1721.630859" xlink:href="#DejaVuSans-48"/>
      <use x="1785.253906" xlink:href="#DejaVuSans-32"/>
      <use x="1817.041016" xlink:href="#DejaVuSans-115"/>
      <use x="1869.140625" xlink:href="#DejaVuSans-99"/>
      <use x="1924.121094" xlink:href="#DejaVuSans-97"/>
      <use x="1985.400391" xlink:href="#DejaVuSans-108"/>
      <use x="2013.183594" xlink:href="#DejaVuSans-101"/>
      <use x="2074.707031" xlink:href="#DejaVuSans-41"/>
     </g>
    </g>
   </g>
   <g id="line2d_48">
    <path clip-path="url(#pb81d09b74e)" d="M 104.080599 438.727941 
L 107.332348 429.307992 
L 110.584096 417.600717 
L 113.835844 399.005837 
L 117.087592 380.903734 
L 120.339341 368.850903 
L 123.591089 356.85962 
L 126.842837 341.861078 
L 130.094585 326.919574 
L 133.346334 314.907216 
L 136.598082 303.371224 
L 139.84983 290.332833 
L 143.101578 275.463357 
L 146.353327 263.493272 
L 149.605075 253.221284 
L 152.856823 237.587713 
L 156.108571 219.009279 
L 159.36032 198.841762 
L 162.612068 183.270547 
L 165.863816 168.201869 
L 169.115564 154.83022 
L 172.367313 141.351834 
L 175.619061 132.917972 
L 178.870809 121.950372 
L 182.122557 111.375039 
L 185.374306 101.802393 
L 188.626054 93.303102 
L 191.877802 86.617657 
L 195.12955 79.774988 
L 198.381299 72.895755 
L 201.633047 66.394734 
L 204.884795 60.319505 
L 208.136543 54.283872 
L 211.388292 48.626236 
L 214.64004 44.820835 
" style="fill:none;stroke:#808080;stroke-linecap:square;stroke-opacity:0.6;stroke-width:0.5;"/>
   </g>
   <g id="line2d_49">
    <path clip-path="url(#pb81d09b74e)" d="M 104.080599 433.790377 
L 107.332348 420.112789 
L 110.584096 406.437336 
L 113.835844 393.483738 
L 117.087592 375.9788 
L 120.339341 369.189216 
L 123.591089 353.8786 
L 126.842837 319.087324 
L 130.094585 304.078599 
L 133.346334 291.099868 
L 136.598082 274.597167 
L 139.84983 257.931223 
L 143.101578 242.978646 
L 146.353327 228.460349 
L 149.605075 220.180998 
L 152.856823 210.657009 
L 156.108571 200.700299 
L 159.36032 189.836325 
L 162.612068 182.395704 
L 165.863816 171.632971 
L 169.115564 164.990032 
L 172.367313 157.847937 
L 175.619061 149.017501 
L 178.870809 140.143173 
L 182.122557 132.08204 
L 185.374306 125.702572 
L 188.626054 119.848697 
L 191.877802 115.626404 
L 195.12955 111.827577 
L 198.381299 106.826319 
L 201.633047 103.002369 
L 204.884795 99.287795 
L 208.136543 96.096521 
L 211.388292 93.275397 
L 214.64004 90.980737 
" style="fill:none;stroke:#808080;stroke-linecap:square;stroke-opacity:0.6;stroke-width:0.5;"/>
   </g>
   <g id="line2d_50">
    <path clip-path="url(#pb81d09b74e)" d="M 104.080599 426.656565 
L 107.332348 399.848466 
L 110.584096 383.263498 
L 113.835844 372.708383 
L 117.087592 349.083284 
L 120.339341 333.901209 
L 123.591089 322.26015 
L 126.842837 302.616331 
L 130.094585 298.581986 
L 133.346334 283.494967 
L 136.598082 273.239406 
L 139.84983 262.422083 
L 143.101578 253.482986 
L 146.353327 241.891307 
L 149.605075 230.892598 
L 152.856823 220.281695 
L 156.108571 215.356279 
L 159.36032 205.365829 
L 162.612068 195.980597 
L 165.863816 188.401861 
L 169.115564 188.154504 
L 172.367313 173.515712 
L 175.619061 166.008851 
L 178.870809 160.23342 
L 182.122557 154.134459 
L 185.374306 147.374987 
L 188.626054 140.748925 
L 191.877802 134.396565 
L 195.12955 129.592054 
L 198.381299 125.802945 
L 201.633047 121.963032 
L 204.884795 118.429603 
L 208.136543 114.562361 
L 211.388292 111.08898 
L 214.64004 107.839201 
L 217.891788 105.168559 
L 221.143536 103.19188 
L 224.395285 101.290994 
L 227.647033 99.139705 
L 230.898781 97.127624 
L 234.15053 95.229142 
L 237.402278 93.315985 
L 240.654026 91.659392 
" style="fill:none;stroke:#808080;stroke-linecap:square;stroke-opacity:0.6;stroke-width:0.5;"/>
   </g>
   <g id="line2d_51">
    <path clip-path="url(#pb81d09b74e)" d="M 104.080599 435.088069 
L 107.332348 427.775248 
L 110.584096 418.216682 
L 113.835844 407.420412 
L 117.087592 393.297655 
L 120.339341 372.708383 
L 123.591089 346.602297 
L 126.842837 336.201446 
L 130.094585 333.140022 
L 133.346334 321.787922 
L 136.598082 315.504286 
L 139.84983 306.264595 
L 143.101578 286.15293 
L 146.353327 273.666603 
L 149.605075 263.223256 
L 152.856823 251.407636 
L 156.108571 240.835827 
L 159.36032 232.359459 
L 162.612068 225.744583 
L 165.863816 199.225728 
L 169.115564 186.971003 
L 172.367313 178.911667 
L 175.619061 171.930614 
L 178.870809 163.912084 
L 182.122557 160.159341 
L 185.374306 153.063116 
L 188.626054 145.911374 
L 191.877802 139.159729 
L 195.12955 135.342066 
L 198.381299 131.130117 
L 201.633047 127.36065 
L 204.884795 123.253197 
L 208.136543 118.998108 
L 211.388292 115.074375 
L 214.64004 111.495721 
L 217.891788 108.23972 
L 221.143536 106.326911 
" style="fill:none;stroke:#808080;stroke-linecap:square;stroke-opacity:0.6;stroke-width:0.5;"/>
   </g>
   <g id="line2d_52">
    <path clip-path="url(#pb81d09b74e)" d="M 104.080599 402.692366 
L 107.332348 398.589932 
L 110.584096 374.442022 
L 113.835844 359.383328 
L 117.087592 351.147751 
L 120.339341 334.231112 
L 123.591089 314.500939 
L 126.842837 294.685021 
L 130.094585 278.45566 
L 133.346334 254.629993 
L 136.598082 240.981736 
L 139.84983 228.579746 
L 143.101578 217.487955 
L 146.353327 207.984842 
L 149.605075 198.335602 
L 152.856823 189.655041 
L 156.108571 181.269051 
L 159.36032 172.830624 
L 162.612068 165.892469 
L 165.863816 160.697427 
L 169.115564 155.639959 
L 172.367313 152.107558 
L 175.619061 148.368107 
L 178.870809 145.44414 
L 182.122557 143.186044 
L 185.374306 128.997503 
L 188.626054 125.731446 
L 191.877802 123.839638 
L 195.12955 122.394028 
L 198.381299 120.959111 
L 201.633047 119.673896 
L 204.884795 118.513408 
L 208.136543 118.255906 
L 211.388292 117.678562 
L 214.64004 117.149386 
L 217.891788 116.738869 
L 221.143536 116.601326 
L 224.395285 116.277932 
L 227.647033 116.022 
L 230.898781 115.74945 
L 234.15053 115.546189 
L 237.402278 115.283029 
L 240.654026 114.932318 
L 243.905774 114.807674 
L 247.157523 114.730616 
L 250.409271 114.658522 
L 253.661019 114.587744 
L 256.912767 114.485087 
L 260.164516 114.424199 
L 263.416264 114.396493 
L 266.668012 114.369404 
L 269.91976 114.35737 
L 273.171509 114.339925 
L 276.423257 114.325493 
L 279.675005 114.312267 
L 282.926753 114.300848 
L 286.178502 114.287629 
L 289.43025 114.272612 
L 292.681998 114.246793 
L 295.933746 114.232988 
L 299.185495 114.206591 
L 302.437243 114.147248 
L 305.688991 114.116107 
L 308.940739 114.077209 
L 312.192488 113.994728 
L 315.444236 113.95354 
L 318.695984 113.907022 
L 321.947732 113.846257 
L 325.199481 113.790326 
L 328.451229 113.719611 
L 331.702977 113.652556 
L 334.954725 113.594477 
L 338.206474 113.54475 
L 341.458222 113.51281 
L 344.70997 113.453716 
L 347.961718 113.412393 
L 351.213467 113.375822 
L 354.465215 113.347528 
L 357.716963 113.308062 
" style="fill:none;stroke:#808080;stroke-linecap:square;stroke-opacity:0.6;stroke-width:0.5;"/>
   </g>
   <g id="line2d_53">
    <path clip-path="url(#pb81d09b74e)" d="M 104.080599 440.16629 
L 107.332348 427.399489 
L 110.584096 412.107941 
L 113.835844 403.601937 
L 117.087592 389.203125 
L 120.339341 369.987884 
L 123.591089 351.935156 
L 126.842837 344.377425 
L 130.094585 322.346504 
L 133.346334 311.332879 
L 136.598082 299.953556 
L 139.84983 287.994927 
L 143.101578 276.716058 
L 146.353327 264.97251 
L 149.605075 254.942646 
L 152.856823 245.853139 
L 156.108571 236.052505 
L 159.36032 228.604919 
L 162.612068 220.483717 
L 165.863816 211.460247 
L 169.115564 204.783618 
L 172.367313 198.133257 
L 175.619061 193.150605 
L 178.870809 182.698643 
L 182.122557 177.045735 
L 185.374306 171.037305 
L 188.626054 164.007126 
L 191.877802 158.03211 
L 195.12955 151.661325 
L 198.381299 148.406851 
L 201.633047 143.375729 
L 204.884795 135.731632 
L 208.136543 131.393247 
L 211.388292 129.619215 
L 214.64004 125.491098 
L 217.891788 122.366358 
L 221.143536 121.055676 
" style="fill:none;stroke:#808080;stroke-linecap:square;stroke-opacity:0.6;stroke-width:0.5;"/>
   </g>
   <g id="line2d_54">
    <path clip-path="url(#pb81d09b74e)" d="M 104.080599 424.142174 
L 107.332348 396.562114 
L 110.584096 374.190546 
L 113.835844 353.549254 
L 117.087592 329.203616 
L 120.339341 308.358529 
L 123.591089 286.835534 
L 126.842837 275.943918 
L 130.094585 266.980537 
L 133.346334 252.331631 
L 136.598082 242.390138 
L 139.84983 236.546525 
L 143.101578 232.325471 
L 146.353327 226.679471 
L 149.605075 221.202878 
L 152.856823 215.71238 
L 156.108571 209.853968 
L 159.36032 204.334281 
L 162.612068 199.91901 
L 165.863816 196.375005 
L 169.115564 192.694035 
L 172.367313 189.232784 
L 175.619061 186.385909 
L 178.870809 183.22098 
L 182.122557 180.885055 
L 185.374306 178.516518 
L 188.626054 175.442562 
L 191.877802 171.857993 
L 195.12955 167.713123 
L 198.381299 163.589992 
L 201.633047 158.974111 
L 204.884795 154.55182 
L 208.136543 150.719941 
L 211.388292 146.832539 
L 214.64004 143.3146 
L 217.891788 140.160551 
L 221.143536 137.306423 
L 224.395285 137.306423 
L 227.647033 132.468958 
L 230.898781 130.348322 
" style="fill:none;stroke:#808080;stroke-linecap:square;stroke-opacity:0.6;stroke-width:0.5;"/>
   </g>
   <g id="line2d_55">
    <path clip-path="url(#pb81d09b74e)" d="M 104.080599 408.677862 
L 107.332348 377.970644 
L 110.584096 347.608608 
L 113.835844 330.771002 
L 117.087592 317.810907 
L 120.339341 307.459165 
L 123.591089 297.61058 
L 126.842837 284.855778 
L 130.094585 265.399712 
L 133.346334 243.44609 
L 136.598082 230.714776 
L 139.84983 220.043538 
L 143.101578 209.127201 
L 146.353327 201.361094 
L 149.605075 194.191496 
L 152.856823 187.110332 
L 156.108571 180.156263 
L 159.36032 173.609145 
L 162.612068 167.619555 
" style="fill:none;stroke:#808080;stroke-linecap:square;stroke-opacity:0.6;stroke-width:0.5;"/>
   </g>
   <g id="line2d_56">
    <path clip-path="url(#pb81d09b74e)" d="M 104.080599 404.295448 
L 107.332348 392.927611 
L 110.584096 381.775291 
L 113.835844 375.9788 
L 117.087592 362.833161 
L 120.339341 349.6859 
L 123.591089 335.800945 
L 126.842837 322.563063 
L 130.094585 313.194536 
L 133.346334 289.754328 
L 136.598082 289.754328 
L 139.84983 280.69848 
L 143.101578 274.500073 
L 146.353327 262.04516 
L 149.605075 251.387524 
L 152.856823 240.312547 
L 156.108571 233.634 
L 159.36032 226.843118 
L 162.612068 222.357285 
L 165.863816 217.487955 
L 169.115564 212.720037 
L 172.367313 206.78419 
L 175.619061 202.743518 
L 178.870809 198.759876 
L 182.122557 195.027282 
L 185.374306 192.877962 
L 188.626054 190.055331 
L 191.877802 185.24416 
L 195.12955 183.06764 
L 198.381299 181.17158 
L 201.633047 179.822478 
" style="fill:none;stroke:#808080;stroke-linecap:square;stroke-opacity:0.6;stroke-width:0.5;"/>
   </g>
   <g id="line2d_57">
    <path clip-path="url(#pb81d09b74e)" d="M 104.080599 435.972832 
L 107.332348 414.632688 
L 110.584096 406.437336 
L 113.835844 397.768637 
L 117.087592 392.377768 
L 120.339341 384.487729 
L 123.591089 372.830186 
L 126.842837 356.422415 
L 130.094585 346.247884 
L 133.346334 334.010928 
L 136.598082 324.151401 
L 139.84983 317.536099 
L 143.101578 308.847257 
L 146.353327 299.65444 
L 149.605075 288.509632 
L 152.856823 277.759253 
L 156.108571 268.557182 
L 159.36032 263.894625 
L 162.612068 257.496138 
L 165.863816 250.421945 
L 169.115564 239.063555 
L 172.367313 231.496755 
L 175.619061 220.483717 
L 178.870809 212.169071 
L 182.122557 207.615391 
L 185.374306 204.158748 
L 188.626054 199.828322 
L 191.877802 195.229771 
L 195.12955 190.91813 
L 198.381299 186.322505 
L 201.633047 183.104694 
" style="fill:none;stroke:#808080;stroke-linecap:square;stroke-opacity:0.6;stroke-width:0.5;"/>
   </g>
   <g id="line2d_58">
    <path clip-path="url(#pb81d09b74e)" d="M 104.080599 428.153932 
L 107.332348 409.44823 
L 110.584096 392.743639 
L 113.835844 383.414853 
L 117.087592 374.948908 
L 120.339341 361.558994 
L 123.591089 351.85584 
L 126.842837 338.736732 
L 130.094585 330.158268 
L 133.346334 321.959111 
L 136.598082 311.298429 
L 139.84983 302.157536 
L 143.101578 293.16689 
L 146.353327 284.318745 
L 149.605075 274.759423 
L 152.856823 265.372902 
L 156.108571 258.242745 
L 159.36032 252.311134 
L 162.612068 244.639108 
L 165.863816 237.701415 
L 169.115564 230.524503 
L 172.367313 223.398133 
L 175.619061 217.248099 
L 178.870809 212.034538 
L 182.122557 208.228569 
L 185.374306 204.849253 
L 188.626054 201.063519 
L 191.877802 197.338807 
L 195.12955 194.055131 
L 198.381299 191.334845 
" style="fill:none;stroke:#808080;stroke-linecap:square;stroke-opacity:0.6;stroke-width:0.5;"/>
   </g>
   <g id="line2d_59">
    <path clip-path="url(#pb81d09b74e)" d="M 104.080599 438.727941 
L 107.332348 424.493515 
L 110.584096 412.657784 
L 113.835844 396.761135 
L 117.087592 386.062643 
L 120.339341 369.872983 
L 123.591089 355.559616 
L 126.842837 346.177311 
L 130.094585 336.258931 
L 133.346334 329.553155 
L 136.598082 318.008154 
L 139.84983 310.71648 
L 143.101578 303.871217 
L 146.353327 295.400087 
L 149.605075 268.786646 
L 152.856823 260.444743 
L 156.108571 252.92984 
L 159.36032 246.186277 
L 162.612068 238.907716 
L 165.863816 230.570363 
L 169.115564 223.778584 
L 172.367313 218.087746 
L 175.619061 210.266786 
L 178.870809 205.143767 
L 182.122557 200.114912 
L 185.374306 194.762787 
" style="fill:none;stroke:#808080;stroke-linecap:square;stroke-opacity:0.6;stroke-width:0.5;"/>
   </g>
   <g id="line2d_60">
    <path clip-path="url(#pb81d09b74e)" d="M 104.080599 439.202682 
L 107.332348 427.026609 
L 110.584096 411.02655 
L 113.835844 396.363904 
L 117.087592 377.700307 
L 120.339341 361.462349 
L 123.591089 348.710404 
L 126.842837 335.460263 
L 130.094585 327.348725 
L 133.346334 314.171036 
L 136.598082 303.871217 
L 139.84983 289.842882 
L 143.101578 280.716846 
L 146.353327 274.274269 
L 149.605075 265.372902 
L 152.856823 255.083456 
L 156.108571 247.135071 
L 159.36032 241.849967 
L 162.612068 233.23081 
L 165.863816 228.8131 
L 169.115564 225.195674 
L 172.367313 222.224589 
L 175.619061 217.971242 
L 178.870809 215.198313 
L 182.122557 212.733664 
L 185.374306 210.870787 
L 188.626054 209.169405 
L 191.877802 208.162353 
L 195.12955 207.273082 
" style="fill:none;stroke:#808080;stroke-linecap:square;stroke-opacity:0.6;stroke-width:0.5;"/>
   </g>
   <g id="line2d_61">
    <path clip-path="url(#pb81d09b74e)" d="M 104.080599 434.651649 
L 107.332348 414.632688 
L 110.584096 396.562114 
L 113.835844 381.92208 
L 117.087592 367.193742 
L 120.339341 349.6859 
L 123.591089 339.900477 
L 126.842837 327.157524 
L 130.094585 316.108773 
L 133.346334 305.250476 
L 136.598082 292.953829 
L 139.84983 286.296927 
L 143.101578 274.743173 
L 146.353327 266.553021 
L 149.605075 257.507537 
L 152.856823 248.17797 
L 156.108571 241.242215 
L 159.36032 237.731781 
L 162.612068 230.445987 
L 165.863816 225.431006 
L 169.115564 221.019396 
L 172.367313 216.63389 
L 175.619061 213.590717 
L 178.870809 210.22362 
" style="fill:none;stroke:#808080;stroke-linecap:square;stroke-opacity:0.6;stroke-width:0.5;"/>
   </g>
   <g id="line2d_62">
    <path clip-path="url(#pb81d09b74e)" d="M 104.080599 430.89059 
L 107.332348 406.437336 
L 110.584096 398.797441 
L 113.835844 388.189326 
L 117.087592 369.416073 
L 120.339341 351.304216 
L 123.591089 333.032247 
L 126.842837 322.26015 
L 130.094585 306.921124 
L 133.346334 297.119185 
L 136.598082 289.732214 
L 139.84983 284.855778 
L 143.101578 276.06063 
L 146.353327 268.328795 
L 149.605075 261.845321 
L 152.856823 257.644545 
L 156.108571 254.08498 
L 159.36032 243.284101 
L 162.612068 234.585603 
L 165.863816 227.484805 
L 169.115564 220.901039 
L 172.367313 214.741671 
L 175.619061 210.866415 
" style="fill:none;stroke:#808080;stroke-linecap:square;stroke-opacity:0.6;stroke-width:0.5;"/>
   </g>
   <g id="line2d_63">
    <path clip-path="url(#pb81d09b74e)" d="M 104.080599 418.840545 
L 107.332348 379.906264 
L 110.584096 352.897176 
L 113.835844 341.347505 
L 117.087592 333.682509 
L 120.339341 321.489782 
L 123.591089 305.402778 
L 126.842837 293.859834 
L 130.094585 275.79427 
L 133.346334 266.800799 
L 136.598082 258.150234 
L 139.84983 251.669849 
L 143.101578 246.713129 
L 146.353327 242.868812 
L 149.605075 238.682633 
L 152.856823 235.07926 
L 156.108571 232.509288 
L 159.36032 230.846433 
L 162.612068 229.990482 
L 165.863816 228.447797 
L 169.115564 227.737684 
L 172.367313 227.062173 
L 175.619061 226.413961 
L 178.870809 225.958738 
L 182.122557 225.519549 
L 185.374306 225.025768 
L 188.626054 224.484863 
L 191.877802 223.613546 
L 195.12955 223.121764 
L 198.381299 222.301951 
L 201.633047 221.762983 
L 204.884795 221.414199 
L 208.136543 221.003239 
L 211.388292 220.467737 
L 214.64004 219.916996 
L 217.891788 219.440159 
L 221.143536 218.684754 
L 224.395285 218.148642 
L 227.647033 217.754176 
L 230.898781 217.128614 
L 234.15053 217.128614 
L 237.402278 216.192899 
L 240.654026 215.775209 
L 243.905774 215.322728 
L 247.157523 214.936171 
L 250.409271 214.713272 
" style="fill:none;stroke:#808080;stroke-linecap:square;stroke-opacity:0.6;stroke-width:0.5;"/>
   </g>
   <g id="line2d_64">
    <path clip-path="url(#pb81d09b74e)" d="M 104.080599 432.944084 
L 107.332348 412.107941 
L 110.584096 395.579038 
L 113.835844 393.670535 
L 117.087592 369.529899 
L 120.339341 368.850903 
L 123.591089 347.102851 
L 126.842837 344.650034 
L 130.094585 334.175973 
L 133.346334 324.783365 
L 136.598082 310.309844 
L 139.84983 296.125817 
L 143.101578 286.15293 
L 146.353327 280.405564 
L 149.605075 274.097584 
L 152.856823 265.533985 
L 156.108571 257.747555 
L 159.36032 255.224675 
L 162.612068 250.629369 
L 165.863816 244.368553 
L 169.115564 238.93106 
L 172.367313 230.544152 
L 175.619061 226.824907 
L 178.870809 224.386634 
" style="fill:none;stroke:#808080;stroke-linecap:square;stroke-opacity:0.6;stroke-width:0.5;"/>
   </g>
   <g id="line2d_65">
    <path clip-path="url(#pb81d09b74e)" d="M 104.080599 424.847412 
L 107.332348 416.992452 
L 110.584096 405.712848 
L 113.835844 395.969889 
L 117.087592 382.662742 
L 120.339341 365.696374 
L 123.591089 351.382637 
L 126.842837 340.52434 
L 130.094585 331.967421 
L 133.346334 326.588388 
L 136.598082 322.563063 
L 139.84983 320.606167 
L 143.101578 315.316914 
L 146.353327 310.955264 
L 149.605075 304.55596 
L 152.856823 301.001246 
L 156.108571 296.734717 
L 159.36032 294.004442 
L 162.612068 288.187304 
L 165.863816 283.339626 
L 169.115564 277.915078 
L 172.367313 273.921538 
L 175.619061 267.903438 
L 178.870809 264.456879 
L 182.122557 260.323787 
L 185.374306 255.639833 
L 188.626054 250.323482 
L 191.877802 245.468821 
L 195.12955 240.30454 
L 198.381299 237.466724 
L 201.633047 234.628331 
" style="fill:none;stroke:#808080;stroke-linecap:square;stroke-opacity:0.6;stroke-width:0.5;"/>
   </g>
   <g id="line2d_66">
    <path clip-path="url(#pb81d09b74e)" d="M 104.080599 440.16629 
L 107.332348 434.651649 
L 110.584096 428.920256 
L 113.835844 418.527614 
L 117.087592 407.172775 
L 120.339341 395.774071 
L 123.591089 387.032653 
L 126.842837 375.848865 
L 130.094585 366.546363 
L 133.346334 355.902902 
L 136.598082 344.855498 
L 139.84983 334.674492 
L 143.101578 323.571836 
L 146.353327 302.04351 
L 149.605075 298.901248 
L 152.856823 285.056192 
L 156.108571 278.036621 
L 159.36032 272.041307 
L 162.612068 268.887378 
L 165.863816 263.044074 
L 169.115564 259.544817 
L 172.367313 254.319335 
L 175.619061 252.743401 
L 178.870809 250.03906 
L 182.122557 247.672353 
L 185.374306 244.744245 
L 188.626054 243.540121 
L 191.877802 243.05483 
" style="fill:none;stroke:#808080;stroke-linecap:square;stroke-opacity:0.6;stroke-width:0.5;"/>
   </g>
   <g id="line2d_67">
    <path clip-path="url(#pb81d09b74e)" d="M 104.080599 434.219107 
L 107.332348 421.419192 
L 110.584096 414.632688 
L 113.835844 408.423759 
L 117.087592 390.588574 
L 120.339341 362.932569 
L 123.591089 351.304216 
L 126.842837 351.304216 
L 130.094585 332.87103 
L 133.346334 324.511518 
L 136.598082 320.522844 
L 139.84983 315.055798 
L 143.101578 310.955264 
L 146.353327 306.732639 
L 149.605075 301.112853 
L 152.856823 296.226773 
L 156.108571 291.282117 
L 159.36032 286.111866 
L 162.612068 282.265905 
L 165.863816 276.04394 
L 169.115564 272.195248 
L 172.367313 266.047629 
L 175.619061 262.586328 
L 178.870809 259.437936 
L 182.122557 257.988762 
L 185.374306 255.508347 
L 188.626054 253.179543 
L 191.877802 250.441662 
L 195.12955 247.821618 
L 198.381299 245.078683 
L 201.633047 243.943945 
" style="fill:none;stroke:#808080;stroke-linecap:square;stroke-opacity:0.6;stroke-width:0.5;"/>
   </g>
   <g id="line2d_68">
    <path clip-path="url(#pb81d09b74e)" d="M 104.080599 433.790377 
L 107.332348 421.419192 
L 110.584096 406.681249 
L 113.835844 394.998587 
L 117.087592 385.743556 
L 120.339341 368.292221 
L 123.591089 368.292221 
L 126.842837 362.33914 
L 130.094585 348.48804 
L 133.346334 336.605271 
L 136.598082 326.400145 
L 139.84983 316.720864 
L 143.101578 307.3003 
L 146.353327 298.555476 
L 149.605075 286.814708 
L 152.856823 278.420602 
L 156.108571 266.498131 
L 159.36032 258.883561 
L 162.612068 252.495921 
L 165.863816 246.159181 
" style="fill:none;stroke:#808080;stroke-linecap:square;stroke-opacity:0.6;stroke-width:0.5;"/>
   </g>
   <g id="line2d_69">
    <path clip-path="url(#pb81d09b74e)" d="M 104.080599 427.775248 
L 107.332348 414.632688 
L 110.584096 401.140416 
L 113.835844 388.022394 
L 117.087592 377.030962 
L 120.339341 356.596826 
L 123.591089 346.67349 
L 126.842837 339.900477 
L 130.094585 332.924709 
L 133.346334 322.389739 
L 136.598082 314.280755 
L 139.84983 306.357844 
L 143.101578 299.008135 
L 146.353327 291.53383 
L 149.605075 285.21712 
L 152.856823 281.345449 
L 156.108571 276.144168 
L 159.36032 270.992186 
L 162.612068 267.903438 
L 165.863816 262.535732 
L 169.115564 257.450565 
L 172.367313 253.82003 
L 175.619061 248.736478 
" style="fill:none;stroke:#808080;stroke-linecap:square;stroke-opacity:0.6;stroke-width:0.5;"/>
   </g>
   <g id="line2d_70">
    <path clip-path="url(#pb81d09b74e)" d="M 104.080599 432.944084 
L 107.332348 420.436117 
L 110.584096 403.145026 
L 113.835844 387.032653 
L 117.087592 380.047514 
L 120.339341 368.738652 
L 123.591089 359.754785 
L 126.842837 345.896035 
L 130.094585 333.032247 
L 133.346334 328.365045 
L 136.598082 320.689633 
L 139.84983 317.810907 
L 143.101578 311.957186 
L 146.353327 303.635286 
L 149.605075 292.906609 
L 152.856823 288.037612 
L 156.108571 280.460352 
L 159.36032 277.517846 
L 162.612068 274.629575 
L 165.863816 269.906333 
L 169.115564 265.939042 
L 172.367313 262.422083 
L 175.619061 258.405063 
L 178.870809 255.235555 
L 182.122557 254.000039 
" style="fill:none;stroke:#808080;stroke-linecap:square;stroke-opacity:0.6;stroke-width:0.5;"/>
   </g>
   <g id="line2d_71">
    <path clip-path="url(#pb81d09b74e)" d="M 104.080599 418.527614 
L 107.332348 406.194639 
L 110.584096 397.972665 
L 113.835844 380.33125 
L 117.087592 368.738652 
L 120.339341 358.376205 
L 123.591089 350.449818 
L 126.842837 342.38013 
L 130.094585 332.072861 
L 133.346334 321.659924 
L 136.598082 315.13026 
L 139.84983 304.947293 
L 143.101578 296.658187 
L 146.353327 291.122612 
L 149.605075 284.536821 
L 152.856823 279.108832 
L 156.108571 274.161759 
L 159.36032 268.514278 
L 162.612068 263.97269 
L 165.863816 258.743025 
L 169.115564 255.246437 
" style="fill:none;stroke:#808080;stroke-linecap:square;stroke-opacity:0.6;stroke-width:0.5;"/>
   </g>
   <g id="line2d_72">
    <path clip-path="url(#pb81d09b74e)" d="M 104.080599 434.219107 
L 107.332348 392.927611 
L 110.584096 360.317341 
L 113.835844 347.174781 
L 117.087592 338.736732 
L 120.339341 337.36424 
L 123.591089 334.618848 
L 126.842837 331.54793 
L 130.094585 326.967071 
L 133.346334 322.824211 
L 136.598082 321.277937 
L 139.84983 317.06858 
L 143.101578 314.390723 
L 146.353327 311.922291 
L 149.605075 309.70619 
L 152.856823 305.524964 
L 156.108571 301.618276 
L 159.36032 297.480784 
L 162.612068 293.285661 
L 165.863816 289.732214 
L 169.115564 285.621785 
L 172.367313 282.057751 
L 175.619061 276.987527 
L 178.870809 272.956678 
L 182.122557 268.772273 
L 185.374306 263.712959 
L 188.626054 259.73541 
L 191.877802 256.369424 
" style="fill:none;stroke:#808080;stroke-linecap:square;stroke-opacity:0.6;stroke-width:0.5;"/>
   </g>
   <g id="line2d_73">
    <path clip-path="url(#pb81d09b74e)" d="M 104.080599 438.257787 
L 107.332348 429.307992 
L 110.584096 412.382086 
L 113.835844 397.972665 
L 117.087592 388.86284 
L 120.339341 378.515867 
L 123.591089 369.758353 
L 126.842837 358.466905 
L 130.094585 350.296072 
L 133.346334 342.184836 
L 136.598082 333.193999 
L 139.84983 325.700652 
L 143.101578 318.405061 
L 146.353327 312.132036 
L 149.605075 304.108297 
L 152.856823 297.871216 
L 156.108571 293.072081 
L 159.36032 287.359109 
L 162.612068 282.494002 
L 165.863816 275.545874 
L 169.115564 268.815405 
L 172.367313 265.426537 
L 175.619061 259.437936 
" style="fill:none;stroke:#808080;stroke-linecap:square;stroke-opacity:0.6;stroke-width:0.5;"/>
   </g>
   <g id="line2d_74">
    <path clip-path="url(#pb81d09b74e)" d="M 104.080599 429.307992 
L 107.332348 424.847412 
L 110.584096 415.798267 
L 113.835844 408.677862 
L 117.087592 399.425328 
L 120.339341 383.56668 
L 123.591089 368.181251 
L 126.842837 362.63495 
L 130.094585 356.161966 
L 133.346334 349.158204 
L 136.598082 343.836746 
L 139.84983 334.7302 
L 143.101578 329.153886 
L 146.353327 324.783365 
L 149.605075 317.223921 
L 152.856823 311.852577 
L 156.108571 295.251277 
L 159.36032 287.570127 
L 162.612068 276.278127 
L 165.863816 268.945032 
L 169.115564 259.85491 
" style="fill:none;stroke:#808080;stroke-linecap:square;stroke-opacity:0.6;stroke-width:0.5;"/>
   </g>
   <g id="line2d_75">
    <path clip-path="url(#pb81d09b74e)" d="M 104.080599 434.219107 
L 107.332348 424.142174 
L 110.584096 410.494735 
L 113.835844 402.467606 
L 117.087592 393.670535 
L 120.339341 390.588574 
L 123.591089 385.426547 
L 126.842837 376.898191 
L 130.094585 368.850903 
L 133.346334 354.964632 
L 136.598082 341.347505 
L 139.84983 332.924709 
L 143.101578 326.730049 
L 146.353327 315.654705 
L 149.605075 309.973556 
L 152.856823 300.612626 
L 156.108571 295.574275 
L 159.36032 288.76904 
L 162.612068 284.318745 
L 165.863816 279.108832 
L 169.115564 271.780721 
L 172.367313 265.614727 
L 175.619061 262.346465 
" style="fill:none;stroke:#808080;stroke-linecap:square;stroke-opacity:0.6;stroke-width:0.5;"/>
   </g>
   <g id="line2d_76">
    <path clip-path="url(#pb81d09b74e)" d="M 104.080599 432.526394 
L 107.332348 427.775248 
L 110.584096 420.761607 
L 113.835844 417.907725 
L 117.087592 407.172775 
L 120.339341 397.972665 
L 123.591089 369.416073 
L 126.842837 356.947535 
L 130.094585 347.391211 
L 133.346334 339.59152 
L 136.598082 333.248037 
L 139.84983 326.682783 
L 143.101578 319.943544 
L 146.353327 315.13026 
L 149.605075 307.810507 
L 152.856823 304.525987 
L 156.108571 299.627338 
L 159.36032 293.643724 
L 162.612068 290.624685 
L 165.863816 287.169972 
L 169.115564 284.121339 
L 172.367313 281.141188 
L 175.619061 281.141188 
L 178.870809 276.177623 
L 182.122557 272.815927 
L 185.374306 269.539966 
L 188.626054 267.397868 
L 191.877802 264.959221 
" style="fill:none;stroke:#808080;stroke-linecap:square;stroke-opacity:0.6;stroke-width:0.5;"/>
   </g>
   <g id="line2d_77">
    <path clip-path="url(#pb81d09b74e)" d="M 104.080599 437.792131 
L 107.332348 426.656565 
L 110.584096 422.422539 
L 113.835844 422.422539 
L 117.087592 416.094077 
L 120.339341 409.968669 
L 123.591089 404.063178 
L 126.842837 399.636437 
L 130.094585 397.768637 
L 133.346334 394.806632 
L 136.598082 394.806632 
L 139.84983 392.195859 
L 143.101578 384.025025 
L 146.353327 379.345329 
L 149.605075 371.744775 
L 152.856823 366.439299 
L 156.108571 363.032182 
L 159.36032 360.506314 
L 162.612068 355.645211 
L 165.863816 351.461186 
L 169.115564 347.246817 
L 172.367313 342.970758 
L 175.619061 340.211409 
L 178.870809 338.135234 
L 182.122557 337.54108 
L 185.374306 337.246702 
L 188.626054 334.7302 
L 191.877802 330.617094 
L 195.12955 327.781694 
L 198.381299 325.932701 
L 201.633047 323.972337 
L 204.884795 322.26015 
L 208.136543 319.533941 
L 211.388292 316.567118 
L 214.64004 313.015834 
L 217.891788 308.42341 
L 221.143536 302.501226 
L 224.395285 297.766794 
L 227.647033 295.549352 
L 230.898781 295.549352 
L 234.15053 290.243383 
L 237.402278 281.308247 
L 240.654026 275.727907 
L 243.905774 270.453668 
L 247.157523 265.065641 
" style="fill:none;stroke:#808080;stroke-linecap:square;stroke-opacity:0.6;stroke-width:0.5;"/>
   </g>
   <g id="line2d_78">
    <path clip-path="url(#pb81d09b74e)" d="M 104.080599 435.088069 
L 107.332348 414.921476 
L 110.584096 406.681249 
L 113.835844 369.643992 
L 117.087592 358.831406 
L 120.339341 339.653155 
L 123.591089 329.054579 
L 126.842837 324.286133 
L 130.094585 318.805233 
L 133.346334 311.644031 
L 136.598082 304.43618 
L 139.84983 298.581986 
L 143.101578 297.144925 
L 146.353327 295.22652 
L 149.605075 287.548984 
L 152.856823 278.754678 
L 156.108571 272.087438 
L 159.36032 269.031643 
L 162.612068 267.649996 
L 165.863816 265.172294 
" style="fill:none;stroke:#808080;stroke-linecap:square;stroke-opacity:0.6;stroke-width:0.5;"/>
   </g>
   <g id="line2d_79">
    <path clip-path="url(#pb81d09b74e)" d="M 104.080599 409.707754 
L 107.332348 409.707754 
L 110.584096 386.383836 
L 113.835844 364.039683 
L 117.087592 362.33914 
L 120.339341 349.383659 
L 123.591089 339.962505 
L 126.842837 333.956038 
L 130.094585 328.561059 
L 133.346334 325.423646 
L 136.598082 319.37106 
L 139.84983 319.37106 
L 143.101578 311.470923 
L 146.353327 307.554735 
L 149.605075 304.496033 
L 152.856823 293.452429 
L 156.108571 287.782063 
L 159.36032 287.782063 
L 162.612068 287.782063 
L 165.863816 284.516956 
L 169.115564 270.364492 
" style="fill:none;stroke:#808080;stroke-linecap:square;stroke-opacity:0.6;stroke-width:0.5;"/>
   </g>
   <g id="line2d_80">
    <path clip-path="url(#pb81d09b74e)" d="M 104.080599 435.088069 
L 107.332348 423.793351 
L 110.584096 423.103118 
L 113.835844 409.707754 
L 117.087592 405.953147 
L 120.339341 399.636437 
L 123.591089 399.636437 
L 126.842837 375.204345 
L 130.094585 375.204345 
L 133.346334 365.696374 
L 136.598082 357.035608 
L 139.84983 350.14281 
L 143.101578 344.992957 
L 146.353327 338.797293 
L 149.605075 324.601965 
L 152.856823 311.126544 
L 156.108571 292.390186 
L 159.36032 292.390186 
L 162.612068 287.359109 
L 165.863816 281.011648 
L 169.115564 274.370914 
L 172.367313 273.160706 
L 175.619061 270.827006 
" style="fill:none;stroke:#808080;stroke-linecap:square;stroke-opacity:0.6;stroke-width:0.5;"/>
   </g>
   <g id="line2d_81">
    <path clip-path="url(#pb81d09b74e)" d="M 104.080599 423.793351 
L 107.332348 404.063178 
L 110.584096 379.906264 
L 113.835844 363.432683 
L 117.087592 347.608608 
L 120.339341 339.101233 
L 123.591089 334.618848 
L 126.842837 323.527538 
L 130.094585 314.134518 
L 133.346334 309.940055 
L 136.598082 305.098648 
L 139.84983 298.688174 
L 143.101578 295.624157 
L 146.353327 294.685021 
L 149.605075 290.243383 
L 152.856823 287.190951 
L 156.108571 283.787575 
L 159.36032 281.401306 
L 162.612068 279.269046 
L 165.863816 277.949773 
" style="fill:none;stroke:#808080;stroke-linecap:square;stroke-opacity:0.6;stroke-width:0.5;"/>
   </g>
   <g id="line2d_82">
    <path clip-path="url(#pb81d09b74e)" d="M 104.080599 432.112259 
L 107.332348 426.289313 
L 110.584096 426.289313 
L 113.835844 414.060204 
L 117.087592 397.972665 
L 120.339341 391.118459 
L 123.591089 373.691458 
L 126.842837 360.791158 
L 130.094585 356.161966 
L 133.346334 341.029253 
L 136.598082 333.248037 
L 139.84983 327.54068 
L 143.101578 323.306655 
L 146.353327 319.127756 
L 149.605075 318.087276 
L 152.856823 309.940055 
L 156.108571 306.388967 
L 159.36032 301.731309 
L 162.612068 297.273827 
L 165.863816 297.273827 
L 169.115564 290.221046 
L 172.367313 285.825386 
" style="fill:none;stroke:#808080;stroke-linecap:square;stroke-opacity:0.6;stroke-width:0.5;"/>
   </g>
   <g id="line2d_83">
    <path clip-path="url(#pb81d09b74e)" d="M 104.080599 432.526394 
L 107.332348 422.085786 
L 110.584096 398.797441 
L 113.835844 393.112281 
L 117.087592 383.871764 
L 120.339341 377.431463 
L 123.591089 373.320474 
L 126.842837 370.799879 
L 130.094585 356.509543 
L 133.346334 354.627879 
L 136.598082 350.219381 
L 139.84983 347.536034 
L 143.101578 335.915038 
L 146.353327 330.617094 
L 149.605075 325.05674 
L 152.856823 314.500939 
L 156.108571 311.264003 
L 159.36032 305.402778 
L 162.612068 301.001246 
L 165.863816 287.994927 
" style="fill:none;stroke:#808080;stroke-linecap:square;stroke-opacity:0.6;stroke-width:0.5;"/>
   </g>
   <g id="line2d_84">
    <path clip-path="url(#pb81d09b74e)" d="M 104.080599 432.526394 
L 107.332348 425.924813 
L 110.584096 413.776468 
L 113.835844 413.776468 
L 117.087592 400.275316 
L 120.339341 385.268814 
L 123.591089 366.97699 
L 126.842837 360.506314 
L 130.094585 354.711849 
L 133.346334 346.460222 
L 136.598082 339.59152 
L 139.84983 333.627987 
L 143.101578 325.932701 
L 146.353327 321.109123 
L 149.605075 315.919063 
L 152.856823 311.264003 
L 156.108571 307.491001 
L 159.36032 302.963289 
L 162.612068 299.790173 
L 165.863816 294.734 
L 169.115564 292.203747 
L 172.367313 288.165891 
" style="fill:none;stroke:#808080;stroke-linecap:square;stroke-opacity:0.6;stroke-width:0.5;"/>
   </g>
   <g id="line2d_85">
    <path clip-path="url(#pb81d09b74e)" d="M 104.080599 433.790377 
L 107.332348 412.382086 
L 110.584096 412.382086 
L 113.835844 412.382086 
L 117.087592 403.601937 
L 120.339341 377.030962 
L 123.591089 353.059378 
L 126.842837 344.038797 
L 130.094585 337.36424 
L 133.346334 331.44362 
L 136.598082 325.979244 
L 139.84983 321.916257 
L 143.101578 321.916257 
L 146.353327 317.457866 
L 149.605075 312.167081 
L 152.856823 303.723626 
L 156.108571 303.723626 
L 159.36032 300.309443 
L 162.612068 297.532661 
L 165.863816 294.93041 
L 169.115564 290.444877 
L 172.367313 289.313958 
" style="fill:none;stroke:#808080;stroke-linecap:square;stroke-opacity:0.6;stroke-width:0.5;"/>
   </g>
   <g id="line2d_86">
    <path clip-path="url(#pb81d09b74e)" d="M 104.080599 432.112259 
L 107.332348 416.094077 
L 110.584096 405.712848 
L 113.835844 395.384784 
L 117.087592 384.178771 
L 120.339341 376.898191 
L 123.591089 372.103895 
L 126.842837 364.346047 
L 130.094585 354.210189 
L 133.346334 344.30951 
L 136.598082 336.144029 
L 139.84983 328.462953 
L 143.101578 323.749429 
L 146.353327 318.644769 
L 149.605075 312.518931 
L 152.856823 312.518931 
L 156.108571 302.64515 
L 159.36032 297.144925 
L 162.612068 291.0317 
" style="fill:none;stroke:#808080;stroke-linecap:square;stroke-opacity:0.6;stroke-width:0.5;"/>
   </g>
   <g id="line2d_87">
    <path clip-path="url(#pb81d09b74e)" d="M 104.080599 435.972832 
L 107.332348 424.847412 
L 110.584096 406.437336 
L 113.835844 396.562114 
L 117.087592 384.642946 
L 120.339341 379.906264 
L 123.591089 367.739882 
L 126.842837 353.961285 
L 130.094585 347.31896 
L 133.346334 339.838529 
L 136.598082 333.193999 
L 139.84983 328.659364 
L 143.101578 324.601965 
L 146.353327 320.02588 
L 149.605075 314.722124 
L 152.856823 309.208803 
L 156.108571 303.079493 
L 159.36032 299.492057 
L 162.612068 294.685021 
" style="fill:none;stroke:#808080;stroke-linecap:square;stroke-opacity:0.6;stroke-width:0.5;"/>
   </g>
   <g id="line2d_88">
    <path clip-path="url(#pb81d09b74e)" d="M 104.080599 418.840545 
M 110.584096 404.063178 
L 113.835844 392.377768 
L 117.087592 391.474948 
L 120.339341 383.718983 
L 123.591089 376.633731 
L 126.842837 372.708383 
L 130.094585 366.97699 
L 133.346334 359.848094 
L 136.598082 350.913992 
L 139.84983 345.477146 
L 143.101578 339.468484 
L 146.353327 334.341579 
L 149.605075 330.209036 
L 152.856823 326.919574 
L 156.108571 318.524767 
L 159.36032 318.524767 
L 162.612068 314.870141 
L 165.863816 312.307516 
L 169.115564 310.17505 
L 172.367313 307.810507 
L 175.619061 304.796408 
L 178.870809 297.351333 
L 182.122557 296.201515 
" style="fill:none;stroke:#808080;stroke-linecap:square;stroke-opacity:0.6;stroke-width:0.5;"/>
   </g>
   <g id="line2d_89">
    <path clip-path="url(#pb81d09b74e)" d="M 104.080599 428.920256 
L 107.332348 425.563022 
L 110.584096 420.761607 
L 113.835844 409.44823 
L 117.087592 401.359116 
L 120.339341 395.774071 
L 123.591089 386.222974 
L 126.842837 374.694805 
L 130.094585 366.225875 
L 133.346334 348.414144 
L 136.598082 342.707371 
L 139.84983 342.707371 
L 143.101578 333.248037 
L 146.353327 325.285732 
L 149.605075 320.439663 
L 152.856823 309.175824 
L 156.108571 304.525987 
L 159.36032 296.683683 
" style="fill:none;stroke:#808080;stroke-linecap:square;stroke-opacity:0.6;stroke-width:0.5;"/>
   </g>
   <g id="line2d_90">
    <path clip-path="url(#pb81d09b74e)" d="M 104.080599 434.219107 
L 107.332348 434.219107 
L 110.584096 423.793351 
L 113.835844 423.793351 
L 117.087592 419.472509 
L 120.339341 419.472509 
L 123.591089 406.926392 
L 126.842837 395.969889 
L 130.094585 381.628943 
L 133.346334 381.628943 
L 136.598082 372.103895 
L 139.84983 365.068487 
L 143.101578 365.068487 
L 146.353327 352.094178 
L 149.605075 348.046337 
L 152.856823 348.046337 
L 156.108571 326.967071 
L 159.36032 326.967071 
L 162.612068 308.229026 
L 165.863816 299.546124 
" style="fill:none;stroke:#808080;stroke-linecap:square;stroke-opacity:0.6;stroke-width:0.5;"/>
   </g>
   <g id="line2d_91">
    <path clip-path="url(#pb81d09b74e)" d="M 104.080599 434.651649 
L 107.332348 405.953147 
L 110.584096 396.562114 
L 113.835844 384.79866 
L 117.087592 373.691458 
L 120.339341 363.032182 
L 123.591089 354.544054 
L 126.842837 344.173966 
L 130.094585 335.516878 
L 133.346334 333.193999 
L 136.598082 323.086769 
L 139.84983 315.956946 
L 143.101578 312.448357 
L 146.353327 308.781809 
L 149.605075 305.924201 
L 152.856823 301.029124 
" style="fill:none;stroke:#808080;stroke-linecap:square;stroke-opacity:0.6;stroke-width:0.5;"/>
   </g>
   <g id="line2d_92">
    <path clip-path="url(#pb81d09b74e)" d="M 104.080599 432.944084 
L 107.332348 420.436117 
L 110.584096 405.235779 
L 113.835844 397.565461 
L 117.087592 391.118459 
L 120.339341 372.465686 
L 123.591089 356.596826 
L 126.842837 344.855498 
L 130.094585 331.809688 
L 133.346334 320.481236 
L 136.598082 319.779289 
L 139.84983 316.108773 
L 143.101578 314.390723 
L 146.353327 313.409849 
L 149.605075 312.448357 
L 152.856823 309.639577 
L 156.108571 308.229026 
L 159.36032 305.708821 
L 162.612068 303.605875 
" style="fill:none;stroke:#808080;stroke-linecap:square;stroke-opacity:0.6;stroke-width:0.5;"/>
   </g>
   <g id="line2d_93">
    <path clip-path="url(#pb81d09b74e)" d="M 104.080599 393.297655 
M 110.584096 383.56668 
L 113.835844 381.047914 
L 117.087592 372.586883 
L 120.339341 368.181251 
L 123.591089 367.849849 
L 126.842837 366.7612 
L 130.094585 365.907484 
L 133.346334 364.860979 
L 136.598082 363.735237 
L 139.84983 362.437544 
L 143.101578 361.752861 
L 146.353327 359.383328 
L 149.605075 358.376205 
L 152.856823 357.300789 
L 156.108571 356.161966 
L 159.36032 353.796054 
L 162.612068 350.296072 
L 165.863816 345.966201 
L 169.115564 340.149063 
L 172.367313 336.895783 
L 175.619061 330.668342 
L 178.870809 330.668342 
L 182.122557 314.427434 
L 185.374306 305.128976 
" style="fill:none;stroke:#808080;stroke-linecap:square;stroke-opacity:0.6;stroke-width:0.5;"/>
   </g>
   <g id="line2d_94">
    <path clip-path="url(#pb81d09b74e)" d="M 104.080599 428.153932 
L 107.332348 417.907725 
L 110.584096 400.705944 
L 113.835844 392.56036 
L 117.087592 386.545231 
L 120.339341 374.316122 
L 123.591089 361.655831 
L 126.842837 353.8786 
L 130.094585 346.177311 
L 133.346334 342.445402 
L 136.598082 337.777872 
L 139.84983 329.804372 
L 143.101578 329.804372 
L 146.353327 322.044933 
L 149.605075 322.044933 
L 152.856823 316.682382 
L 156.108571 310.007081 
L 159.36032 306.669972 
" style="fill:none;stroke:#808080;stroke-linecap:square;stroke-opacity:0.6;stroke-width:0.5;"/>
   </g>
   <g id="line2d_95">
    <path clip-path="url(#pb81d09b74e)" d="M 104.080599 432.526394 
L 107.332348 432.526394 
L 110.584096 424.493515 
L 113.835844 412.107941 
L 117.087592 406.681249 
L 120.339341 396.166497 
L 123.591089 395.579038 
L 126.842837 382.069313 
L 130.094585 371.625655 
L 133.346334 364.551366 
L 136.598082 355.645211 
L 139.84983 353.961285 
L 143.101578 349.23324 
L 146.353327 342.970758 
L 149.605075 338.857929 
L 152.856823 333.791736 
L 156.108571 329.955727 
L 159.36032 327.157524 
L 162.612068 324.106573 
L 165.863816 321.959111 
L 169.115564 318.44493 
L 172.367313 314.648284 
L 175.619061 313.015834 
L 178.870809 311.160873 
L 182.122557 308.847257 
" style="fill:none;stroke:#808080;stroke-linecap:square;stroke-opacity:0.6;stroke-width:0.5;"/>
   </g>
   <g id="line2d_96">
    <path clip-path="url(#pb81d09b74e)" d="M 104.080599 439.202682 
L 107.332348 428.153932 
L 110.584096 417.907725 
L 113.835844 404.063178 
L 117.087592 398.589932 
L 120.339341 385.743556 
L 123.591089 375.46113 
L 126.842837 364.860979 
L 130.094585 362.733955 
L 133.346334 358.195311 
L 136.598082 352.333689 
L 139.84983 345.338314 
L 143.101578 339.101233 
L 146.353327 332.924709 
L 149.605075 325.05674 
L 152.856823 320.856995 
L 156.108571 316.605509 
L 159.36032 311.540093 
L 162.612068 308.880014 
" style="fill:none;stroke:#808080;stroke-linecap:square;stroke-opacity:0.6;stroke-width:0.5;"/>
   </g>
   <g id="line2d_97">
    <path clip-path="url(#pb81d09b74e)" d="M 104.080599 439.202682 
L 107.332348 409.190083 
L 110.584096 399.425328 
L 113.835844 392.927611 
L 117.087592 385.902838 
L 120.339341 385.902838 
L 123.591089 371.625655 
L 126.842837 366.546363 
L 130.094585 360.791158 
L 133.346334 354.293441 
L 136.598082 336.201446 
L 139.84983 336.201446 
L 143.101578 328.807193 
L 146.353327 315.35433 
L 149.605075 314.611406 
" style="fill:none;stroke:#808080;stroke-linecap:square;stroke-opacity:0.6;stroke-width:0.5;"/>
   </g>
   <g id="patch_3">
    <path d="M 91.398781 459.933562 
L 91.398781 25.053562 
" style="fill:none;stroke:#000000;stroke-linecap:square;stroke-linejoin:miter;stroke-width:0.8;"/>
   </g>
   <g id="patch_4">
    <path d="M 370.398781 459.933562 
L 370.398781 25.053562 
" style="fill:none;stroke:#000000;stroke-linecap:square;stroke-linejoin:miter;stroke-width:0.8;"/>
   </g>
   <g id="patch_5">
    <path d="M 91.398781 459.933562 
L 370.398781 459.933562 
" style="fill:none;stroke:#000000;stroke-linecap:square;stroke-linejoin:miter;stroke-width:0.8;"/>
   </g>
   <g id="patch_6">
    <path d="M 91.398781 25.053562 
L 370.398781 25.053562 
" style="fill:none;stroke:#000000;stroke-linecap:square;stroke-linejoin:miter;stroke-width:0.8;"/>
   </g>
   <g id="text_11">
    <!-- Cumulative reported cases for all countries -->
    <defs>
     <path d="M 18.109375 8.203125 
L 18.109375 -20.796875 
L 9.078125 -20.796875 
L 9.078125 54.6875 
L 18.109375 54.6875 
L 18.109375 46.390625 
Q 20.953125 51.265625 25.265625 53.625 
Q 29.59375 56 35.59375 56 
Q 45.5625 56 51.78125 48.09375 
Q 58.015625 40.1875 58.015625 27.296875 
Q 58.015625 14.40625 51.78125 6.484375 
Q 45.5625 -1.421875 35.59375 -1.421875 
Q 29.59375 -1.421875 25.265625 0.953125 
Q 20.953125 3.328125 18.109375 8.203125 
z
M 48.6875 27.296875 
Q 48.6875 37.203125 44.609375 42.84375 
Q 40.53125 48.484375 33.40625 48.484375 
Q 26.265625 48.484375 22.1875 42.84375 
Q 18.109375 37.203125 18.109375 27.296875 
Q 18.109375 17.390625 22.1875 11.75 
Q 26.265625 6.109375 33.40625 6.109375 
Q 40.53125 6.109375 44.609375 11.75 
Q 48.6875 17.390625 48.6875 27.296875 
z
" id="DejaVuSans-112"/>
    </defs>
    <g transform="translate(62.339562 19.053562)scale(0.156 -0.156)">
     <use xlink:href="#DejaVuSans-67"/>
     <use x="69.824219" xlink:href="#DejaVuSans-117"/>
     <use x="133.203125" xlink:href="#DejaVuSans-109"/>
     <use x="230.615234" xlink:href="#DejaVuSans-117"/>
     <use x="293.994141" xlink:href="#DejaVuSans-108"/>
     <use x="321.777344" xlink:href="#DejaVuSans-97"/>
     <use x="383.056641" xlink:href="#DejaVuSans-116"/>
     <use x="422.265625" xlink:href="#DejaVuSans-105"/>
     <use x="450.048828" xlink:href="#DejaVuSans-118"/>
     <use x="509.228516" xlink:href="#DejaVuSans-101"/>
     <use x="570.751953" xlink:href="#DejaVuSans-32"/>
     <use x="602.539062" xlink:href="#DejaVuSans-114"/>
     <use x="641.402344" xlink:href="#DejaVuSans-101"/>
     <use x="702.925781" xlink:href="#DejaVuSans-112"/>
     <use x="766.402344" xlink:href="#DejaVuSans-111"/>
     <use x="827.583984" xlink:href="#DejaVuSans-114"/>
     <use x="868.697266" xlink:href="#DejaVuSans-116"/>
     <use x="907.90625" xlink:href="#DejaVuSans-101"/>
     <use x="969.429688" xlink:href="#DejaVuSans-100"/>
     <use x="1032.90625" xlink:href="#DejaVuSans-32"/>
     <use x="1064.693359" xlink:href="#DejaVuSans-99"/>
     <use x="1119.673828" xlink:href="#DejaVuSans-97"/>
     <use x="1180.953125" xlink:href="#DejaVuSans-115"/>
     <use x="1233.052734" xlink:href="#DejaVuSans-101"/>
     <use x="1294.576172" xlink:href="#DejaVuSans-115"/>
     <use x="1346.675781" xlink:href="#DejaVuSans-32"/>
     <use x="1378.462891" xlink:href="#DejaVuSans-102"/>
     <use x="1413.667969" xlink:href="#DejaVuSans-111"/>
     <use x="1474.849609" xlink:href="#DejaVuSans-114"/>
     <use x="1515.962891" xlink:href="#DejaVuSans-32"/>
     <use x="1547.75" xlink:href="#DejaVuSans-97"/>
     <use x="1609.029297" xlink:href="#DejaVuSans-108"/>
     <use x="1636.8125" xlink:href="#DejaVuSans-108"/>
     <use x="1664.595703" xlink:href="#DejaVuSans-32"/>
     <use x="1696.382812" xlink:href="#DejaVuSans-99"/>
     <use x="1751.363281" xlink:href="#DejaVuSans-111"/>
     <use x="1812.544922" xlink:href="#DejaVuSans-117"/>
     <use x="1875.923828" xlink:href="#DejaVuSans-110"/>
     <use x="1939.302734" xlink:href="#DejaVuSans-116"/>
     <use x="1978.511719" xlink:href="#DejaVuSans-114"/>
     <use x="2019.625" xlink:href="#DejaVuSans-105"/>
     <use x="2047.408203" xlink:href="#DejaVuSans-101"/>
     <use x="2108.931641" xlink:href="#DejaVuSans-115"/>
    </g>
   </g>
  </g>
 </g>
 <defs>
  <clipPath id="pb81d09b74e">
   <rect height="434.88" width="279" x="91.398781" y="25.053562"/>
  </clipPath>
 </defs>
</svg>
